<svg width="103" height="39" viewBox="0 0 103 39" fill="none" xmlns="http://www.w3.org/2000/svg">
<g clip-path="url(#clip0_7_471)">
<path d="M43.0025 5.48859C43.7106 7.43032 43.6462 10.1057 43.1152 12.2736C42.6055 14.3422 41.7579 16.146 40.862 17.7513C37.1444 24.4039 31.3077 28.8941 25.4979 33.2023C25.1116 32.7059 24.8756 32.1377 24.5376 31.4923C24.4035 31.2385 24.2265 30.9462 24.0602 30.6207C23.926 30.3725 23.6471 29.9643 23.6364 29.7215C23.6203 29.4071 24.0655 28.7397 24.2586 28.3866C27.6169 22.1367 31.018 15.5337 34.3762 9.39963C35.1648 9.34998 36.1466 9.34998 36.9405 9.39963C37.1015 9.98987 37.1497 10.6353 37.2248 11.2862C37.359 12.5715 37.477 13.9119 37.6165 15.2303C37.6808 15.8757 37.6379 16.5377 37.9008 17.0838C38.5606 16.9348 38.9791 16.2839 39.3653 15.7488C40.5509 14.1271 41.495 12.053 41.7633 9.54305C42.1603 5.80854 40.1485 3.45309 37.198 2.8463C35.4384 2.48223 33.6574 2.73046 32.1499 3.10557C29.0707 3.88336 26.7049 5.08039 24.2855 6.56427C23.4057 7.09934 22.5527 7.62891 21.6944 8.24673C21.4261 8.4398 21.0935 8.78181 20.8468 8.79835C20.6054 8.8149 20.2674 8.59977 19.9723 8.47841C19.1408 8.14743 18.1645 7.91575 17.0111 7.8992C15.4339 7.87714 14.2 8.31844 13.0359 8.59425C13.2076 8.18053 13.6368 7.98195 13.964 7.72268C16.2761 5.9299 18.9262 4.30811 21.7427 2.99524C25.015 1.47827 28.5664 0.253658 33.019 0.038524C38.0242 -0.198675 41.6506 1.82579 43.0025 5.48859Z" fill="white"/>
<path d="M39.3063 33.114C39.4029 34.2007 39.5906 35.2984 39.5048 36.2748C39.258 36.4127 38.8127 36.3631 38.3192 36.3631C37.9061 36.3631 37.3536 36.4237 37.1336 36.2748C36.9727 36.17 36.7581 35.6239 36.624 35.3481C35.6691 33.3953 34.8269 31.6246 33.8344 29.6939C33.6681 29.385 33.3838 28.9271 33.4106 28.7065C33.4482 28.4141 33.8773 28.3148 34.0007 28.0997C35.4652 26.7758 36.801 25.3195 38.1154 23.8411C38.4426 23.5488 38.4533 24.139 38.4801 24.3928C38.7698 27.3164 39.0488 30.2124 39.3063 33.114Z" fill="white"/>
<path d="M25.2725 35.3204C25.4067 35.5632 25.5944 35.8335 25.5837 36.1313C25.3745 36.4347 24.8058 36.3354 24.3713 36.3354C23.8992 36.3354 23.3681 36.4072 22.9926 36.3079C22.7512 36.2472 22.3918 35.8997 22.1182 35.668C19.1462 33.1636 16.1688 30.6702 13.1808 28.2155C12.0757 27.3108 10.9545 26.4668 9.94057 25.4905C9.88692 24.9664 9.89229 24.2493 9.94057 23.7197C12.3385 23.0633 14.2215 21.938 15.8309 20.3879C16.5927 19.6543 17.2686 18.8103 17.8587 17.7787C18.4059 16.8134 19.0067 15.655 18.8994 14.1545C18.7438 11.9866 17.0862 10.9055 14.8384 10.9055C13.0949 10.9055 11.8396 11.5343 10.5521 12.0639C10.1552 12.2294 9.68843 12.5769 9.20026 12.3562C9.30755 12.0639 9.6026 11.8708 9.84937 11.6888C11.4856 10.4642 13.7119 9.21196 16.3352 9.05199C20.6268 8.79273 23.0731 11.5564 23.4647 15.3736C23.926 19.8639 21.7748 22.8592 19.0979 24.3872C21.1257 28.0721 23.1911 31.6687 25.2725 35.3204Z" fill="white"/>
<path d="M19.4037 35.2048C19.6666 35.4254 19.9187 35.6075 20.0796 35.8722C18.2986 36.6666 16.3834 37.2072 14.2698 37.5823C12.1186 37.9629 9.67234 38.0843 7.44603 37.6706C3.40114 36.9148 0.407702 34.4932 0.0375453 29.9257C-0.15558 27.5648 0.37015 25.281 1.07827 23.4331C1.80249 21.552 2.73593 19.9689 3.78739 18.5346C5.90104 15.6441 8.45994 13.0294 12.8643 12.5053C14.141 12.3564 15.2837 12.6488 16.0508 13.2611C16.2225 13.3935 16.6731 13.73 16.6409 13.9561C16.6141 14.1657 15.9382 14.4747 15.7129 14.6236C13.5241 16.0854 11.3783 17.8341 9.59723 19.5827C8.01468 21.1879 6.53406 22.8318 5.34312 24.8563C4.24874 26.7097 3.03098 29.7988 4.21656 32.2756C5.70791 35.4089 10.2785 36.1425 14.7311 35.464C15.6914 35.3206 16.7214 35.1386 17.6924 34.8848C18.0143 34.8021 18.3791 34.6311 18.6205 34.6532C18.878 34.6807 19.1945 35.0227 19.4037 35.2048Z" fill="white"/>
<path d="M41.8008 33.5168C42.053 33.5168 42.2944 33.583 42.5304 33.7154C42.7665 33.8478 42.9542 34.0354 43.0883 34.2836C43.2224 34.5318 43.2868 34.7856 43.2868 35.0504C43.2868 35.3152 43.2224 35.5689 43.0883 35.8116C42.9596 36.0543 42.7718 36.2419 42.5358 36.3798C42.2997 36.5122 42.053 36.5839 41.7955 36.5839C41.538 36.5839 41.2912 36.5177 41.0551 36.3798C40.8191 36.2474 40.6367 36.0543 40.5026 35.8116C40.3685 35.5689 40.3041 35.3152 40.3041 35.0504C40.3041 34.7856 40.3685 34.5263 40.5026 34.2836C40.6367 34.0354 40.8245 33.8478 41.0605 33.7154C41.3073 33.583 41.5541 33.5168 41.8008 33.5168ZM41.8008 33.7706C41.5916 33.7706 41.3878 33.8258 41.1893 33.9361C40.9908 34.0464 40.8352 34.2064 40.7225 34.4105C40.6099 34.6146 40.5562 34.8297 40.5562 35.0504C40.5562 35.271 40.6099 35.4806 40.7225 35.6847C40.8298 35.8888 40.9854 36.0433 41.1839 36.1591C41.3824 36.2695 41.5862 36.3301 41.8008 36.3301C42.0154 36.3301 42.2193 36.275 42.4178 36.1591C42.6162 36.0488 42.7665 35.8888 42.8791 35.6847C42.9864 35.4806 43.0454 35.271 43.0454 35.0504C43.0454 34.8297 42.9918 34.6146 42.8791 34.4105C42.7665 34.2064 42.6109 34.0464 42.4124 33.9361C42.2139 33.8258 42.01 33.7706 41.8008 33.7706ZM41.1463 35.8944V34.245H41.6989C41.8867 34.245 42.0261 34.2615 42.1066 34.2891C42.1924 34.3222 42.2568 34.3719 42.3105 34.4491C42.3587 34.5263 42.3856 34.6036 42.3856 34.6918C42.3856 34.8132 42.3426 34.918 42.2622 35.0062C42.1763 35.0945 42.0691 35.1441 41.9296 35.1552C41.9886 35.1772 42.0315 35.2103 42.0637 35.2434C42.1281 35.3096 42.2085 35.42 42.2997 35.5689L42.4929 35.8944H42.1763L42.0369 35.6351C41.9242 35.431 41.833 35.3041 41.7686 35.249C41.7204 35.2103 41.6506 35.1938 41.5594 35.1938H41.4092V35.8944H41.1463ZM41.4092 34.9676H41.7204C41.8706 34.9676 41.9725 34.9456 42.0261 34.8959C42.0798 34.8518 42.1066 34.7911 42.1066 34.7139C42.1066 34.6642 42.0959 34.6201 42.0691 34.5815C42.0422 34.5429 42.0047 34.5153 41.9618 34.4932C41.9135 34.4767 41.8277 34.4656 41.7043 34.4656H41.4092V34.9676Z" fill="white"/>
<path d="M53.898 17.4922C53.3132 17.5032 52.7231 17.5253 52.1384 17.5639L52.0686 17.5032C51.6824 16.3062 51.4624 15.589 51.1406 14.6568C50.9689 14.6678 50.7972 14.6678 50.6256 14.6678C50.4056 15.5835 50.2232 16.5489 50.0623 17.4756L49.9925 17.5253C49.5473 17.5253 48.2973 17.5584 48.2973 17.5584L48.2491 17.4977C48.5441 16.251 49.5741 12.0862 49.8155 10.2548L49.8745 10.2052C50.3681 10.2052 51.6824 10.1831 52.4817 10.1831C53.6458 10.1831 54.6544 10.5692 54.6544 12.0035C54.6544 13.1453 53.9892 14.061 52.7446 14.3644C53.6136 16.5765 53.7853 16.9847 53.957 17.4204L53.898 17.4922ZM51.3015 13.4708C52.1384 13.4708 52.8787 13.0847 52.8787 12.1745C52.8787 11.5015 52.353 11.4132 51.8272 11.4132C51.7682 11.4132 51.677 11.4243 51.3712 11.4243C51.323 11.6339 51.2586 11.838 50.8938 13.4708H51.3015Z" fill="white"/>
<path d="M57.9911 11.9041C58.6295 11.9041 60.3033 12.1743 60.3033 14.1381C60.3033 16.2067 59.1821 17.663 57.2133 17.663C55.1801 17.663 54.7992 16.3667 54.7992 15.3958C54.7992 14.7118 55.0674 11.9041 57.9911 11.9041ZM57.2401 16.5598C58.313 16.5598 58.6242 14.6567 58.6242 13.912C58.6242 13.5589 58.5222 13.0073 57.8677 13.0073C56.6554 13.0073 56.4837 15.3131 56.4837 15.6386C56.4837 16.3391 56.8592 16.5598 57.2401 16.5598Z" fill="white"/>
<path d="M60.3247 17.4756C60.4749 16.8191 60.6198 16.2896 60.7485 15.6883L61.2314 13.5259C61.5264 12.2241 61.8268 10.9498 62.0199 9.63145L62.1004 9.55974C62.6744 9.46597 63.2538 9.36116 63.8278 9.25635L63.8761 9.32806C63.7956 9.70317 63.7044 10.0562 63.6132 10.4203L63.1358 12.362C63.3182 12.2351 63.8117 11.9042 64.4716 11.9042C65.8073 11.9042 66.1668 13.1177 66.1668 13.9397C66.1668 14.9657 65.7001 16.1241 64.9115 16.775C64.0209 17.5142 62.9695 17.5363 61.9019 17.5363H61.1938C60.9202 17.5363 60.6466 17.5363 60.373 17.5473L60.3247 17.4756ZM62.4759 16.4054C62.771 16.4054 63.286 16.3723 63.7312 15.9255C64.1551 15.5008 64.4501 14.7505 64.4501 14.1382C64.4501 13.3494 64.0263 13.1288 63.6615 13.1288C63.286 13.1288 63.0231 13.3384 62.9158 13.4101L62.2506 16.4054H62.4759Z" fill="white"/>
<path d="M69.7932 11.9041C70.4316 11.9041 72.1053 12.1743 72.1053 14.1381C72.1053 16.2067 70.9842 17.663 69.0154 17.663C66.9822 17.663 66.6013 16.3667 66.6013 15.3958C66.6013 14.7118 66.8749 11.9041 69.7932 11.9041ZM69.0475 16.5598C70.1205 16.5598 70.4316 14.6567 70.4316 13.912C70.4316 13.5589 70.3297 13.0073 69.6752 13.0073C68.4628 13.0073 68.2911 15.3131 68.2911 15.6386C68.2858 16.3391 68.6613 16.5598 69.0475 16.5598Z" fill="white"/>
<path d="M75.249 17.5251C74.8252 17.6299 74.4604 17.641 74.3209 17.641C73.1676 17.641 72.8028 17.1335 72.8028 16.4274C72.8028 16.0302 72.9154 15.5448 73.1354 14.6291L73.4787 13.1948H73.366C73.1461 13.1948 72.9798 13.2059 72.7706 13.2169L72.7116 13.1452C72.8242 12.7591 72.894 12.4777 72.9959 12.0971L73.0656 12.0364H73.7416C73.8542 11.5455 73.9347 11.2035 74.0259 10.707L74.0956 10.6353C74.7125 10.4919 75.1471 10.376 75.7533 10.1885L75.8123 10.2602C75.7318 10.5526 75.6835 10.8118 75.367 12.0695C75.7533 12.0585 76.0215 12.0585 76.4078 12.0364L76.4507 12.1192C76.3219 12.4943 76.2307 12.7646 76.1395 13.1562L76.0483 13.2169C75.705 13.2059 75.4636 13.2059 75.1203 13.2059L74.6965 15.0262C74.5945 15.462 74.5033 15.8592 74.5033 16.0137C74.5033 16.2012 74.616 16.4384 75.0076 16.4384C75.2705 16.4384 75.4529 16.3557 75.5655 16.3115L75.6245 16.3612C75.5011 16.7639 75.4314 17.0452 75.3241 17.4424L75.249 17.5251Z" fill="white"/>
<path d="M78.4141 14.8885L78.2532 15.6552C78.1298 16.2565 78.0332 16.8633 77.9313 17.4756L77.8616 17.5252C77.2768 17.5252 76.6867 17.5363 76.1127 17.5694L76.0644 17.4977C76.2951 16.5819 76.5204 15.6497 76.7189 14.7119L76.8316 14.2044C76.971 13.559 77.1051 12.9026 77.1749 12.2627L77.2446 12.191C77.8401 12.1083 78.4356 12.0145 79.0257 11.8986L79.0847 11.9814C78.8486 12.9136 78.618 13.9121 78.4141 14.8885ZM79.5836 9.52664C79.4924 9.99553 79.369 10.4534 79.2617 10.9112L79.1812 10.994C78.6341 11.0657 78.0922 11.1484 77.5343 11.2312L77.4753 11.1484C77.5772 10.6906 77.6792 10.2217 77.7704 9.75833L77.8616 9.68662C78.4087 9.61491 79.0364 9.52113 79.5299 9.46045L79.5836 9.52664Z" fill="white"/>
<path d="M82.9633 17.3984C82.7004 17.5142 82.2981 17.6577 81.6919 17.6577C80.1844 17.6577 79.2885 16.6923 79.2885 15.236C79.2885 13.7797 80.045 12.7923 80.7853 12.3345C81.4934 11.8987 82.282 11.8987 82.4751 11.8987C82.9311 11.8987 83.5588 12.0035 83.9987 12.3234L84.0201 12.4062C83.8806 12.8309 83.7894 13.1454 83.6768 13.5922L83.5748 13.6142C83.2315 13.1178 82.6736 13.1178 82.6039 13.1178C81.4827 13.1178 81.0267 14.3038 81.0267 15.1036C81.0267 15.7987 81.37 16.422 82.1801 16.422C82.7165 16.422 83.0169 16.1959 83.2637 16.0083L83.3549 16.0579C83.2262 16.5268 83.1457 16.8578 83.033 17.3267L82.9633 17.3984Z" fill="white"/>
<path d="M84.122 15.9144C84.5566 16.4219 85.0823 16.5874 85.5383 16.5874C86.0747 16.5874 86.3966 16.3391 86.3966 15.9861C86.3966 15.6937 86.2249 15.5724 85.7099 15.3021L85.49 15.1862C85.1252 14.9987 84.4385 14.6567 84.4385 13.7741C84.4385 12.8694 85.0662 11.9041 86.7507 11.9041C87.5875 11.9041 88.0972 12.1247 88.4673 12.3178L88.521 12.4115C88.3922 12.8142 88.3064 13.1066 88.2098 13.5258L88.1186 13.5479C87.6358 12.9577 87.0779 12.9466 86.917 12.9466C86.4342 12.9466 86.1177 13.1673 86.1177 13.4762C86.1177 13.7134 86.3108 13.8734 86.7346 14.0775L86.9653 14.1933C87.3569 14.3919 88.1294 14.767 88.1294 15.7434C88.1294 16.7308 87.3891 17.6741 85.6831 17.6741C84.755 17.6741 84.1542 17.4148 83.7519 17.1555L83.7197 17.0618C83.8484 16.6591 83.9235 16.3667 84.0308 15.9475L84.122 15.9144Z" fill="white"/>
<path d="M97.5442 14.7505C97.1901 15.2194 96.7556 15.6441 96.2782 16.113C96.5518 16.5598 96.8254 17.0066 97.1043 17.4534L97.0721 17.5472H96.4874C95.8812 17.5472 95.6881 17.5472 95.2857 17.5693L95.2052 17.5086C95.1355 17.3431 95.0443 17.1997 94.9531 17.0508C94.3362 17.4645 93.7622 17.6741 93.0755 17.6741C91.8953 17.6741 91.0853 16.9349 91.0853 15.8537C91.0853 15.3462 91.2998 14.8222 91.6539 14.4636C91.9382 14.1713 92.2386 13.9837 93.0701 13.581C92.7751 13.0294 92.6785 12.6543 92.6785 12.1799C92.6785 11.1097 93.4886 10.3816 94.701 10.3816C95.8222 10.3816 96.5518 10.9608 96.5518 11.8655C96.5518 12.6984 96.0153 13.1839 94.9638 13.8072C95.1945 14.243 95.4306 14.6677 95.6827 15.0759C96.4606 14.2264 96.5142 14.1492 96.8146 13.581H96.9166C97.1097 13.9561 97.3404 14.3092 97.5657 14.6732L97.5442 14.7505ZM93.6495 14.6898C92.9843 15.0539 92.7697 15.3021 92.7697 15.7103C92.7697 16.1075 93.0541 16.3943 93.4671 16.3943C93.7515 16.3943 94.0036 16.2895 94.3845 16.0192C94.1592 15.5724 93.8963 15.1366 93.6495 14.6898ZM94.7439 11.3745C94.4327 11.3745 94.1699 11.6448 94.1699 11.9758C94.1699 12.213 94.2289 12.3895 94.4542 12.8474C95.0819 12.4447 95.275 12.2351 95.275 11.893C95.2696 11.5897 95.0443 11.3745 94.7439 11.3745Z" fill="white"/>
<path d="M51.6824 7.96549H51.4195C51.1191 7.96549 50.8938 7.97652 50.5934 7.98755L50.5451 7.91584C50.8563 6.60849 51.9077 1.91966 52.1116 0.695049L52.1706 0.63437H52.4656C52.766 0.63437 52.9914 0.63437 53.2918 0.612305L53.3347 0.672984C52.9967 2.04102 52.1974 5.48317 51.7629 7.91032L51.6824 7.96549Z" fill="white"/>
<path d="M57.5942 7.97652H55.4912C54.8153 7.97652 54.3486 7.97652 53.6727 7.99858L53.5332 8.00962L53.4849 7.93791C54.1716 5.17426 54.7509 2.21202 55.0621 0.695049L55.1318 0.623337H55.223C55.5181 0.623337 55.9902 0.63437 56.4354 0.63437H57.6049C58.1628 0.63437 58.7154 0.612305 59.0909 0.612305L59.1499 0.672984C59.0587 0.954313 59.0104 1.1529 58.9353 1.43974L58.8548 1.50042C58.2379 1.50042 57.3903 1.46733 56.532 1.46733C56.3603 1.46733 56.0384 1.47836 56.0384 1.47836L55.5449 3.74554C57.5673 3.73451 57.8678 3.71245 58.3023 3.71245L58.3452 3.78416C58.2647 4.05445 58.2111 4.24201 58.1414 4.51231L58.0502 4.58402C57.6961 4.57298 56.1511 4.57298 55.3732 4.57298C55.2123 5.30113 55.0514 6.04031 54.826 7.0884C55.2498 7.0884 57.5834 7.04427 57.857 7.04427L57.9107 7.09392C57.8195 7.39731 57.7497 7.60141 57.6693 7.90481L57.5942 7.97652Z" fill="white"/>
<path d="M63.0714 7.97652H60.9685C60.2925 7.97652 59.8258 7.97652 59.1499 7.99858L59.0104 8.00962L58.9621 7.93791C59.6488 5.17426 60.2282 2.21202 60.5393 0.695049L60.6091 0.623337H60.7003C60.9953 0.623337 61.4674 0.63437 61.9126 0.63437H63.0821C63.64 0.63437 64.1926 0.612305 64.5681 0.612305L64.6271 0.672984C64.5359 0.954313 64.4876 1.1529 64.4125 1.43974L64.3321 1.50042C63.7151 1.50042 62.8675 1.46733 62.0092 1.46733C61.8375 1.46733 61.5157 1.47836 61.5157 1.47836L61.0221 3.74554C63.0446 3.73451 63.345 3.71245 63.7795 3.71245L63.8224 3.78416C63.742 4.05445 63.6883 4.24201 63.6186 4.51231L63.5274 4.58402C63.1733 4.57298 61.6283 4.57298 60.8505 4.57298C60.6895 5.30113 60.5286 6.04031 60.3033 7.0884C60.7271 7.0884 63.0607 7.04427 63.3343 7.04427L63.3825 7.09392C63.2913 7.39731 63.2216 7.60141 63.1411 7.90481L63.0714 7.97652Z" fill="white"/>
<path d="M68.5486 7.97652H66.4457C65.7698 7.97652 65.3031 7.97652 64.6271 7.99858L64.4876 8.00962L64.4394 7.93791C65.126 5.17426 65.7054 2.21202 66.0166 0.695049L66.0863 0.623337H66.1775C66.4725 0.623337 66.9446 0.63437 67.3899 0.63437H68.5647C69.1226 0.63437 69.6752 0.612305 70.0507 0.612305L70.1097 0.672984C70.0185 0.954313 69.9703 1.1529 69.8951 1.43974L69.8147 1.50042C69.1978 1.50042 68.3501 1.46733 67.4918 1.46733C67.3201 1.46733 66.9983 1.47836 66.9983 1.47836L66.5047 3.74554C68.5272 3.73451 68.8276 3.71245 69.2621 3.71245L69.305 3.78416C69.2246 4.05445 69.1763 4.24201 69.1012 4.51231L69.01 4.58402C68.6559 4.57298 67.1109 4.57298 66.3331 4.57298C66.1721 5.30113 66.0112 6.04031 65.7859 7.0884C66.2097 7.0884 68.5433 7.04427 68.8169 7.04427L68.8651 7.09392C68.7739 7.39731 68.7042 7.60141 68.6237 7.90481L68.5486 7.97652Z" fill="white"/>
<path d="M46.1461 34.9455C46.2588 35.1661 46.865 35.7453 47.836 35.7453C49.0162 35.7453 49.5258 35.0503 49.5258 34.4159C49.5258 33.7595 49.1342 33.4726 48.3832 33.0755L48.0506 32.899C47.3961 32.5569 46.747 32.1598 46.747 31.1117C46.747 30.1022 47.4444 28.9272 49.3327 28.9272C50.2715 28.9272 50.8777 29.2196 51.2854 29.5009L51.3176 29.5837C51.2157 29.8926 51.1352 30.1243 51.044 30.4442L50.9528 30.4663C50.5666 29.9588 49.8423 29.7823 49.4078 29.7823C48.3564 29.7823 47.8896 30.3835 47.8896 30.9958C47.8896 31.5585 48.2115 31.7847 49.0323 32.2205L49.3273 32.3749C49.9818 32.728 50.6899 33.2244 50.6899 34.278C50.6899 35.3151 49.9121 36.6169 47.9594 36.6169C46.9777 36.6169 46.1783 36.3025 45.8457 35.9715L45.8135 35.8777C45.9155 35.5468 45.9637 35.304 46.0442 34.962L46.1461 34.9455Z" fill="white"/>
<path d="M54.413 30.9241C55.6683 30.9241 56.5749 31.5805 56.5749 32.9596C56.5749 34.0518 56.0921 36.5672 53.7048 36.5672C53.0665 36.5672 51.6019 36.4128 51.6019 34.4876C51.6019 32.8051 52.4924 30.9241 54.413 30.9241ZM53.7263 35.8005C55.2498 35.8005 55.5073 33.263 55.5073 32.9099C55.5073 31.9005 54.9119 31.6853 54.4559 31.6853C53.0611 31.6853 52.6748 33.8146 52.6748 34.5648C52.6748 35.2268 52.9806 35.8005 53.7263 35.8005Z" fill="white"/>
<path d="M60.711 36.2748C60.3569 36.4845 59.7615 36.5672 59.4074 36.5672C58.1038 36.5672 57.2025 35.5577 57.2025 34.2394C57.2025 33.3788 57.5673 32.0384 58.6778 31.3378C59.2625 30.9737 59.8795 30.9241 60.1531 30.9241C60.8612 30.9241 61.4137 31.1006 61.7195 31.3378L61.7517 31.4095C61.6391 31.7129 61.58 31.928 61.4996 32.2314L61.3976 32.2645C61.2367 31.9832 60.7914 31.746 60.255 31.746C58.9943 31.746 58.3023 33.1195 58.3023 34.1566C58.3023 35.3702 59.2196 35.7232 59.7078 35.7232C59.8795 35.7232 60.4052 35.7012 60.9417 35.2268L61.0221 35.2709C60.9095 35.6129 60.8505 35.8501 60.77 36.2087L60.711 36.2748Z" fill="white"/>
<path d="M62.6691 36.4348C62.2774 36.4348 61.9931 36.4459 61.5961 36.4679L61.5479 36.4072C61.8697 35.1992 62.5886 31.7736 62.6369 31.2109L62.7066 31.1392C63.1197 31.0896 63.404 31.0454 63.8064 30.9737L63.8546 31.0454C63.8064 31.0344 62.9641 34.9951 62.7334 36.3852L62.6691 36.4348ZM64.1175 29.5836C63.7259 29.6333 63.4523 29.6664 63.0553 29.727L62.9963 29.6443C63.0768 29.2913 63.1358 29.043 63.2109 28.69L63.3021 28.6183C63.6937 28.5686 63.9673 28.5355 64.3535 28.4749L64.434 28.5466C64.3428 28.8886 64.2838 29.1478 64.2033 29.5009L64.1175 29.5836Z" fill="white"/>
<path d="M68.3716 36.1535C68.0283 36.3631 67.5025 36.5672 66.7247 36.5672C64.9973 36.5672 64.3804 35.5081 64.3804 34.3111C64.3804 32.4907 65.464 30.9241 67.2075 30.9241C68.3984 30.9241 69.2514 31.4867 69.2514 32.8658C69.2514 33.2906 69.1602 33.6546 69.128 33.8091L69.0583 33.8587C68.5325 33.8587 67.5723 33.8477 66.6925 33.8477C66.2365 33.8477 65.9039 33.8477 65.4479 33.8698C65.4372 33.9304 65.4157 34.118 65.4157 34.3166C65.4157 35.6791 66.5691 35.7067 66.9339 35.7067C67.7708 35.7067 68.2053 35.3757 68.6023 35.0833L68.6828 35.133C68.5701 35.475 68.5004 35.7122 68.4199 36.0708L68.3716 36.1535ZM68.2375 33.1306C68.2804 32.8934 68.2858 32.7886 68.2858 32.6727C68.2643 31.7294 67.5079 31.6522 67.245 31.6522C66.0809 31.6522 65.6893 32.7555 65.5767 33.1361C65.582 33.1361 67.5937 33.1306 68.2375 33.1306Z" fill="white"/>
<path d="M71.7835 36.4238C71.4509 36.5066 71.188 36.5176 71.0539 36.5176C70.0936 36.5176 69.8522 36.0101 69.8522 35.4916C69.8522 35.0944 70.0615 34.1842 70.3565 32.9265L70.6086 31.8453H70.4048C70.2117 31.8453 70.0722 31.8453 69.8791 31.8564L69.8308 31.7846C69.9005 31.5474 69.9488 31.3599 70.0132 31.1006L70.0829 31.051C70.3458 31.062 70.5175 31.062 70.7803 31.062C70.9037 30.5821 70.9627 30.2401 71.0539 29.7602L71.1236 29.6885C71.5153 29.6057 71.7889 29.534 72.1751 29.4292L72.2234 29.4899C72.1429 29.7712 72.0946 29.9808 72.0195 30.2566L71.8264 31.0565C72.2395 31.0565 72.5238 31.0565 72.9261 31.0344L72.9744 31.1061C72.8832 31.3544 72.835 31.5419 72.7598 31.7902L72.6901 31.8508C72.3039 31.8398 72.0356 31.8398 71.6494 31.8398L71.1022 34.1897C71.0539 34.3994 70.9091 35.0392 70.9091 35.2489C70.9091 35.5798 71.1397 35.6957 71.4026 35.6957C71.6655 35.6957 71.9069 35.5909 71.9981 35.5633L72.0517 35.6185C71.9713 35.8887 71.9122 36.0763 71.8371 36.3466L71.7835 36.4238Z" fill="white"/>
<path d="M77.942 31.1118C76.7296 33.1252 73.8918 38.0237 73.5055 38.9063L73.425 38.967H72.9691C72.7652 38.967 72.5774 38.967 72.3736 38.978L72.3414 38.9063C72.6365 38.4484 73.6343 36.8597 73.8757 36.4019C73.4894 33.8148 73.1193 31.2497 73.0656 31.1228L73.1354 31.0511C73.5216 31.0511 73.7898 31.029 74.1868 31.0015L74.2673 31.0511C74.3156 31.6248 74.3478 32.0275 74.4175 32.5901L74.7125 35.0449L75.6943 33.2576C76.0805 32.5626 76.4614 31.8565 76.8262 31.1063L76.9067 31.0456C77.0193 31.0566 77.1266 31.0566 77.2393 31.0566C77.4807 31.0566 77.6523 31.0456 77.8884 31.0346L77.942 31.1118Z" fill="white"/>
<path d="M53.0557 27.0132C52.4173 27.0132 51.9667 27.0242 51.3283 27.0518L51.2693 26.9801C51.2693 26.5664 51.2693 26.263 51.221 25.0659H51.0011C50.7972 25.0659 50.3466 25.0549 49.9604 25.0549H49.102C48.5656 26.2078 48.4154 26.5112 48.2222 26.947L48.1525 27.0077H47.7448C47.2888 27.0077 46.9777 27.0187 46.5324 27.0408L46.4948 26.9249C47.5141 25.077 49.3059 21.5962 50.2447 19.7317L50.3252 19.6821C51.1352 19.671 51.7092 19.66 52.5193 19.6379L52.5676 19.6986C52.7392 22.2968 52.8894 24.3212 53.1255 26.9525L53.0557 27.0132ZM49.6814 23.8082C49.8745 23.8193 50.014 23.8193 50.2071 23.8193H50.4485C50.7221 23.8193 51.0065 23.8193 51.1889 23.8082C51.1406 21.7617 51.1084 20.846 51.1084 20.846L49.6814 23.8082Z" fill="white"/>
<path d="M58.5169 27.0131C57.9321 27.0131 57.5191 27.0352 56.9397 27.0573L56.886 26.9856L57.0094 26.467C56.7466 26.7594 56.0921 27.14 55.4322 27.14C55.046 27.14 54.016 26.9966 54.016 25.7499C54.016 25.3527 54.1555 24.7184 54.2574 24.2716L54.4881 23.24C54.6168 22.6498 54.7188 22.2305 54.8099 21.6293L54.8797 21.5686C55.4752 21.5465 55.8882 21.53 56.4783 21.4858L56.5373 21.5686C56.1618 23.2179 55.7595 24.746 55.7595 25.2259C55.7595 25.4465 55.8292 25.8271 56.3549 25.8271C56.7466 25.8271 57.0845 25.5679 57.2133 25.4631L57.6371 23.4496C57.7605 22.8594 57.8785 22.2416 57.9911 21.6293L58.0716 21.5686C58.6671 21.5465 59.0909 21.53 59.6971 21.4858L59.7454 21.5686C59.504 22.567 59.3323 23.3062 59.107 24.3322L58.887 25.3693C58.7636 25.9485 58.6724 26.3567 58.5759 26.9469L58.5169 27.0131Z" fill="white"/>
<path d="M62.61 27.0131C62.1862 27.118 61.8215 27.129 61.682 27.129C60.5286 27.129 60.1638 26.6215 60.1638 25.9154C60.1638 25.5182 60.2765 25.0328 60.4964 24.1171L60.8397 22.6829H60.7271C60.5071 22.6829 60.3408 22.6939 60.1316 22.7049L60.0726 22.6332C60.1853 22.2471 60.255 21.9658 60.3569 21.5851L60.4267 21.5245H61.1026C61.2153 21.039 61.2957 20.6915 61.3869 20.195L61.4567 20.1233C62.0736 19.9799 62.5081 19.8641 63.1143 19.6765L63.1733 19.7482C63.0929 20.0406 63.0446 20.2999 62.7281 21.5576C63.1143 21.5465 63.3825 21.5465 63.7688 21.5245L63.8117 21.6072C63.683 21.9823 63.5918 22.2526 63.5006 22.6443L63.4094 22.7049C63.066 22.6939 62.8246 22.6939 62.4813 22.6939L62.0575 24.5143C61.9556 24.9501 61.8644 25.3472 61.8644 25.5017C61.8644 25.6892 61.977 25.9264 62.3686 25.9264C62.6315 25.9264 62.8139 25.8437 62.9266 25.7996L62.9856 25.8492C62.8675 26.2519 62.7924 26.5332 62.6852 26.9304L62.61 27.0131Z" fill="white"/>
<path d="M66.832 21.3865C67.4704 21.3865 69.1441 21.6568 69.1441 23.6206C69.1441 25.6892 68.0229 27.1455 66.0541 27.1455C64.0209 27.1455 63.64 25.8491 63.64 24.8783C63.64 24.1943 63.9136 21.3865 66.832 21.3865ZM66.0863 26.0422C67.1592 26.0422 67.4704 24.1391 67.4704 23.3944C67.4704 23.0414 67.3684 22.4897 66.7139 22.4897C65.5016 22.4897 65.3299 24.7955 65.3299 25.121C65.3245 25.8271 65.7 26.0422 66.0863 26.0422Z" fill="white"/>
<path d="M77.2124 27.0132C76.6545 27.0132 76.1127 27.0352 75.5655 27.0573L75.5119 26.9856C75.646 26.3733 76.3005 23.7641 76.3005 23.2787C76.3005 23.1352 76.2522 22.727 75.7855 22.727C75.6031 22.727 75.3026 22.7767 74.9647 23.069C74.9271 23.742 74.3692 25.9982 74.219 26.9525L74.1493 27.0132C73.6021 27.0242 73.0603 27.0352 72.5238 27.0573L72.4701 26.9746C72.5506 26.5277 73.2266 23.8468 73.2266 23.2676C73.2266 22.9532 73.0763 22.727 72.7223 22.727C72.5506 22.727 72.2663 22.7877 71.9766 23.058L71.6333 24.6191C71.4723 25.3693 71.2899 26.2188 71.1612 26.958L71.1022 27.0187C70.5443 27.0187 69.9917 27.0407 69.4445 27.0628L69.3962 26.9911C69.7718 25.5458 70.437 22.4402 70.4853 21.7451L70.555 21.6845C71.1022 21.6017 71.6977 21.5079 72.2502 21.3921L72.3092 21.4638L72.1751 22.0761C72.6311 21.6789 73.2266 21.4031 73.822 21.4031C74.1868 21.4031 74.6482 21.53 74.9057 22.1533C75.6245 21.5631 76.2575 21.4142 76.6653 21.4142C77.0086 21.4142 78.0922 21.4969 78.0922 22.7436C78.0922 22.9091 78.0493 23.2014 77.9313 23.7696L77.7167 24.768C77.5665 25.4962 77.4217 26.2354 77.2822 26.958L77.2124 27.0132Z" fill="white"/>
<path d="M83.3334 27.013C82.7648 27.0241 82.3732 27.0241 81.8099 27.0572L81.7616 26.9855L81.8313 26.5276C81.5792 26.7979 81.0642 27.1289 80.3775 27.1289C79.1759 27.1289 78.6984 26.1304 78.6984 25.132C78.6984 24.1777 79.0418 23.4495 79.2617 23.0855C80.2005 21.5685 81.6543 21.5078 82.7487 21.5078H84.4654L84.5244 21.5906C83.768 24.8452 83.5748 25.6947 83.4032 26.9524L83.3334 27.013ZM82.636 22.6552C82.5448 22.6442 82.4858 22.6442 82.3249 22.6442C80.9301 22.6442 80.458 24.1005 80.458 24.9003C80.458 25.6781 80.8335 25.9374 81.2573 25.9374C81.3271 25.9374 81.7026 25.9043 81.9869 25.6174C82.2444 24.608 82.4054 23.6757 82.636 22.6552Z" fill="white"/>
<path d="M87.3891 27.0131C86.9653 27.118 86.6005 27.129 86.461 27.129C85.3076 27.129 84.9428 26.6215 84.9428 25.9154C84.9428 25.5182 85.0555 25.0328 85.2754 24.1171L85.6187 22.6829H85.5061C85.2861 22.6829 85.1198 22.6939 84.9106 22.7049L84.8516 22.6332C84.9643 22.2471 85.034 21.9658 85.1359 21.5851L85.2057 21.5245H85.8816C85.9943 21.039 86.0747 20.6915 86.1659 20.195L86.2357 20.1233C86.8526 19.9799 87.2871 19.8641 87.8933 19.6765L87.9523 19.7482C87.8719 20.0406 87.8236 20.2999 87.5071 21.5576C87.8933 21.5465 88.1616 21.5465 88.5478 21.5245L88.5854 21.6072C88.4566 21.9823 88.3654 22.2526 88.2742 22.6443L88.183 22.7049C87.8397 22.6939 87.5983 22.6939 87.2549 22.6939L86.8311 24.5143C86.7292 24.9501 86.638 25.3472 86.638 25.5017C86.638 25.6892 86.7507 25.9264 87.1423 25.9264C87.4052 25.9264 87.5876 25.8437 87.7002 25.7996L87.7592 25.8492C87.6358 26.2519 87.5661 26.5332 87.4588 26.9304L87.3891 27.0131Z" fill="white"/>
<path d="M90.5488 24.3709L90.3879 25.1376C90.2645 25.7389 90.1626 26.3457 90.066 26.958L89.9962 27.0077C89.4115 27.0077 88.8214 27.0187 88.2474 27.0518L88.1991 26.9801C88.4298 26.0644 88.6551 25.1321 88.8536 24.1944L88.9663 23.6869C89.1057 23.0415 89.2398 22.3905 89.3096 21.7451L89.3793 21.6734C89.9748 21.5907 90.5703 21.4969 91.155 21.3811L91.214 21.4638C90.9833 22.3961 90.7527 23.3945 90.5488 24.3709ZM91.7236 19.0091C91.6324 19.4779 91.5091 19.9358 91.4018 20.3937L91.3213 20.4764C90.7741 20.5481 90.2323 20.6308 89.6744 20.7136L89.6154 20.6308C89.7173 20.173 89.8192 19.7041 89.9104 19.2407L90.0016 19.169C90.5488 19.0973 91.1711 19.0036 91.67 18.9429L91.7236 19.0091Z" fill="white"/>
<path d="M94.6634 21.3865C95.3018 21.3865 96.9756 21.6568 96.9756 23.6206C96.9756 25.6892 95.8544 27.1455 93.8856 27.1455C91.8524 27.1455 91.4715 25.8491 91.4715 24.8783C91.4715 24.1943 91.7397 21.3865 94.6634 21.3865ZM93.9124 26.0422C94.9853 26.0422 95.2964 24.1391 95.2964 23.3944C95.2964 23.0414 95.1945 22.4897 94.54 22.4897C93.3276 22.4897 93.156 24.7955 93.156 25.121C93.156 25.8271 93.5315 26.0422 93.9124 26.0422Z" fill="white"/>
<path d="M100.178 21.4418L100.049 22.01C100.232 21.8666 100.86 21.3867 101.648 21.3867C102.04 21.3867 103 21.5411 103 22.7602C103 23.3946 102.281 26.4727 102.233 26.9581L102.163 27.0077C101.605 27.0188 101.063 27.0298 100.516 27.0519L100.473 26.9802C100.704 25.8659 101.214 23.8745 101.214 23.3118C101.214 22.9698 101.01 22.7216 100.656 22.7216C100.361 22.7216 100.092 22.8761 99.8671 23.0415C99.5828 24.3379 99.2019 26.1913 99.0678 26.9471L98.998 27.0077C98.4401 27.0077 97.8876 27.0298 97.3296 27.0519L97.2921 26.9802C97.4745 26.1693 98.2845 22.8043 98.3435 21.7452L98.424 21.6625C99.0302 21.5797 99.5667 21.486 100.119 21.3701L100.178 21.4418Z" fill="white"/>
</g>
<defs>
<clipPath id="clip0_7_471">
<rect width="103" height="39" fill="white"/>
</clipPath>
</defs>
</svg>
