<svg width="128" height="40" viewBox="0 0 128 40" fill="none" xmlns="http://www.w3.org/2000/svg">
<path d="M42.6222 34.3555V6.31104H50.4V34.3555H42.6222Z" fill="white"/>
<path d="M54.4889 34.3555V6.31104H75.8667V11.7333H62.2667V17.5555H74.8V22.9777H62.2667V28.9333H75.8667V34.3555H54.4889Z" fill="white"/>
<path d="M80.2222 34.3555V6.31104H101.6V11.7333H88V17.5555H100.533V22.9777H88V28.9333H101.6V34.3555H80.2222Z" fill="white"/>
<path d="M105.956 34.3555V6.31104H127.333V11.7333H113.733V17.5555H126.267V22.9777H113.733V28.9333H127.333V34.3555H105.956Z" fill="white"/>
<path d="M17.6889 6.62228C18.9333 5.6445 20.4889 6.4445 21.5111 7.33339C22.6222 8.17783 23.7333 9.11117 24.7555 10.0889L24.9333 10.1778C27.6889 12.7556 30.2667 15.6001 32.3555 18.6223C32.7111 19.1556 32.9778 19.7334 32.8 20.4445C32.0889 22.2223 30.6667 23.6001 29.4222 25.1556C26.7111 28.0445 23.8667 30.8889 20.6667 33.1112C20 33.5556 19.1555 34.0001 18.3555 33.6445C16 32.4001 14.0444 30.4001 11.9555 28.5778C9.55554 26.3556 7.15554 23.7778 5.37777 21.1112C5.1111 20.7112 5.02221 20.2667 5.02221 19.7778C5.24443 18.8445 5.9111 18.0889 6.48888 17.2889C8.62221 14.5778 11.2444 12.0001 13.8667 9.6445C13.9111 9.60005 14.0444 9.46672 14.1333 9.37783C15.3778 8.35561 16.5333 7.46672 17.6889 6.62228ZM21.3333 3.77783L19.9111 1.77783C19.7333 1.68894 19.5111 1.51117 19.3333 1.46672C18.9333 1.28894 18.4889 1.51117 18.1333 1.77783L15.6 5.06672C11.5555 10.1334 6.7111 14.8445 1.46666 18.4445C1.06666 18.7556 0.444433 19.0667 0.3111 19.6001C0.177766 20.0889 0.444433 20.4889 0.7111 20.8001C4.93332 23.6889 8.93332 27.1556 12.5333 31.0667C13.1555 31.7334 13.6889 32.4001 14.3111 33.0223C15.3778 34.4001 16.5778 35.8223 17.5555 37.3334C17.8667 37.6445 17.9111 38.1778 18.4 38.3112C18.7555 38.4445 19.2444 38.5334 19.6 38.3112L19.9555 37.9556C24.2667 31.7778 29.8222 26.2667 36 21.7778C36.6222 21.2445 37.7778 21.0223 37.8222 20.0001C37.7778 19.5112 37.5111 19.0667 37.1111 18.8001H37.0222C33.7778 16.6223 30.8444 14.1778 28.0444 11.3778L24.9778 8.17783C23.6889 6.80005 22.4889 5.2445 21.3333 3.77783ZM18.1778 7.37783C19.4667 6.53339 20.5778 7.73339 21.5555 8.40005C25.3333 11.4667 28.9333 14.9334 31.6444 18.8889C32 19.3778 32.1333 20.1778 31.8222 20.7556C31.1111 21.9556 30.1778 23.0223 29.2444 24.0889V24.1334C26.9778 26.5334 24.6222 29.0223 22.0444 31.0223C20.8 31.7778 19.6444 33.4667 18 32.4445C14.3111 29.7334 10.8 26.4001 7.77777 22.8001C7.28888 22.0001 6.48888 21.3778 6.13332 20.4889C5.64443 19.2889 6.7111 18.4001 7.33332 17.5112C10.4444 13.7778 14.2222 10.0889 18.1778 7.37783ZM18.9778 9.86672L18.6222 10.9778L16.8889 15.9112C17.3333 15.9556 17.8667 15.9112 18.2667 15.9556V16.0001L18 21.6001L18.0444 21.6445C18.5778 21.6889 19.2889 21.7334 19.8667 21.6445V21.5556L19.6444 16.1334L19.6889 15.9556L21.2 15.9112C20.4444 13.9112 19.6889 11.9112 19.0222 9.86672H18.9778ZM13.1111 17.6001C12.1333 18.0889 10.7111 18.8001 10.8889 20.1334C11.1111 20.8445 11.8667 21.3334 12.4889 21.6001C15.9111 23.1112 20.4444 23.1556 24.0889 22.0445C24.9778 21.6889 26.1778 21.2001 26.3555 20.0889C26.3555 19.2001 25.3778 18.6223 24.7111 18.2667V18.2223C24.9333 18.1334 25.2444 18.0445 25.4667 18.0001V17.9556C24.2667 17.7334 23.0667 17.4223 21.9111 17.1112C22.1333 17.6445 22.3111 18.1778 22.4889 18.7112C22.8444 18.5778 23.2 18.5334 23.6 18.4445C24.2222 18.6667 25.1111 19.0223 25.2 19.8223C25.2889 20.5334 24.4889 20.8889 23.9555 21.2001C21.2889 22.1778 18.3111 22.2667 15.5555 21.5112C14.8 21.2889 13.6889 20.9778 13.6 20.0001C14.1333 18.7112 15.5555 18.4445 16.7111 18.1334C16.0889 17.7334 15.5111 17.4223 14.9333 16.9778C14.2667 17.0667 13.6889 17.3334 13.1111 17.6001ZM18 23.1556C17.9111 25.1556 17.8667 26.9778 17.7333 28.9778C18.5333 29.0667 19.4222 29.1112 20.2222 28.9778L20 23.4223L19.9555 23.1556C19.2889 23.2001 18.7111 23.2445 18 23.1556Z" fill="white"/>
<path fill-rule="evenodd" clip-rule="evenodd" d="M25.3333 34.4888C24.6222 34.4888 24.0444 34.9777 24.0444 35.7777C24.0444 36.6221 24.6667 37.0665 25.3333 37.0665C26 37.0665 26.6222 36.5777 26.6222 35.7777C26.6222 34.9777 26 34.4888 25.3333 34.4888ZM25.3333 36.7999C24.8 36.7999 24.4 36.3999 24.4 35.7777C24.4 35.1999 24.8 34.7999 25.3333 34.7999C25.8222 34.7999 26.2667 35.1999 26.2667 35.7777C26.2667 36.3999 25.8222 36.7999 25.3333 36.7999ZM25.9111 35.511C25.9111 35.1999 25.6889 35.0665 25.3333 35.0665H24.8V36.4888H25.1111V35.911H25.2444L25.5555 36.4888H25.9111L25.5555 35.8665C25.7333 35.8665 25.9111 35.7777 25.9111 35.511ZM25.3778 35.6888H25.1111V35.3332H25.3333C25.4667 35.3332 25.6 35.3332 25.6 35.511C25.6 35.6443 25.5111 35.6888 25.3778 35.6888Z" fill="white"/>
</svg>
