<svg width="1064" height="169" viewBox="0 0 1064 169" fill="none" xmlns="http://www.w3.org/2000/svg">
<path d="M7.938 120.222L8.232 120.516C8.106 123.33 8.022 126.648 8.022 133.872C8.022 141.936 8.106 145.38 8.358 149.706L8.106 150C6.258 150.042 5.67 150.042 3.444 150.126L3.192 149.832C3.276 147.27 3.36 145.044 3.36 139.626C3.36 133.284 3.36 126.984 3.066 120.684L3.276 120.348C5.124 120.348 5.796 120.348 7.938 120.222ZM33.3467 146.262L33.5987 146.556C33.4727 147.984 33.4727 148.278 33.3887 149.706L33.0947 150C24.9047 150 23.6027 150.042 15.6227 150.126L15.4127 149.832C15.5387 146.514 15.6647 144.246 15.6647 136.56C15.6647 129.504 15.6647 125.472 15.3707 120.642L15.6227 120.348C23.8967 120.306 25.5347 120.306 33.2627 120.222L33.5147 120.516C33.3887 121.776 33.3047 122.28 33.2207 123.792L32.9687 124.086C27.5507 123.918 25.7447 123.918 20.4107 123.876C20.2847 127.74 20.2847 128.958 20.2847 132.822C25.4507 132.864 27.0467 132.822 32.1707 132.738L32.3807 133.032C32.2127 134.502 32.2127 134.922 32.1707 136.266L31.9187 136.56C27.0467 136.434 25.9967 136.434 20.2847 136.434C20.2007 141.306 20.2427 142.482 20.2847 146.472C26.6267 146.472 27.9287 146.472 33.3467 146.262ZM56.1104 146.262L56.3624 146.556C56.2364 147.984 56.2364 148.278 56.1524 149.706L55.8584 150C47.6684 150 46.3664 150.042 38.3864 150.126L38.1764 149.832C38.3024 146.514 38.4284 144.246 38.4284 136.56C38.4284 129.504 38.4284 125.472 38.1344 120.642L38.3864 120.348C46.6604 120.306 48.2984 120.306 56.0264 120.222L56.2784 120.516C56.1524 121.776 56.0684 122.28 55.9844 123.792L55.7324 124.086C50.3144 123.918 48.5084 123.918 43.1744 123.876C43.0484 127.74 43.0484 128.958 43.0484 132.822C48.2144 132.864 49.8104 132.822 54.9344 132.738L55.1444 133.032C54.9764 134.502 54.9764 134.922 54.9344 136.266L54.6824 136.56C49.8104 136.434 48.7604 136.434 43.0484 136.434C42.9644 141.306 43.0064 142.482 43.0484 146.472C49.3904 146.472 50.6924 146.472 56.1104 146.262ZM78.874 146.262L79.126 146.556C79 147.984 79 148.278 78.916 149.706L78.622 150C70.432 150 69.13 150.042 61.15 150.126L60.94 149.832C61.066 146.514 61.192 144.246 61.192 136.56C61.192 129.504 61.192 125.472 60.898 120.642L61.15 120.348C69.424 120.306 71.062 120.306 78.79 120.222L79.042 120.516C78.916 121.776 78.832 122.28 78.748 123.792L78.496 124.086C73.078 123.918 71.272 123.918 65.938 123.876C65.812 127.74 65.812 128.958 65.812 132.822C70.978 132.864 72.574 132.822 77.698 132.738L77.908 133.032C77.74 134.502 77.74 134.922 77.698 136.266L77.446 136.56C72.574 136.434 71.524 136.434 65.812 136.434C65.728 141.306 65.77 142.482 65.812 146.472C72.154 146.472 73.456 146.472 78.874 146.262ZM104.703 132.276L106.803 133.2C109.869 134.544 113.943 136.308 113.943 141.684C113.943 146.388 110.457 150.63 103.149 150.63C98.6974 150.63 95.8414 149.286 94.8334 148.782L94.6654 148.488C94.8334 147.018 94.8754 146.22 95.0014 144.624L95.4214 144.456C96.4714 145.17 98.9074 146.934 102.813 146.934C107.139 146.934 108.945 144.708 108.945 142.188C108.945 139.248 106.509 138.114 103.779 137.064L101.679 136.14C98.6974 134.754 94.7074 132.948 94.7074 127.824C94.7074 126.27 95.1274 124.674 96.0094 123.414C97.9414 120.642 101.427 119.718 104.829 119.718C108.147 119.718 110.163 120.348 112.389 121.062L112.599 121.398C112.431 122.994 112.389 123.582 112.263 125.094L111.927 125.262C110.121 124.338 108.147 123.33 104.997 123.33C101.511 123.33 99.3274 124.968 99.3274 127.446C99.3274 129.336 100.587 130.218 101.469 130.764C102.015 131.1 102.183 131.184 104.703 132.276ZM127.887 146.43L128.181 146.682C128.055 148.068 128.055 148.362 128.013 149.58L127.803 149.832C126.921 150.042 126.207 150.21 124.653 150.21C123.645 150.21 120.999 150.21 119.697 148.026C118.941 146.808 118.941 145.8 118.941 140.844L119.025 131.604C117.555 131.604 117.513 131.646 116.001 131.688L115.833 131.436C115.917 130.092 115.917 129.756 115.917 128.412L116.169 128.16C117.093 128.16 117.639 128.202 119.025 128.16C118.983 127.278 118.983 126.354 118.983 125.472C118.941 124.674 118.899 123.876 118.857 123.078L119.067 122.784C120.957 122.322 121.419 122.196 123.351 121.608L123.645 121.818C123.519 124.59 123.477 125.136 123.477 128.202C125.241 128.16 125.745 128.16 128.139 128.076L128.349 128.328C128.265 129.42 128.223 129.882 128.223 131.31L128.013 131.562C125.913 131.52 125.661 131.478 123.435 131.478L123.351 139.29C123.393 139.794 123.393 142.188 123.393 142.776C123.393 145.842 123.771 146.808 125.871 146.808C126.753 146.808 127.425 146.598 127.887 146.43ZM150.041 127.992L150.293 128.286C150.209 131.478 150.167 134.46 150.167 137.862C150.167 143.028 150.293 146.136 150.377 147.942C150.377 148.53 150.419 149.118 150.461 149.706L150.293 149.958C148.277 150 147.941 150.042 146.009 150.126L145.757 149.874L145.799 148.11C144.875 148.782 142.649 150.504 139.205 150.504C137.567 150.504 135.761 150.126 134.417 149.076C131.729 146.892 131.729 143.322 131.687 140.046V137.442C131.603 131.436 131.603 130.764 131.477 128.496L131.687 128.202C133.661 128.16 134.039 128.16 136.013 127.992L136.265 128.286L136.097 137.484C136.097 138.618 136.055 139.458 136.097 141.474C136.139 143.238 136.223 147.018 140.465 147.018C142.943 147.018 144.707 145.632 145.715 144.834C145.757 142.566 145.757 140.634 145.757 138.198C145.757 132.36 145.715 131.184 145.463 128.454L145.715 128.16C147.647 128.118 148.109 128.118 150.041 127.992ZM170.075 117.618L170.285 117.366C172.427 116.988 172.847 116.904 174.737 116.484L175.031 116.736C174.737 122.574 174.695 132.99 174.695 137.19C174.695 143.7 174.863 146.808 175.031 149.706L174.821 150C172.973 150 172.469 150.042 170.537 150.126L170.243 149.874L170.327 148.32C169.319 149.076 167.597 150.42 164.531 150.42C158.945 150.42 155.081 146.01 155.081 139.626C155.081 135.048 157.013 132.15 158.777 130.596C161.843 127.824 165.833 127.698 168.017 127.698C168.899 127.698 169.319 127.698 170.453 127.782C170.495 122.574 170.285 120.054 170.075 117.618ZM170.285 144.834C170.369 139.332 170.369 138.072 170.327 131.184C169.613 131.142 169.109 131.058 168.227 131.058C166.925 131.058 164.153 131.142 162.137 133.032C161.213 133.914 159.701 135.888 159.701 139.626C159.701 142.02 160.373 143.742 161.255 144.792C162.011 145.674 163.397 146.682 165.581 146.682C168.143 146.682 169.697 145.338 170.285 144.834ZM197.796 144.666L198.132 144.876C197.922 146.556 197.88 146.976 197.796 148.614L197.544 148.908C196.83 149.286 194.562 150.504 190.824 150.504C183.936 150.504 179.61 146.556 179.61 139.248C179.61 131.436 184.314 127.614 189.816 127.614C193.134 127.614 195.444 129 196.704 130.512C199.098 133.368 199.014 137.526 198.972 139.374L198.678 139.626C192.126 139.584 190.992 139.584 184.104 139.626C184.146 141.096 184.272 143.154 185.7 144.876C187.422 146.934 189.816 147.144 191.118 147.144C192.336 147.144 193.596 146.934 194.772 146.514C196.326 145.884 197.25 145.128 197.796 144.666ZM194.646 136.392C194.604 135.804 194.562 134.88 194.226 133.914C193.386 131.604 191.538 130.638 189.648 130.638C187.296 130.638 184.524 132.234 184.104 136.434C189.186 136.476 190.782 136.434 194.646 136.392ZM222.323 149.706L222.071 149.958C220.055 150 219.803 150 217.871 150.126L217.577 149.832C217.577 149.37 217.619 148.908 217.619 148.446C217.661 146.388 217.661 144.33 217.661 142.272C217.661 135.804 217.619 135.384 217.409 134.502C216.611 131.31 214.217 131.31 213.629 131.31C211.109 131.31 209.177 132.78 208.043 133.662C208.001 140.97 208.085 144.792 208.379 149.706L208.127 149.958C206.069 150 205.733 150 203.717 150.126L203.507 149.832C203.549 147.48 203.633 145.212 203.633 142.104C203.633 135.384 203.339 131.814 203.129 129L203.381 128.706C205.481 128.328 205.859 128.244 207.833 127.866L208.127 128.16L208.085 130.344C209.177 129.588 211.781 127.74 215.477 127.74C216.527 127.74 217.829 127.908 218.963 128.538C220.055 129.168 220.937 130.134 221.399 131.268C221.945 132.528 221.987 133.788 222.029 136.392V141.306C222.155 146.22 222.197 148.11 222.323 149.706ZM237.276 146.43L237.57 146.682C237.444 148.068 237.444 148.362 237.402 149.58L237.192 149.832C236.31 150.042 235.596 150.21 234.042 150.21C233.034 150.21 230.388 150.21 229.086 148.026C228.33 146.808 228.33 145.8 228.33 140.844L228.414 131.604C226.944 131.604 226.902 131.646 225.39 131.688L225.222 131.436C225.306 130.092 225.306 129.756 225.306 128.412L225.558 128.16C226.482 128.16 227.028 128.202 228.414 128.16C228.372 127.278 228.372 126.354 228.372 125.472C228.33 124.674 228.288 123.876 228.246 123.078L228.456 122.784C230.346 122.322 230.808 122.196 232.74 121.608L233.034 121.818C232.908 124.59 232.866 125.136 232.866 128.202C234.63 128.16 235.134 128.16 237.528 128.076L237.738 128.328C237.654 129.42 237.612 129.882 237.612 131.31L237.402 131.562C235.302 131.52 235.05 131.478 232.824 131.478L232.74 139.29C232.782 139.794 232.782 142.188 232.782 142.776C232.782 145.842 233.16 146.808 235.26 146.808C236.142 146.808 236.814 146.598 237.276 146.43ZM261.277 150.084L253.885 150.126L253.675 149.832C253.759 147.816 253.801 145.884 253.801 142.062C253.801 140.256 253.843 131.478 253.843 129.504C253.843 125.094 253.717 122.826 253.549 120.642L253.759 120.348L259.387 120.264C260.227 120.222 261.529 120.222 262.663 120.222C265.141 120.222 267.787 120.306 269.887 121.524C271.441 122.406 273.205 124.17 273.205 127.278C273.205 128.748 272.785 132.948 266.947 134.376C267.913 134.418 269.299 134.46 270.811 135.132C274.423 136.728 274.801 139.92 274.801 141.474C274.801 145.338 272.407 148.068 269.047 149.286C266.821 150.084 264.595 150.084 261.277 150.084ZM259.429 136.518L258.421 136.56C258.421 141.348 258.421 142.062 258.589 146.64H259.387C262.537 146.64 265.099 146.682 266.737 146.01C268.753 145.254 269.887 143.49 269.887 141.39C269.887 136.476 264.469 136.434 262.453 136.434C262.075 136.434 261.697 136.434 259.429 136.518ZM258.421 123.708V133.032C262.201 133.074 265.099 133.032 266.863 131.646C267.913 130.764 268.585 129.378 268.585 127.992C268.585 126.858 268.123 125.766 267.409 125.01C265.939 123.582 263.335 123.582 262.369 123.582C261.025 123.582 259.723 123.624 258.421 123.708ZM289.711 132.318L289.417 132.528C288.997 132.36 288.451 132.15 287.737 132.15C286.939 132.15 286.351 132.444 285.973 132.696C284.251 133.914 284.251 135.762 284.251 140.13C284.251 144.876 284.377 147.354 284.545 149.706L284.335 150C282.361 150 281.899 150.042 279.883 150.126L279.673 149.874C279.715 146.682 279.757 143.784 279.757 139.878C279.757 133.158 279.631 131.436 279.379 129L279.631 128.706C281.227 128.412 282.235 128.202 283.999 127.866L284.251 128.118L284.041 131.688C284.545 130.344 285.595 127.656 289.165 127.656C289.711 127.656 290.005 127.698 290.341 127.782L290.509 128.034C290.089 130.05 290.005 130.47 289.711 132.318ZM309.662 137.19V141.348C309.662 146.556 309.704 147.018 309.914 149.748L309.704 149.958C307.73 150 307.394 150.042 305.462 150.126L305.294 149.874L305.336 148.362C304.538 148.992 302.648 150.504 299.456 150.504C295.256 150.504 292.316 147.648 292.316 143.49C292.316 137.862 297.02 136.056 304.58 135.174L305.294 135.09C305.294 133.956 305.294 133.158 304.916 132.486C304.496 131.73 303.53 130.932 301.43 130.932C298.7 130.932 296.81 131.772 295.046 132.528L294.71 132.318C294.794 130.386 294.794 130.134 294.836 129.252L295.088 129C297.44 128.16 299.876 127.614 302.354 127.614C305.462 127.614 308.486 128.664 309.368 131.94C309.662 133.116 309.662 135.426 309.662 137.19ZM305.336 138.198L304.958 138.282C300.716 138.912 296.768 139.5 296.768 143.238C296.768 143.448 296.768 147.06 300.758 147.06C303.362 147.06 304.874 145.632 305.336 145.212V138.198ZM334.378 149.706L334.126 149.958C332.11 150 331.858 150 329.926 150.126L329.632 149.832C329.632 149.37 329.674 148.908 329.674 148.446C329.716 146.388 329.716 144.33 329.716 142.272C329.716 135.804 329.674 135.384 329.464 134.502C328.666 131.31 326.272 131.31 325.684 131.31C323.164 131.31 321.232 132.78 320.098 133.662C320.056 140.97 320.14 144.792 320.434 149.706L320.182 149.958C318.124 150 317.788 150 315.772 150.126L315.562 149.832C315.604 147.48 315.688 145.212 315.688 142.104C315.688 135.384 315.394 131.814 315.184 129L315.436 128.706C317.536 128.328 317.914 128.244 319.888 127.866L320.182 128.16L320.14 130.344C321.232 129.588 323.836 127.74 327.532 127.74C328.582 127.74 329.884 127.908 331.018 128.538C332.11 129.168 332.992 130.134 333.454 131.268C334 132.528 334.042 133.788 334.084 136.392V141.306C334.21 146.22 334.252 148.11 334.378 149.706ZM355.462 144.834L355.798 145.002C355.63 146.808 355.588 147.018 355.462 148.74L355.168 149.034C353.95 149.622 352.312 150.462 349.372 150.462C343.03 150.462 338.914 145.884 338.914 139.332C338.914 132.654 342.946 127.614 349.456 127.614C352.186 127.614 354.118 128.496 355.21 128.958L355.378 129.252C355.21 130.764 355.168 131.31 355.084 132.57L354.748 132.738C353.362 131.73 351.766 131.1 350.086 131.1C346.6 131.1 343.534 133.788 343.534 139.164C343.534 144.876 346.768 146.934 350.044 146.934C352.9 146.934 354.664 145.464 355.462 144.834ZM378.101 149.706L377.849 149.958C375.833 150 375.581 150 373.649 150.126L373.355 149.832L373.397 148.446C373.439 146.262 373.439 144.036 373.439 141.852L373.397 137.358C373.397 136.392 373.397 135.426 373.187 134.502C372.725 132.57 371.549 131.31 369.407 131.31C367.013 131.31 365.165 132.654 363.779 133.662C363.737 140.97 363.821 144.792 364.073 149.706L363.863 149.958C361.931 150 361.427 150 359.369 150.126L359.159 149.832C359.243 146.85 359.369 143.07 359.369 135.006C359.369 131.478 359.327 127.95 359.285 124.422C359.201 120.726 359.075 119.508 358.949 117.618L359.159 117.366C361.175 117.03 361.847 116.904 363.737 116.484L363.989 116.778C363.737 121.272 363.737 125.808 363.737 130.344C365.081 129.462 367.727 127.74 371.255 127.74C372.221 127.74 373.187 127.866 374.069 128.244C375.959 129 377.093 130.512 377.513 132.234C377.723 133.074 377.723 133.578 377.807 136.392V141.306L377.849 143.28C377.933 146.808 377.933 147.396 378.101 149.706Z" fill="black"/>
<path d="M30.24 25.968L30.48 26.256L30.336 40.512V45.408C30.24 51.504 30.048 54.288 27.504 56.976C23.952 60.72 18.672 60.72 16.944 60.72C10.512 60.72 6.816 58.32 4.992 55.728C3.312 53.424 3.024 50.832 2.88 45.648V42.096C2.832 34.608 2.832 33.264 2.64 26.4L2.928 26.112C6.192 26.16 7.296 26.16 11.376 25.968L11.616 26.256C11.52 31.008 11.472 34.704 11.472 38.592C11.472 41.136 11.472 43.68 11.568 46.224C11.664 49.248 11.952 50.928 12.672 52.176C13.728 53.856 15.6 54.72 17.568 54.72C19.152 54.72 20.736 54.192 21.792 52.992C23.088 51.456 23.232 49.152 23.232 44.112C23.232 38.208 22.992 32.304 22.752 26.4L23.04 26.112C25.776 26.16 26.736 26.16 30.24 25.968ZM59.4469 59.664L59.1109 59.952C55.2709 59.952 54.4549 60 51.2869 60.096L50.9989 59.808C50.9989 58.176 51.0469 56.496 51.0469 54.864C51.0469 53.04 50.9989 46.464 50.9029 44.88C50.7589 43.152 50.5189 40.32 47.8789 40.32C46.3429 40.32 45.1909 41.136 44.1829 41.808C44.2309 50.4 44.2789 52.272 44.5669 59.664L44.2789 59.952C40.4389 59.952 39.7189 59.952 36.2629 60.096L35.9749 59.808C36.0229 56.736 36.0709 53.664 36.0709 50.592C36.0709 42.768 35.7829 39.744 35.3989 35.568L35.6869 35.232C39.2869 34.752 40.1029 34.608 43.7989 33.84L44.2789 34.176L44.1829 36.816C46.3909 35.52 48.9349 33.984 51.8629 33.984C53.5909 33.984 56.3269 34.368 57.8149 36.864C59.0149 38.832 59.0629 41.04 59.1109 45.648V49.392C59.2069 54.096 59.2069 55.44 59.4469 59.664ZM73.5836 59.664L73.2476 60C69.3596 59.952 68.3996 60 64.9436 60.144L64.6556 59.808C64.7996 55.872 64.9436 52.944 64.9436 47.712C64.9436 40.896 64.7996 39.216 64.4156 35.568L64.7036 35.28L72.9596 33.84L73.2956 34.224C73.2476 38.304 73.1516 42.432 73.1516 46.512C73.1516 53.136 73.3436 55.968 73.5836 59.664ZM72.8156 29.232L72.5756 29.568C69.1676 30 68.2556 30.096 64.9916 30.672L64.6556 30.384C64.7036 29.472 64.7036 28.512 64.7036 27.6C64.7036 26.448 64.6556 25.44 64.5596 23.712L64.8476 23.376L72.6716 22.416L72.9596 22.704L72.8156 29.232ZM92.1593 59.616L91.8713 60C88.4153 59.952 87.1673 60 84.0473 60.144L83.7113 59.808C82.6553 55.872 82.1273 54.096 75.7432 35.184L75.9352 34.8C79.5833 34.752 80.5433 34.704 84.3353 34.272L84.6713 34.56C85.3433 37.728 85.5353 38.64 86.7353 43.104L87.6473 46.8L88.8473 51.984L91.2953 42.528C92.2553 38.784 92.3993 38.112 93.0713 34.896L93.4073 34.56L100.127 34.416L100.367 34.752C99.0233 38.688 96.9113 44.928 95.6153 48.816C94.6073 51.84 93.6953 54.816 92.1593 59.616ZM124.223 52.896L124.559 53.04L124.223 58.464L123.935 58.848C121.391 59.856 119.663 60.576 115.679 60.576C112.223 60.576 105.695 60 102.911 53.52C102.143 51.84 101.759 49.488 101.759 47.232C101.759 38.928 106.751 33.984 114.287 33.984C115.391 33.984 116.495 34.08 117.695 34.416C119.327 34.8 123.023 35.952 124.703 41.616C125.375 44.016 125.423 46.416 125.471 48.768L125.183 49.104L109.679 49.392C109.871 50.352 110.015 51.312 110.735 52.32C111.887 54.048 113.855 54.96 116.735 54.96C120.239 54.96 122.399 53.856 124.223 52.896ZM109.679 44.304L117.695 44.112C117.695 43.008 117.647 41.856 116.975 40.8C116.447 39.936 115.487 39.12 113.903 39.12C113.231 39.12 112.559 39.264 111.983 39.648C110.159 40.8 109.823 42.816 109.679 44.304ZM143.736 42.192L143.304 42.384C142.632 42 142.152 41.712 141.336 41.712C138.072 41.712 138.072 44.88 138.072 47.04C138.072 50.352 138.36 55.776 138.552 59.664L138.312 60C134.472 59.952 133.704 60 130.152 60.144L129.864 59.856C129.96 55.872 130.008 51.936 130.008 48C130.008 41.328 129.864 39.168 129.576 35.568L129.864 35.28C133.368 34.752 134.28 34.608 137.832 33.84L138.216 34.224L138.072 38.64C139.608 35.088 141.816 33.984 143.784 33.984C144.12 33.984 144.456 34.032 144.792 34.032L145.08 34.368L143.736 42.192ZM157.944 43.44L160.296 44.304C162.936 45.312 166.632 46.704 166.632 51.984C166.632 52.32 166.632 52.656 166.584 53.04C165.72 59.904 158.52 60.576 154.872 60.576C151.368 60.576 149.352 59.808 147 58.944L146.76 58.512C146.952 56.112 147 55.584 147.096 53.088L147.528 52.896C148.248 53.472 148.632 53.808 149.448 54.24C151.224 55.152 153.192 55.584 154.536 55.584C157.224 55.584 158.328 54.288 158.328 53.088C158.328 51.36 156.216 50.64 154.92 50.208L153.096 49.536C150.84 48.672 146.856 47.136 146.856 42C146.856 40.08 147.528 38.64 148.152 37.776C150.648 34.176 155.352 33.984 157.704 33.984C160.824 33.984 162.792 34.56 165.048 35.184L165.288 35.472L164.808 40.704L164.376 40.848C163.176 40.08 161.304 38.832 158.376 38.832C155.4 38.832 155.016 40.416 155.016 40.992C155.016 42.336 156.312 42.864 157.944 43.44ZM179.521 59.664L179.185 60C175.297 59.952 174.337 60 170.881 60.144L170.593 59.808C170.737 55.872 170.881 52.944 170.881 47.712C170.881 40.896 170.737 39.216 170.353 35.568L170.641 35.28L178.897 33.84L179.233 34.224C179.185 38.304 179.089 42.432 179.089 46.512C179.089 53.136 179.281 55.968 179.521 59.664ZM178.753 29.232L178.513 29.568C175.105 30 174.193 30.096 170.929 30.672L170.593 30.384C170.641 29.472 170.641 28.512 170.641 27.6C170.641 26.448 170.593 25.44 170.497 23.712L170.785 23.376L178.609 22.416L178.897 22.704L178.753 29.232ZM208.369 59.712L208.129 60C204.529 60 203.617 60 200.305 60.144L200.065 59.856L200.161 57.984C199.009 58.992 197.233 60.576 193.825 60.576C192.241 60.576 189.649 60.192 187.537 58.464C184.705 56.112 183.697 52.368 183.697 48.624C183.697 43.68 185.089 39.696 188.449 37.104C192.097 34.224 196.609 34.32 200.209 34.416C200.257 28.944 200.209 27.744 199.921 23.232L200.161 22.944L208.081 21.696L208.417 21.984C208.225 28.32 208.033 33.552 208.033 46.224C208.033 52.512 208.177 55.392 208.369 59.712ZM200.209 40.176C199.537 40.08 199.105 40.032 198.577 40.032C193.201 40.032 192.145 44.16 192.145 47.856C192.145 48.816 192.145 54.768 196.801 54.768C198.145 54.768 199.105 54.192 200.065 53.616C200.209 47.808 200.257 46.56 200.209 40.176ZM235.177 45.696L235.13 49.248C235.13 53.76 235.13 54.96 235.466 59.664L235.226 60C232.106 59.952 231.05 60 227.594 60.144L227.306 59.808V58.032C226.298 58.848 224.234 60.576 220.634 60.576C215.93 60.576 212.234 57.264 212.234 52.128C212.234 49.968 213.146 47.232 215.834 45.552C218.714 43.776 221.402 43.248 227.162 42.48C227.162 41.76 227.018 40.896 226.538 40.416C225.914 39.792 225.194 39.504 223.418 39.504C220.202 39.504 217.082 40.752 215.402 41.424L215.018 41.232L215.258 36L215.546 35.616C218.282 34.8 220.826 34.032 224.954 34.032C231.098 34.032 233.018 35.952 233.978 37.488C235.226 39.504 235.226 41.376 235.177 45.696ZM227.258 53.328V47.52C223.994 47.952 220.202 48.48 220.202 51.648C220.202 53.664 221.642 54.576 223.37 54.576C224.954 54.576 226.25 53.904 227.258 53.328ZM264.291 59.712L264.051 60C260.451 60 259.539 60 256.227 60.144L255.987 59.856L256.083 57.984C254.931 58.992 253.155 60.576 249.747 60.576C248.163 60.576 245.571 60.192 243.459 58.464C240.627 56.112 239.619 52.368 239.619 48.624C239.619 43.68 241.011 39.696 244.371 37.104C248.019 34.224 252.531 34.32 256.131 34.416C256.179 28.944 256.131 27.744 255.843 23.232L256.083 22.944L264.003 21.696L264.339 21.984C264.147 28.32 263.955 33.552 263.955 46.224C263.955 52.512 264.099 55.392 264.291 59.712ZM256.131 40.176C255.459 40.08 255.027 40.032 254.499 40.032C249.123 40.032 248.067 44.16 248.067 47.856C248.067 48.816 248.067 54.768 252.723 54.768C254.067 54.768 255.027 54.192 255.987 53.616C256.131 47.808 256.179 46.56 256.131 40.176ZM303.147 25.968L303.483 26.256C306.219 36.816 306.891 39.072 312.699 59.616L312.459 60C308.571 59.952 307.611 60 304.107 60.144L303.771 59.856L301.707 50.976H291.339L288.987 59.712L288.651 60H281.163L280.971 59.664C288.027 39.408 289.563 34.56 292.107 26.4L292.443 26.112C297.579 26.112 298.539 26.112 303.147 25.968ZM293.019 45.168H300.315L298.539 37.68L297.099 31.44L295.419 37.056L293.019 45.168ZM338.811 34.32L339.147 34.704C339.051 39.216 339.003 43.728 339.003 48.24C339.003 54.48 339.099 56.304 339.339 59.712L339.051 60C335.931 60 334.875 60 331.371 60.144L331.035 59.856L331.083 57.696C329.355 59.04 327.387 60.576 323.979 60.576C321.579 60.576 319.275 59.808 317.691 58.032C315.963 56.016 315.723 53.808 315.771 48.576V45.216C315.771 40.368 315.723 39.024 315.435 34.992L315.771 34.704L323.691 34.32L324.027 34.704L323.931 44.4C323.883 45.6 323.883 46.848 323.883 48.048C323.883 50.88 323.883 54.528 327.339 54.528C328.635 54.528 329.643 53.808 330.939 52.944C330.987 51.024 330.987 50.256 330.987 48.864C330.987 48.096 330.987 40.416 330.651 34.992L330.987 34.704L338.811 34.32ZM358.179 54.48L358.563 54.672L358.083 59.616L357.747 59.952C356.067 60.24 354.579 60.528 352.707 60.528C345.219 60.528 345.123 55.776 345.123 51.36C345.123 50.112 345.171 48.912 345.219 47.712L345.363 40.08L342.339 40.176L342.051 39.888L342.483 34.752L342.771 34.512L345.363 34.608L345.315 28.608L345.507 28.272C348.915 27.408 349.779 27.168 353.043 26.208L353.379 26.496L353.235 34.56H358.035L358.323 34.848L357.843 39.984L357.555 40.272L353.235 40.08L353.139 46.848C353.091 48.768 353.091 51.408 353.235 52.656C353.331 53.376 353.523 54.912 355.971 54.912C356.787 54.912 357.363 54.72 358.179 54.48ZM386.14 47.232C386.14 54.432 383.404 60.576 373.228 60.576C366.364 60.576 364.012 57.984 362.764 56.112C360.988 53.52 360.508 50.4 360.508 47.328C360.508 38.496 365.212 34.032 373.564 34.032C374.812 34.032 377.308 34.128 379.42 34.944C386.14 37.584 386.14 45.36 386.14 47.232ZM377.836 47.184C377.836 44.592 377.596 41.856 376.444 40.464C375.82 39.696 374.716 38.976 373.372 38.976C371.836 38.976 370.588 39.84 369.868 41.136C368.908 42.816 368.908 45.888 368.908 47.28C368.908 51.936 369.82 53.568 370.636 54.384C371.212 54.912 372.076 55.488 373.324 55.488C377.308 55.488 377.836 51.12 377.836 47.184ZM380.668 22.944L380.812 23.28C379.276 25.632 377.116 28.944 375.628 31.392L375.292 31.584H370.108L369.916 31.296C371.356 27.984 371.74 27.024 372.844 23.28L373.084 23.04L380.668 22.944ZM414.197 59.664L413.861 59.952C410.021 59.952 409.205 60 406.037 60.096L405.749 59.808C405.749 58.176 405.797 56.496 405.797 54.864C405.797 53.04 405.749 46.464 405.653 44.88C405.509 43.152 405.269 40.32 402.629 40.32C401.093 40.32 399.941 41.136 398.933 41.808C398.981 50.4 399.029 52.272 399.317 59.664L399.029 59.952C395.189 59.952 394.469 59.952 391.013 60.096L390.725 59.808C390.773 56.736 390.821 53.664 390.821 50.592C390.821 42.768 390.533 39.744 390.149 35.568L390.437 35.232C394.037 34.752 394.853 34.608 398.549 33.84L399.029 34.176L398.933 36.816C401.141 35.52 403.685 33.984 406.613 33.984C408.341 33.984 411.077 34.368 412.565 36.864C413.765 38.832 413.813 41.04 413.861 45.648V49.392C413.957 54.096 413.957 55.44 414.197 59.664ZM444.078 47.232C444.078 54.432 441.342 60.576 431.166 60.576C424.302 60.576 421.95 57.984 420.702 56.112C418.926 53.52 418.446 50.4 418.446 47.328C418.446 38.496 423.15 34.032 431.502 34.032C432.75 34.032 435.246 34.128 437.358 34.944C444.078 37.584 444.078 45.36 444.078 47.232ZM435.774 47.184C435.774 44.592 435.534 41.856 434.382 40.464C433.758 39.696 432.654 38.976 431.31 38.976C429.774 38.976 428.526 39.84 427.806 41.136C426.846 42.816 426.846 45.888 426.846 47.28C426.846 51.936 427.758 53.568 428.574 54.384C429.15 54.912 430.014 55.488 431.262 55.488C435.246 55.488 435.774 51.12 435.774 47.184ZM486.102 59.664L485.814 59.952C482.454 59.952 481.398 59.952 477.798 60.096L477.51 59.808C477.558 58.368 477.606 51.216 477.654 49.584C477.654 48.672 477.702 47.76 477.702 46.848C477.702 42.72 477.27 40.128 474.534 40.128C473.094 40.128 472.038 40.8 471.222 41.328L471.27 46.176V47.952C471.318 53.76 471.366 55.104 471.654 59.664L471.366 59.952C468.054 59.952 467.046 59.952 463.398 60.144L463.11 59.808C463.206 55.92 463.254 54.864 463.254 47.904C463.254 43.776 463.158 40.368 460.182 40.368C458.982 40.368 457.878 40.992 456.87 41.712C456.918 50.064 456.966 52.272 457.302 59.664L457.014 59.952C453.03 59.952 451.974 60 448.902 60.096L448.662 59.808C448.662 57.072 448.71 54.288 448.71 51.552C448.71 42.048 448.422 39.408 448.038 35.568L448.326 35.232C451.686 34.752 452.742 34.56 456.486 33.84L456.918 34.272V36.96C459.126 35.424 461.19 33.984 464.358 33.984C468.198 33.984 469.398 36 470.07 37.104C471.99 35.76 474.63 33.984 478.566 33.984C479.334 33.984 482.646 33.984 484.518 36.72C485.91 38.736 485.862 41.712 485.814 44.928V48.528C485.814 53.952 485.862 55.2 486.102 59.664ZM513.006 45.696L512.958 49.248C512.958 53.76 512.958 54.96 513.294 59.664L513.054 60C509.934 59.952 508.878 60 505.422 60.144L505.134 59.808V58.032C504.126 58.848 502.062 60.576 498.462 60.576C493.758 60.576 490.062 57.264 490.062 52.128C490.062 49.968 490.974 47.232 493.662 45.552C496.542 43.776 499.23 43.248 504.99 42.48C504.99 41.76 504.846 40.896 504.366 40.416C503.742 39.792 503.022 39.504 501.246 39.504C498.03 39.504 494.91 40.752 493.23 41.424L492.846 41.232L493.086 36L493.374 35.616C496.11 34.8 498.654 34.032 502.782 34.032C508.926 34.032 510.846 35.952 511.806 37.488C513.054 39.504 513.054 41.376 513.006 45.696ZM505.086 53.328V47.52C501.822 47.952 498.03 48.48 498.03 51.648C498.03 53.664 499.47 54.576 501.198 54.576C502.782 54.576 504.078 53.904 505.086 53.328Z" fill="black"/>
<path d="M588 0V169" stroke="black" stroke-width="3" stroke-miterlimit="10"/>
<path d="M26.4 111.712L26.16 112C22.56 112 21.648 112 18.336 112.144L18.096 111.856L18.192 109.984C17.04 110.992 15.264 112.576 11.856 112.576C10.272 112.576 7.68 112.192 5.568 110.464C2.736 108.112 1.728 104.368 1.728 100.624C1.728 95.68 3.12 91.696 6.48 89.104C10.128 86.224 14.64 86.32 18.24 86.416C18.288 80.944 18.24 79.744 17.952 75.232L18.192 74.944L26.112 73.696L26.448 73.984C26.256 80.32 26.064 85.552 26.064 98.224C26.064 104.512 26.208 107.392 26.4 111.712ZM18.24 92.176C17.568 92.08 17.136 92.032 16.608 92.032C11.232 92.032 10.176 96.16 10.176 99.856C10.176 100.816 10.176 106.768 14.832 106.768C16.176 106.768 17.136 106.192 18.096 105.616C18.24 99.808 18.288 98.56 18.24 92.176ZM53.1608 104.896L53.4968 105.04L53.1608 110.464L52.8728 110.848C50.3288 111.856 48.6008 112.576 44.6168 112.576C41.1608 112.576 34.6328 112 31.8488 105.52C31.0808 103.84 30.6968 101.488 30.6968 99.232C30.6968 90.928 35.6888 85.984 43.2248 85.984C44.3288 85.984 45.4328 86.08 46.6328 86.416C48.2648 86.8 51.9608 87.952 53.6407 93.616C54.3127 96.016 54.3608 98.416 54.4088 100.768L54.1208 101.104L38.6168 101.392C38.8088 102.352 38.9528 103.312 39.6728 104.32C40.8248 106.048 42.7928 106.96 45.6728 106.96C49.1768 106.96 51.3368 105.856 53.1608 104.896ZM38.6168 96.304L46.6328 96.112C46.6328 95.008 46.5848 93.856 45.9128 92.8C45.3848 91.936 44.4248 91.12 42.8408 91.12C42.1688 91.12 41.4968 91.264 40.9208 91.648C39.0968 92.8 38.7608 94.816 38.6168 96.304ZM89.1855 111.712L88.8975 112C85.4895 112 84.4335 112 80.4015 112.144L80.1615 111.856C80.4495 106.192 80.4975 104.08 80.4975 99.328V97.792C79.7775 96.544 79.1055 95.296 78.4335 94.048C77.1855 91.84 70.8015 80.992 69.4095 78.496L69.5535 78.112C73.5855 78.064 74.5935 78.016 78.6735 77.776L79.0095 78.016C80.4495 81.088 81.1215 82.528 81.9855 84.256C82.4655 85.168 84.9135 89.824 85.4415 90.88C87.4575 86.944 88.7535 84.4 91.5375 78.4L91.8255 78.112C94.7535 78.112 95.7135 78.112 99.3135 77.968L99.5055 78.304L88.8975 97.6C88.8975 103.744 88.9455 105.472 89.1855 111.712ZM122.858 86.32L123.194 86.704C123.098 91.216 123.05 95.728 123.05 100.24C123.05 106.48 123.146 108.304 123.385 111.712L123.098 112C119.978 112 118.922 112 115.418 112.144L115.082 111.856L115.13 109.696C113.402 111.04 111.434 112.576 108.026 112.576C105.626 112.576 103.322 111.808 101.738 110.032C100.01 108.016 99.7695 105.808 99.8175 100.576V97.216C99.8175 92.368 99.7695 91.024 99.4815 86.992L99.8175 86.704L107.738 86.32L108.074 86.704L107.978 96.4C107.93 97.6 107.93 98.848 107.93 100.048C107.93 102.88 107.93 106.528 111.386 106.528C112.682 106.528 113.69 105.808 114.986 104.944C115.034 103.024 115.034 102.256 115.034 100.864C115.034 100.096 115.034 92.416 114.698 86.992L115.034 86.704L122.858 86.32ZM147.554 105.088L147.938 105.328L147.746 111.088L147.458 111.376C145.442 111.952 143.81 112.432 141.266 112.432C130.466 112.432 127.586 104.944 127.586 99.424C127.586 94.528 129.794 85.984 141.074 85.984C143.858 85.984 145.682 86.56 147.794 87.232L148.034 87.52C147.65 90.064 147.602 90.736 147.41 93.28L146.93 93.424C145.49 92.464 144.338 91.696 142.226 91.696C137.57 91.696 136.034 95.728 136.034 99.232C136.034 102.112 137.138 106.624 142.562 106.624C145.01 106.624 146.258 105.856 147.554 105.088ZM173.115 97.696L173.067 101.248C173.067 105.76 173.067 106.96 173.403 111.664L173.163 112C170.043 111.952 168.987 112 165.531 112.144L165.243 111.808V110.032C164.235 110.848 162.171 112.576 158.571 112.576C153.867 112.576 150.171 109.264 150.171 104.128C150.171 101.968 151.083 99.232 153.771 97.552C156.651 95.776 159.339 95.248 165.099 94.48C165.099 93.76 164.955 92.896 164.475 92.416C163.851 91.792 163.131 91.504 161.355 91.504C158.139 91.504 155.019 92.752 153.339 93.424L152.955 93.232L153.195 88L153.483 87.616C156.219 86.8 158.763 86.032 162.891 86.032C169.035 86.032 170.955 87.952 171.915 89.488C173.163 91.504 173.163 93.376 173.115 97.696ZM165.195 105.328V99.52C161.931 99.952 158.139 100.48 158.139 103.648C158.139 105.664 159.579 106.576 161.307 106.576C162.891 106.576 164.187 105.904 165.195 105.328ZM192.148 106.48L192.532 106.672L192.052 111.616L191.716 111.952C190.036 112.24 188.548 112.528 186.676 112.528C179.188 112.528 179.092 107.776 179.092 103.36C179.092 102.112 179.14 100.912 179.188 99.712L179.332 92.08L176.308 92.176L176.02 91.888L176.452 86.752L176.74 86.512L179.332 86.608L179.284 80.608L179.476 80.272C182.884 79.408 183.748 79.168 187.012 78.208L187.348 78.496L187.204 86.56H192.004L192.292 86.848L191.812 91.984L191.524 92.272L187.204 92.08L187.108 98.848C187.06 100.768 187.06 103.408 187.204 104.656C187.3 105.376 187.492 106.912 189.94 106.912C190.756 106.912 191.332 106.72 192.148 106.48ZM217.037 97.696L216.989 101.248C216.989 105.76 216.989 106.96 217.325 111.664L217.085 112C213.965 111.952 212.909 112 209.453 112.144L209.165 111.808V110.032C208.157 110.848 206.093 112.576 202.493 112.576C197.789 112.576 194.093 109.264 194.093 104.128C194.093 101.968 195.005 99.232 197.693 97.552C200.573 95.776 203.261 95.248 209.021 94.48C209.021 93.76 208.877 92.896 208.397 92.416C207.773 91.792 207.053 91.504 205.277 91.504C202.061 91.504 198.941 92.752 197.261 93.424L196.877 93.232L197.117 88L197.405 87.616C200.141 86.8 202.685 86.032 206.813 86.032C212.957 86.032 214.877 87.952 215.837 89.488C217.085 91.504 217.085 93.376 217.037 97.696ZM209.117 105.328V99.52C205.853 99.952 202.061 100.48 202.061 103.648C202.061 105.664 203.501 106.576 205.229 106.576C206.813 106.576 208.109 105.904 209.117 105.328ZM213.629 74.944L213.773 75.28C212.237 77.632 210.077 80.944 208.589 83.392L208.253 83.584H203.069L202.877 83.296C204.317 79.984 204.701 79.024 205.805 75.28L206.045 75.04L213.629 74.944ZM246.15 111.664L245.814 111.952C241.974 111.952 241.158 112 237.99 112.096L237.702 111.808C237.702 110.176 237.75 108.496 237.75 106.864C237.75 105.04 237.702 98.464 237.606 96.88C237.462 95.152 237.222 92.32 234.582 92.32C233.046 92.32 231.894 93.136 230.886 93.808C230.934 102.4 230.982 104.272 231.27 111.664L230.982 111.952C227.142 111.952 226.422 111.952 222.966 112.096L222.678 111.808C222.726 108.736 222.774 105.664 222.774 102.592C222.774 94.768 222.486 91.744 222.102 87.568L222.39 87.232C225.99 86.752 226.806 86.608 230.502 85.84L230.982 86.176L230.886 88.816C233.094 87.52 235.638 85.984 238.566 85.984C240.294 85.984 243.03 86.368 244.518 88.864C245.718 90.832 245.766 93.04 245.814 97.648V101.392C245.91 106.096 245.91 107.44 246.15 111.664Z" fill="black"/>
<path d="M827.127 30.9144C829.923 38.3468 829.658 48.5746 827.565 56.8548C825.551 64.7641 822.226 71.6533 818.701 77.8138C804.088 103.264 781.129 120.421 758.275 136.902C756.765 134.994 755.824 132.834 754.5 130.357C753.983 129.39 753.281 128.264 752.618 127.032C752.102 126.091 750.989 124.514 750.949 123.6C750.896 122.395 752.632 119.851 753.387 118.5C766.595 94.5863 779.976 69.3481 793.185 45.8851C796.285 45.6997 800.154 45.6997 803.28 45.8851C803.903 48.1374 804.115 50.6148 804.393 53.0923C804.923 58.0074 805.387 63.1478 805.943 68.169C806.208 70.6199 806.023 73.1769 807.056 75.2701C809.64 74.7004 811.282 72.1965 812.819 70.1695C817.469 63.956 821.192 56.0334 822.239 46.4416C823.789 32.1598 815.88 23.1376 804.274 20.8324C797.345 19.4413 790.337 20.3952 784.428 21.826C772.319 24.7672 763.032 29.3511 753.493 35.0215C750.035 37.075 746.67 39.0887 743.292 41.4469C742.245 42.1888 740.92 43.5004 739.966 43.5534C739.026 43.6064 737.687 42.7983 736.535 42.3346C733.262 41.0627 729.42 40.1883 724.889 40.1221C718.676 40.0294 713.84 41.7251 709.256 42.785C709.919 41.1952 711.628 40.4401 712.913 39.4597C722.001 32.6102 732.428 26.3967 743.517 21.3888C756.381 15.586 770.345 10.8961 787.859 10.0747C807.533 9.14732 821.802 16.8976 827.101 30.9144H827.127Z" fill="#61116A"/>
<path d="M812.593 136.57C812.964 140.73 813.719 144.917 813.375 148.653C812.408 149.17 810.659 148.984 808.725 148.984C807.095 148.984 804.936 149.223 804.075 148.653C803.452 148.242 802.591 146.162 802.074 145.102C798.325 137.644 795.013 130.86 791.104 123.481C790.455 122.302 789.329 120.54 789.435 119.705C789.581 118.579 791.263 118.208 791.767 117.374C797.53 112.313 802.776 106.735 807.956 101.078C809.255 99.9519 809.281 102.217 809.401 103.184C810.513 114.379 811.6 125.455 812.62 136.557L812.593 136.57Z" fill="#61116A"/>
<path d="M757.387 145.01C757.917 145.937 758.659 146.97 758.606 148.11C757.798 149.276 755.559 148.891 753.837 148.891C751.995 148.891 749.889 149.17 748.405 148.785C747.464 148.547 746.033 147.235 744.974 146.348C733.275 136.782 721.577 127.217 709.826 117.85C705.48 114.393 701.068 111.16 697.081 107.424C696.882 105.41 696.895 102.681 697.081 100.667C706.5 98.1501 713.919 93.8444 720.252 87.9223C723.246 85.1137 725.909 81.8943 728.241 77.9463C730.4 74.25 732.745 69.8117 732.348 64.0884C731.738 55.7949 725.22 51.6747 716.384 51.6747C709.534 51.6747 704.592 54.0726 699.532 56.1129C697.955 56.7356 696.127 58.0737 694.206 57.2258C694.63 56.1129 695.796 55.3842 696.749 54.6821C703.175 49.9921 711.932 45.2095 722.253 44.5868C739.118 43.5931 748.749 54.1786 750.299 68.7519C752.114 85.9218 743.649 97.3684 733.116 103.237C741.105 117.321 749.213 131.086 757.401 145.036L757.387 145.01Z" fill="#98002E"/>
<path d="M734.322 144.559C735.355 145.407 736.336 146.096 736.985 147.103C729.977 150.137 722.438 152.204 714.145 153.648C705.679 155.105 696.074 155.569 687.317 153.979C671.366 151.091 659.601 141.843 658.157 124.382C657.402 115.347 659.469 106.603 662.264 99.5413C665.086 92.3342 668.769 86.2929 672.902 80.808C681.222 69.7589 691.265 59.7431 708.607 57.7426C713.628 57.1729 718.119 58.299 721.14 60.6307C721.802 61.1474 723.578 62.4192 723.472 63.2936C723.366 64.0885 720.703 65.2677 719.815 65.8373C711.204 71.4414 702.764 78.1186 695.756 84.7958C689.529 90.9298 683.713 97.2096 679.01 104.973C674.704 112.074 669.922 123.879 674.572 133.351C680.454 145.341 698.406 148.136 715.92 145.553C719.696 144.997 723.737 144.294 727.565 143.341C728.837 143.023 730.268 142.36 731.222 142.453C732.255 142.559 733.501 143.87 734.322 144.559Z" fill="#61116A"/>
<path d="M822.411 138.107C823.392 138.107 824.359 138.359 825.286 138.863C826.227 139.366 826.955 140.095 827.472 141.022C827.989 141.963 828.254 142.943 828.254 143.963C828.254 144.983 828.002 145.937 827.485 146.878C826.969 147.805 826.253 148.534 825.326 149.051C824.398 149.567 823.431 149.819 822.411 149.819C821.391 149.819 820.424 149.567 819.497 149.051C818.569 148.534 817.84 147.818 817.324 146.878C816.807 145.95 816.542 144.97 816.542 143.963C816.542 142.956 816.807 141.963 817.324 141.022C817.84 140.081 818.582 139.366 819.523 138.863C820.464 138.359 821.418 138.107 822.398 138.107H822.411ZM822.411 139.074C821.59 139.074 820.782 139.286 820.013 139.71C819.232 140.134 818.622 140.731 818.185 141.525C817.748 142.307 817.523 143.129 817.523 143.976C817.523 144.824 817.734 145.632 818.172 146.401C818.609 147.169 819.205 147.779 819.987 148.216C820.768 148.653 821.577 148.865 822.411 148.865C823.246 148.865 824.067 148.653 824.836 148.216C825.617 147.779 826.213 147.183 826.651 146.401C827.088 145.619 827.3 144.824 827.3 143.976C827.3 143.129 827.088 142.307 826.637 141.525C826.187 140.744 825.591 140.134 824.809 139.71C824.028 139.286 823.233 139.074 822.411 139.074ZM819.841 147.209V140.903H822.001C822.742 140.903 823.272 140.956 823.604 141.075C823.935 141.194 824.2 141.393 824.398 141.684C824.597 141.976 824.69 142.281 824.69 142.612C824.69 143.076 824.531 143.473 824.2 143.817C823.869 144.162 823.431 144.347 822.888 144.387C823.113 144.48 823.286 144.586 823.418 144.718C823.67 144.97 823.988 145.381 824.345 145.964L825.114 147.196H823.869L823.312 146.202C822.875 145.42 822.517 144.93 822.252 144.732C822.067 144.586 821.789 144.52 821.431 144.52H820.835V147.196H819.815L819.841 147.209ZM820.861 143.658H822.093C822.689 143.658 823.087 143.566 823.299 143.393C823.511 143.221 823.617 142.983 823.617 142.691C823.617 142.506 823.564 142.334 823.458 142.188C823.352 142.042 823.206 141.936 823.021 141.857C822.835 141.79 822.491 141.751 822.001 141.751H820.848V143.658H820.861Z" fill="#61116A"/>
<path d="M869.972 76.8335C867.667 76.8732 865.362 76.9527 863.057 77.1117L862.779 76.8732C861.268 72.3025 860.394 69.5601 859.122 65.983C858.446 66.0228 857.771 66.0228 857.095 66.0228C856.221 69.5204 855.505 73.2167 854.869 76.754L854.591 76.9527C852.842 76.9527 847.914 77.0719 847.914 77.0719L847.715 76.8335C848.868 72.0641 852.922 56.1262 853.876 49.1311L854.114 48.9323C856.062 48.9323 861.228 48.8528 864.368 48.8528C868.939 48.8528 872.914 50.3234 872.914 55.8083C872.914 60.1802 870.29 63.6778 865.402 64.8304C868.82 73.2962 869.495 74.8462 870.171 76.5155L869.972 76.8335ZM859.758 61.4521C863.057 61.4521 865.958 59.9815 865.958 56.4839C865.958 53.9005 863.891 53.5825 861.825 53.5825C861.586 53.5825 861.228 53.6223 860.036 53.6223C859.837 54.4172 859.599 55.2121 858.168 61.4521H859.758Z" fill="#98002E"/>
<path d="M886.069 55.4506C888.573 55.4506 895.171 56.4839 895.171 63.9958C895.171 71.9051 890.759 77.4694 883.009 77.4694C875.258 77.4694 873.51 72.5013 873.51 68.805C873.51 66.1818 874.583 55.4506 886.069 55.4506ZM883.128 73.2564C887.341 73.2564 888.573 65.983 888.573 63.1214C888.573 61.7701 888.176 59.6636 885.592 59.6636C880.823 59.6636 880.147 68.487 880.147 69.7191C880.147 72.4218 881.618 73.2564 883.128 73.2564Z" fill="#98002E"/>
<path d="M895.251 76.754C895.847 74.25 896.403 72.223 896.92 69.9178L898.828 61.6508C899.98 56.6826 901.173 51.794 901.928 46.7463L902.246 46.4681C904.511 46.1104 906.777 45.7129 909.042 45.3155L909.241 45.5937C908.923 47.0245 908.565 48.3759 908.208 49.767L906.34 57.1993C907.055 56.7224 909.002 55.4505 911.586 55.4505C916.832 55.4505 918.263 60.1007 918.263 63.2406C918.263 67.1754 916.435 71.5871 913.335 74.091C909.837 76.9129 905.704 76.9924 901.491 76.9924H898.708C897.635 76.9924 896.562 76.9924 895.489 77.0322L895.251 76.754ZM903.716 72.6602C904.869 72.6602 906.896 72.541 908.645 70.8319C910.314 69.2024 911.467 66.3407 911.467 63.9957C911.467 60.9751 909.797 60.1405 908.367 60.1405C906.936 60.1405 905.863 60.9354 905.425 61.2136L902.802 72.6602H903.716Z" fill="#98002E"/>
<path d="M932.491 55.4506C934.995 55.4506 941.593 56.4839 941.593 63.9958C941.593 71.9051 937.181 77.4694 929.431 77.4694C921.68 77.4694 919.932 72.5013 919.932 68.805C919.932 66.1818 921.005 55.4506 932.491 55.4506ZM929.55 73.2564C933.763 73.2564 934.995 65.983 934.995 63.1214C934.995 61.7701 934.597 59.6636 932.014 59.6636C927.245 59.6636 926.569 68.487 926.569 69.7191C926.569 72.4218 928.04 73.2564 929.55 73.2564Z" fill="#98002E"/>
<path d="M953.954 76.9527C952.285 77.3502 950.854 77.3899 950.297 77.3899C945.766 77.3899 944.336 75.4424 944.336 72.7397C944.336 71.2294 944.773 69.3614 945.647 65.8638L946.999 60.379H946.561C945.687 60.379 945.051 60.4187 944.216 60.4584L943.978 60.1802C944.415 58.7097 944.693 57.6365 945.091 56.166L945.369 55.9275H948.032C948.469 54.0595 948.787 52.7479 949.145 50.8401L949.423 50.5619C951.847 50.0055 953.557 49.5683 955.941 48.8528L956.18 49.1311C955.862 50.2439 955.663 51.2376 954.431 56.0467C955.941 56.007 957.014 56.007 958.525 55.9275L958.684 56.2455C958.167 57.6763 957.809 58.7097 957.452 60.22L957.094 60.4584C955.742 60.4187 954.789 60.4187 953.437 60.4187L951.768 67.3741C951.371 69.0434 951.013 70.5537 951.013 71.1499C951.013 71.8653 951.45 72.7795 953 72.7795C954.033 72.7795 954.749 72.4615 955.186 72.3025L955.425 72.5013C954.948 74.0513 954.669 75.1244 954.232 76.6347L953.954 76.9527Z" fill="#98002E"/>
<path d="M966.394 66.8574L965.758 69.7985C965.281 72.1037 964.883 74.409 964.486 76.7539L964.208 76.9527C961.902 76.9527 959.597 76.9924 957.332 77.1116L957.133 76.8334C958.047 73.3358 958.922 69.7588 959.716 66.1817L960.154 64.2342C960.71 61.77 961.227 59.266 961.505 56.8018L961.783 56.5236C964.128 56.2057 966.473 55.8479 968.778 55.4107L969.017 55.7287C968.103 59.3058 967.189 63.1213 966.394 66.8574ZM971.004 46.3488C970.646 48.1374 970.169 49.8862 969.732 51.6349L969.414 51.9529C967.268 52.2311 965.122 52.5491 962.936 52.8671L962.697 52.5491C963.095 50.8003 963.492 49.0118 963.85 47.2232L964.208 46.945C966.354 46.6668 968.818 46.3091 970.766 46.0706L971.004 46.3488Z" fill="#98002E"/>
<path d="M984.28 76.4758C983.247 76.913 981.657 77.4694 979.272 77.4694C973.35 77.4694 969.813 73.7731 969.813 68.2088C969.813 62.6444 972.794 58.8686 975.695 57.1199C978.477 55.4506 981.578 55.4506 982.333 55.4506C984.121 55.4506 986.585 55.848 988.334 57.0801L988.414 57.3981C987.857 59.0276 987.5 60.22 987.062 61.929L986.665 62.0085C985.314 60.1008 983.128 60.1008 982.849 60.1008C978.438 60.1008 976.649 64.6317 976.649 67.6921C976.649 70.355 978 72.7397 981.18 72.7397C983.287 72.7397 984.479 71.8653 985.433 71.1499L985.791 71.3486C985.274 73.1372 984.956 74.409 984.519 76.1976L984.28 76.4758Z" fill="#98002E"/>
<path d="M988.851 70.7922C990.56 72.7397 992.627 73.3757 994.415 73.3757C996.522 73.3757 997.794 72.4218 997.794 71.0704C997.794 69.9576 997.118 69.4806 995.091 68.4473L994.216 68.0101C992.786 67.2946 990.083 65.983 990.083 62.6047C990.083 59.2264 992.547 55.4506 999.185 55.4506C1002.48 55.4506 1004.47 56.2852 1005.94 57.0404L1006.14 57.3981C1005.62 58.9481 1005.31 60.061 1004.91 61.6508L1004.55 61.7303C1002.64 59.4648 1000.46 59.4251 999.821 59.4251C997.913 59.4251 996.681 60.2597 996.681 61.4521C996.681 62.3662 997.436 62.9624 999.105 63.7573L1000.02 64.1945C1001.57 64.9497 1004.59 66.3805 1004.59 70.1165C1004.59 73.8526 1001.69 77.5092 994.972 77.5092C991.315 77.5092 988.97 76.5155 987.38 75.5219L987.261 75.1642C987.778 73.6141 988.056 72.5013 988.493 70.9114L988.851 70.7922Z" fill="#98002E"/>
<path d="M1041.63 66.3407C1040.24 68.1292 1038.53 69.7588 1036.66 71.5473C1037.74 73.2564 1038.81 74.9654 1039.92 76.6745L1039.8 77.0322H1037.5C1035.11 77.0322 1034.36 77.0322 1032.77 77.1117L1032.45 76.8732C1032.17 76.2373 1031.82 75.6808 1031.46 75.1244C1029.03 76.7142 1026.77 77.5091 1024.06 77.5091C1019.41 77.5091 1016.23 74.6872 1016.23 70.5537C1016.23 68.6062 1017.07 66.6189 1018.46 65.2278C1019.57 64.115 1020.77 63.3996 1024.02 61.8495C1022.87 59.743 1022.47 58.3122 1022.47 56.4839C1022.47 52.3901 1025.65 49.608 1030.42 49.608C1034.84 49.608 1037.7 51.8337 1037.7 55.2915C1037.7 58.4712 1035.59 60.3392 1031.46 62.7239C1032.37 64.3932 1033.29 66.0227 1034.28 67.5728C1037.34 64.3137 1037.54 64.0355 1038.73 61.8495H1039.13C1039.88 63.2803 1040.8 64.6317 1041.67 66.0227L1041.63 66.3407ZM1026.33 66.1022C1023.71 67.4933 1022.87 68.4472 1022.87 69.9973C1022.87 71.5473 1023.99 72.6205 1025.61 72.6205C1026.73 72.6205 1027.72 72.223 1029.23 71.1896C1028.32 69.4806 1027.28 67.8113 1026.33 66.1022ZM1030.62 53.4235C1029.39 53.4235 1028.36 54.4569 1028.36 55.7287C1028.36 56.6429 1028.6 57.3185 1029.47 59.0673C1031.93 57.5173 1032.69 56.7224 1032.69 55.4108C1032.69 54.2582 1031.82 53.4235 1030.62 53.4235Z" fill="#98002E"/>
<path d="M861.268 40.3738H860.234C859.042 40.3738 858.168 40.4136 856.975 40.4533L856.777 40.1751C858.009 35.1672 862.142 17.2421 862.937 12.5522L863.176 12.3137H864.328C865.52 12.3137 866.395 12.3137 867.587 12.2342L867.746 12.4727C866.435 17.719 863.295 30.8747 861.586 40.1751L861.268 40.3738Z" fill="#98002E"/>
<path d="M884.519 40.4135H876.252C873.589 40.4135 871.761 40.4135 869.098 40.493L868.542 40.5327L868.343 40.2545C871.046 29.6823 873.311 18.3549 874.543 12.5521L874.822 12.2739H875.179C876.332 12.2739 878.2 12.3136 879.949 12.3136H884.559C886.745 12.3136 888.931 12.2341 890.402 12.2341L890.64 12.4726C890.282 13.5457 890.084 14.3009 889.806 15.4138L889.488 15.6522C887.063 15.6522 883.725 15.533 880.346 15.533C879.67 15.533 878.399 15.5727 878.399 15.5727L876.451 24.2372C884.4 24.1974 885.593 24.118 887.302 24.118L887.461 24.3962C887.143 25.4295 886.944 26.145 886.666 27.1783L886.308 27.4565C884.917 27.4168 878.836 27.4168 875.775 27.4168C875.14 30.199 874.504 33.0209 873.629 37.0351C875.299 37.0351 884.48 36.8762 885.553 36.8762L885.752 37.0749C885.394 38.2275 885.116 39.0224 884.798 40.175L884.519 40.4135Z" fill="#98002E"/>
<path d="M906.062 40.4135H897.794C895.132 40.4135 893.303 40.4135 890.64 40.493L890.084 40.5327L889.885 40.2545C892.588 29.6823 894.853 18.3549 896.085 12.5521L896.364 12.2739H896.721C897.874 12.2739 899.742 12.3136 901.491 12.3136H906.101C908.287 12.3136 910.473 12.2341 911.944 12.2341L912.182 12.4726C911.825 13.5457 911.626 14.3009 911.348 15.4138L911.03 15.6522C908.605 15.6522 905.267 15.533 901.888 15.533C901.213 15.533 899.941 15.5727 899.941 15.5727L897.993 24.2372C905.942 24.1974 907.135 24.118 908.844 24.118L909.003 24.3962C908.685 25.4295 908.486 26.145 908.208 27.1783L907.85 27.4565C906.459 27.4168 900.378 27.4168 897.318 27.4168C896.682 30.199 896.046 33.0209 895.171 37.0351C896.841 37.0351 906.022 36.8762 907.095 36.8762L907.294 37.0749C906.936 38.2275 906.658 39.0224 906.34 40.175L906.062 40.4135Z" fill="#98002E"/>
<path d="M927.603 40.4135H919.336C916.673 40.4135 914.844 40.4135 912.181 40.493L911.625 40.5327L911.426 40.2545C914.129 29.6823 916.394 18.3549 917.627 12.5521L917.905 12.2739H918.262C919.415 12.2739 921.283 12.3136 923.032 12.3136H927.642C929.828 12.3136 932.014 12.2341 933.485 12.2341L933.723 12.4726C933.366 13.5457 933.167 14.3009 932.889 15.4138L932.571 15.6522C930.146 15.6522 926.808 15.533 923.429 15.533C922.754 15.533 921.482 15.5727 921.482 15.5727L919.534 24.2372C927.483 24.1974 928.676 24.118 930.385 24.118L930.544 24.3962C930.226 25.4295 930.027 26.145 929.749 27.1783L929.391 27.4565C928 27.4168 921.919 27.4168 918.859 27.4168C918.223 30.199 917.587 33.0209 916.712 37.0351C918.382 37.0351 927.563 36.8762 928.636 36.8762L928.835 37.0749C928.477 38.2275 928.199 39.0224 927.881 40.175L927.603 40.4135Z" fill="#98002E"/>
<path d="M839.501 143.579C839.939 144.413 842.323 146.639 846.139 146.639C850.789 146.639 852.776 143.976 852.776 141.552C852.776 139.127 851.226 137.935 848.285 136.425L846.974 135.749C844.39 134.437 841.846 132.927 841.846 128.913C841.846 124.898 844.589 120.566 852.021 120.566C855.717 120.566 858.102 121.679 859.692 122.752L859.811 123.07C859.414 124.263 859.096 125.137 858.738 126.369L858.38 126.449C856.87 124.501 854.008 123.825 852.299 123.825C848.166 123.825 846.338 126.131 846.338 128.476C846.338 130.622 847.609 131.496 850.829 133.165L851.981 133.762C854.565 135.113 857.347 137.021 857.347 141.035C857.347 145.049 854.287 149.978 846.616 149.978C842.761 149.978 839.621 148.785 838.309 147.513L838.19 147.156C838.587 145.884 838.786 144.97 839.104 143.658L839.501 143.579Z" fill="#98002E"/>
<path d="M872.013 128.197C876.942 128.197 880.519 130.701 880.519 135.987C880.519 140.161 878.611 149.779 869.231 149.779C866.727 149.779 860.964 149.183 860.964 141.83C860.964 135.391 864.462 128.197 872.013 128.197ZM869.311 146.838C875.312 146.838 876.306 137.14 876.306 135.789C876.306 131.933 873.961 131.099 872.172 131.099C866.688 131.099 865.177 139.246 865.177 142.108C865.177 144.652 866.37 146.838 869.311 146.838Z" fill="#98002E"/>
<path d="M896.773 148.666C895.382 149.461 893.037 149.779 891.646 149.779C886.519 149.779 882.982 145.924 882.982 140.876C882.982 137.577 884.412 132.45 888.784 129.787C891.09 128.396 893.514 128.197 894.587 128.197C897.369 128.197 899.555 128.873 900.748 129.787L900.867 130.065C900.43 131.218 900.191 132.053 899.873 133.205L899.476 133.324C898.84 132.251 897.091 131.337 894.985 131.337C890.016 131.337 887.314 136.584 887.314 140.558C887.314 145.208 890.931 146.56 892.838 146.56C893.514 146.56 895.581 146.48 897.687 144.652L898.005 144.811C897.568 146.122 897.33 147.037 897.012 148.388L896.773 148.666Z" fill="#98002E"/>
<path d="M904.485 149.262C902.935 149.262 901.822 149.302 900.272 149.382L900.073 149.143C901.345 144.533 904.167 131.417 904.366 129.27L904.644 128.992C906.273 128.794 907.386 128.635 908.976 128.356L909.175 128.635C908.976 128.595 905.677 143.738 904.763 149.064L904.485 149.262ZM910.169 123.07C908.618 123.269 907.545 123.388 905.995 123.627L905.757 123.309C906.075 121.957 906.313 121.003 906.591 119.652L906.949 119.374C908.499 119.175 909.572 119.056 911.083 118.818L911.401 119.096C911.043 120.407 910.804 121.401 910.486 122.752L910.169 123.07Z" fill="#98002E"/>
<path d="M926.901 148.189C925.55 148.984 923.483 149.779 920.423 149.779C913.627 149.779 911.202 145.725 911.202 141.154C911.202 134.199 915.455 128.197 922.331 128.197C927.021 128.197 930.359 130.344 930.359 135.63C930.359 137.259 930.002 138.65 929.882 139.246L929.604 139.445C927.537 139.445 923.762 139.405 920.304 139.405C918.515 139.405 917.204 139.405 915.415 139.485C915.375 139.723 915.296 140.439 915.296 141.194C915.296 146.401 919.827 146.52 921.258 146.52C924.557 146.52 926.266 145.248 927.816 144.135L928.134 144.334C927.696 145.645 927.418 146.56 927.1 147.911L926.901 148.189ZM926.385 136.623C926.544 135.709 926.584 135.312 926.584 134.875C926.504 131.258 923.523 130.979 922.49 130.979C917.919 130.979 916.369 135.192 915.932 136.663C915.932 136.663 923.841 136.623 926.385 136.623Z" fill="#98002E"/>
<path d="M940.334 149.223C939.022 149.541 937.989 149.58 937.472 149.58C933.696 149.58 932.743 147.633 932.743 145.645C932.743 144.135 933.577 140.638 934.73 135.828L935.723 131.695H934.928C934.173 131.695 933.617 131.695 932.862 131.735L932.663 131.456C932.941 130.542 933.14 129.827 933.378 128.833L933.657 128.635C934.69 128.674 935.366 128.674 936.399 128.674C936.876 126.846 937.114 125.534 937.472 123.706L937.75 123.428C939.3 123.11 940.374 122.832 941.884 122.434L942.083 122.673C941.765 123.746 941.566 124.541 941.288 125.614L940.533 128.674C942.162 128.674 943.275 128.674 944.865 128.595L945.064 128.873C944.706 129.827 944.507 130.542 944.229 131.496L943.951 131.735C942.44 131.695 941.367 131.695 939.857 131.695L937.711 140.677C937.512 141.472 936.955 143.936 936.955 144.731C936.955 146.003 937.87 146.44 938.903 146.44C939.936 146.44 940.89 146.043 941.248 145.924L941.447 146.122C941.129 147.156 940.89 147.871 940.612 148.905L940.334 149.223Z" fill="#98002E"/>
<path d="M964.54 128.913C959.77 136.623 948.602 155.343 947.092 158.722L946.774 158.96H944.985C944.19 158.96 943.435 158.96 942.64 159L942.521 158.722C943.674 156.973 947.608 150.892 948.562 149.143C947.052 139.247 945.581 129.43 945.383 128.953L945.661 128.674C947.171 128.674 948.244 128.595 949.794 128.476L950.112 128.674C950.311 130.86 950.43 132.41 950.708 134.557L951.861 143.937L955.716 137.1C957.227 134.437 958.737 131.735 960.168 128.873L960.486 128.635C960.923 128.674 961.36 128.674 961.797 128.674C962.751 128.674 963.427 128.635 964.341 128.595L964.54 128.913Z" fill="#98002E"/>
<path d="M866.674 113.227C864.17 113.227 862.381 113.267 859.877 113.386L859.639 113.108C859.639 111.518 859.639 110.365 859.44 105.795H858.565C857.771 105.795 855.982 105.755 854.472 105.755H851.093C848.987 110.167 848.391 111.319 847.636 112.989L847.357 113.227H845.768C843.979 113.227 842.747 113.267 840.998 113.346L840.839 112.909C844.853 105.834 851.888 92.5197 855.585 85.4053L855.903 85.2066C859.082 85.1668 861.348 85.1271 864.527 85.0476L864.726 85.2861C865.402 95.2224 865.998 102.973 866.912 113.028L866.674 113.227ZM853.399 100.985C854.154 101.025 854.71 101.025 855.465 101.025H856.419C857.492 101.025 858.605 101.025 859.321 100.985C859.122 93.1556 859.003 89.6581 859.003 89.6581L853.399 100.985Z" fill="#98002E"/>
<path d="M888.135 113.227C885.83 113.227 884.2 113.306 881.935 113.386L881.736 113.108L882.213 111.12C881.18 112.233 878.596 113.704 876.013 113.704C874.502 113.704 870.448 113.147 870.448 108.378C870.448 106.868 871.005 104.443 871.402 102.734L872.316 98.7993C872.833 96.5339 873.231 94.9441 873.588 92.6388L873.867 92.4004C876.212 92.3209 877.841 92.2414 880.146 92.0824L880.385 92.4004C878.914 98.7198 877.324 104.562 877.324 106.391C877.324 107.225 877.603 108.696 879.669 108.696C881.219 108.696 882.531 107.702 883.048 107.305L884.717 99.5942C885.194 97.3288 885.671 94.9838 886.108 92.6388L886.426 92.4004C888.771 92.3209 890.44 92.2414 892.825 92.0824L893.024 92.4004C892.07 96.2159 891.394 99.0378 890.52 102.973L889.645 106.947C889.168 109.173 888.811 110.723 888.413 112.988L888.135 113.227Z" fill="#98002E"/>
<path d="M904.233 113.227C902.564 113.624 901.133 113.664 900.577 113.664C896.046 113.664 894.615 111.717 894.615 109.014C894.615 107.504 895.052 105.635 895.927 102.138L897.278 96.6531H896.841C895.966 96.6531 895.33 96.6928 894.496 96.7326L894.257 96.4543C894.694 94.9838 894.973 93.9106 895.37 92.4401L895.648 92.2016H898.311C898.749 90.3336 899.066 89.022 899.424 87.1142L899.702 86.836C902.127 86.2796 903.836 85.8424 906.221 85.127L906.459 85.4052C906.141 86.518 905.942 87.5117 904.71 92.3208C906.221 92.2811 907.294 92.2811 908.804 92.2016L908.963 92.5196C908.446 93.9504 908.089 94.9838 907.731 96.4941L907.373 96.7326C906.022 96.6928 905.068 96.6928 903.717 96.6928L902.047 103.648C901.65 105.318 901.292 106.828 901.292 107.424C901.292 108.139 901.729 109.054 903.279 109.054C904.313 109.054 905.028 108.736 905.465 108.577L905.704 108.775C905.227 110.325 904.949 111.399 904.512 112.909L904.233 113.227Z" fill="#98002E"/>
<path d="M920.847 91.7247C923.351 91.7247 929.949 92.7581 929.949 100.27C929.949 108.179 925.537 113.744 917.787 113.744C910.036 113.744 908.287 108.775 908.287 105.079C908.287 102.456 909.361 91.7247 920.847 91.7247ZM917.906 109.531C922.119 109.531 923.351 102.257 923.351 99.3955C923.351 98.0442 922.953 95.9377 920.37 95.9377C915.601 95.9377 914.925 104.761 914.925 105.993C914.925 108.696 916.395 109.531 917.906 109.531Z" fill="#98002E"/>
<path d="M961.665 113.227C959.479 113.227 957.333 113.306 955.187 113.386L954.988 113.108C955.505 110.763 958.088 100.787 958.088 98.9187C958.088 98.3623 957.889 96.8122 956.061 96.8122C955.346 96.8122 954.153 97.0109 952.842 98.1238C952.683 100.707 950.497 109.332 949.901 112.988L949.622 113.227C947.476 113.267 945.33 113.306 943.224 113.386L943.025 113.068C943.343 111.359 946.006 101.105 946.006 98.8789C946.006 97.6866 945.409 96.8122 944.018 96.8122C943.343 96.8122 942.23 97.0507 941.077 98.084L939.726 104.046C939.09 106.907 938.375 110.167 937.858 112.988L937.619 113.227C935.433 113.227 933.247 113.306 931.101 113.386L930.902 113.108C932.373 107.583 934.996 95.6993 935.195 93.0364L935.473 92.7979C937.619 92.48 939.964 92.1223 942.15 91.6851L942.389 91.9633L941.872 94.3082C943.661 92.7979 946.006 91.7248 948.351 91.7248C949.781 91.7248 951.61 92.2017 952.603 94.5865C955.425 92.321 957.929 91.7646 959.519 91.7646C960.87 91.7646 965.123 92.0825 965.123 96.8519C965.123 97.4879 964.964 98.6007 964.487 100.787L963.653 104.602C963.056 107.384 962.5 110.206 961.944 112.988L961.665 113.227Z" fill="#98002E"/>
<path d="M985.75 113.227C983.524 113.267 981.974 113.267 979.749 113.386L979.55 113.108L979.828 111.359C978.835 112.392 976.808 113.664 974.105 113.664C969.375 113.664 967.507 109.849 967.507 106.033C967.507 102.217 968.858 99.5943 969.733 98.2032C973.429 92.4004 979.152 92.1619 983.445 92.1619H990.202L990.44 92.4799C987.459 104.92 986.704 108.179 986.028 112.988L985.75 113.227ZM983.008 96.5736C982.65 96.5339 982.412 96.5339 981.776 96.5339C976.291 96.5339 974.423 102.098 974.423 105.159C974.423 108.219 975.893 109.133 977.563 109.133C977.841 109.133 979.311 109.014 980.424 107.901C981.458 104.046 982.094 100.469 983.008 96.5736Z" fill="#98002E"/>
<path d="M1001.69 113.227C1000.02 113.624 998.588 113.664 998.031 113.664C993.5 113.664 992.07 111.717 992.07 109.014C992.07 107.504 992.507 105.635 993.381 102.138L994.733 96.6531H994.295C993.421 96.6531 992.785 96.6928 991.95 96.7326L991.712 96.4543C992.149 94.9838 992.427 93.9106 992.825 92.4401L993.103 92.2016H995.766C996.203 90.3336 996.521 89.022 996.879 87.1142L997.157 86.836C999.581 86.2796 1001.29 85.8424 1003.68 85.127L1003.91 85.4052C1003.6 86.518 1003.4 87.5117 1002.16 92.3208C1003.68 92.2811 1004.75 92.2811 1006.26 92.2016L1006.42 92.5196C1005.9 93.9504 1005.54 94.9838 1005.19 96.4941L1004.83 96.7326C1003.48 96.6928 1002.52 96.6928 1001.17 96.6928L999.502 103.648C999.104 105.318 998.747 106.828 998.747 107.424C998.747 108.139 999.184 109.054 1000.73 109.054C1001.77 109.054 1002.48 108.736 1002.92 108.577L1003.16 108.775C1002.68 110.325 1002.4 111.399 1001.97 112.909L1001.69 113.227Z" fill="#98002E"/>
<path d="M1014.13 103.132L1013.49 106.073C1013.01 108.378 1012.62 110.683 1012.22 113.028L1011.94 113.227C1009.64 113.227 1007.33 113.267 1005.07 113.386L1004.87 113.108C1005.78 109.61 1006.66 106.033 1007.45 102.456L1007.89 100.508C1008.44 98.0442 1008.96 95.5403 1009.24 93.0761L1009.52 92.7978C1011.86 92.4799 1014.21 92.1222 1016.51 91.685L1016.75 92.0029C1015.84 95.58 1014.92 99.3955 1014.13 103.132ZM1018.74 82.6231C1018.38 84.4116 1017.9 86.1604 1017.47 87.9092L1017.15 88.2271C1015 88.5054 1012.86 88.8233 1010.67 89.1413L1010.43 88.8233C1010.83 87.0745 1011.23 85.286 1011.58 83.4975L1011.94 83.2192C1014.09 82.941 1016.55 82.5833 1018.5 82.3448L1018.74 82.6231Z" fill="#98002E"/>
<path d="M1030.31 91.7247C1032.81 91.7247 1039.41 92.7581 1039.41 100.27C1039.41 108.179 1035 113.744 1027.24 113.744C1019.49 113.744 1017.75 108.775 1017.75 105.079C1017.75 102.456 1018.82 91.7247 1030.31 91.7247ZM1027.36 109.531C1031.58 109.531 1032.81 102.257 1032.81 99.3955C1032.81 98.0442 1032.41 95.9377 1029.83 95.9377C1025.06 95.9377 1024.38 104.761 1024.38 105.993C1024.38 108.696 1025.85 109.531 1027.36 109.531Z" fill="#98002E"/>
<path d="M1052.01 91.9234L1051.49 94.1094C1052.2 93.553 1054.67 91.7247 1057.77 91.7247C1059.32 91.7247 1063.09 92.3209 1063.09 96.9711C1063.09 99.3955 1060.27 111.16 1060.07 113.028L1059.8 113.227C1057.61 113.267 1055.46 113.306 1053.32 113.386L1053.16 113.108C1054.07 108.855 1056.06 101.224 1056.06 99.0776C1056.06 97.766 1055.26 96.8121 1053.87 96.8121C1052.72 96.8121 1051.65 97.4083 1050.77 98.0442C1049.66 103.012 1048.15 110.087 1047.63 112.988L1047.36 113.227C1045.17 113.227 1042.98 113.306 1040.8 113.386L1040.64 113.108C1041.35 110.007 1044.53 97.13 1044.77 93.076L1045.09 92.7581C1047.47 92.4401 1049.58 92.0824 1051.77 91.6452L1052.01 91.9234Z" fill="#98002E"/>
</svg>
