<svg width="271" height="38" viewBox="0 0 271 38" fill="none" xmlns="http://www.w3.org/2000/svg">
<path d="M11.888 1.64L11.952 1.736L11.488 3.784L10.816 6.76C10.08 10.04 9.68 11.368 8.544 12.264C7.552 13.064 6.24 13.224 5.104 13.224C3.84 13.224 2.832 13 2.192 12.584C0.784 11.704 0.784 10.264 0.784 9.832C0.784 8.888 1.024 7.816 1.232 6.888L1.936 3.768L2.336 1.8L2.448 1.704L5.824 1.64L5.904 1.736L5.248 4.44L4.672 6.968C4.352 8.44 4.224 9.064 4.224 9.608C4.224 10.552 4.88 10.84 5.44 10.84C6.256 10.84 6.592 10.328 6.72 10.152C7.088 9.608 7.216 9.064 7.84 6.44L8.416 3.928L8.88 1.8L8.976 1.704C10.288 1.704 10.608 1.688 11.888 1.64ZM19.7196 10.92L19.3516 12.904L19.2236 12.984L16.0716 13.048L15.9916 12.936L16.5836 10.328L16.9196 8.76C16.9836 8.456 17.1436 7.672 17.1436 7.416C17.1436 6.888 16.7916 6.68 16.4556 6.68C16.1676 6.68 15.8796 6.824 15.5916 6.968C14.9516 9.88 14.7596 10.824 14.3596 12.888L14.2636 12.984L11.0316 13.048L10.9676 12.936L11.6396 10.152L11.8796 9.144C12.3276 7.064 12.4076 6.568 12.6316 4.824L12.7596 4.696C14.1676 4.52 14.5516 4.456 16.0236 4.168L16.1196 4.28L15.9276 5.176C16.2636 4.936 17.1756 4.248 18.4236 4.248C18.9836 4.248 20.5676 4.456 20.5676 6.344C20.5676 7.16 20.1996 8.744 19.9436 9.832L19.7196 10.92ZM25.1916 8.952L24.9996 9.88C24.6636 11.448 24.6156 11.784 24.4396 12.904L24.3436 12.984L20.9356 13.048L20.8716 12.936C21.4156 10.904 21.5116 10.552 21.9436 8.632L22.1036 7.96C22.4396 6.424 22.4876 6.12 22.6476 4.84L22.7596 4.712C24.3756 4.504 24.7596 4.44 26.1996 4.168L26.2956 4.28L25.1916 8.952ZM27.0636 0.551999L26.4716 3.08L26.3436 3.192L23.1916 3.656L23.0796 3.544L23.6236 0.983999L23.7516 0.872L26.9676 0.44L27.0636 0.551999ZM32.4153 10.424L31.1833 12.888L31.0553 12.984L28.0312 13.048L27.9033 12.952L27.5833 10.04L27.3273 7.8L26.9113 4.616L27.0073 4.472C28.3993 4.456 28.7993 4.424 30.1432 4.328L30.2552 4.44L30.3673 6.712L30.3993 7.512L30.4473 9.72L31.7913 6.664L32.7033 4.536L32.8473 4.44L35.4713 4.392L35.5353 4.536C34.8793 5.688 34.7673 5.88 34.0312 7.32L32.4153 10.424ZM42.8951 10.136L43.0231 10.232C42.9111 10.648 42.7991 11.048 42.6871 11.448C42.5911 11.816 42.5111 12.2 42.4151 12.568L42.3351 12.664C42.1911 12.728 42.0471 12.808 41.8871 12.856C41.5511 12.984 40.6231 13.192 39.6151 13.192C38.4631 13.192 37.5671 12.936 37.0391 12.664C36.4151 12.328 35.8871 11.752 35.5991 11.112C35.2791 10.408 35.2471 9.56 35.2471 9.192C35.2471 6.2 37.2471 4.248 39.9671 4.248C42.1271 4.248 43.6151 5.272 43.6151 7.704C43.6151 8.28 43.5351 8.792 43.4551 9.304L43.3271 9.4C40.7831 9.4 40.2231 9.416 38.2871 9.464C38.3511 10.008 38.4631 10.936 40.2551 10.936C41.5991 10.936 42.2391 10.536 42.8951 10.136ZM38.4791 7.656L40.7991 7.624C40.8311 7.432 40.8631 7.256 40.8631 7.064C40.8631 6.328 40.2871 6.12 39.9031 6.12C39.6791 6.12 39.4551 6.184 39.2471 6.312C38.7191 6.664 38.5751 7.24 38.4791 7.656ZM47.6793 11.528L47.3913 12.888L47.2793 12.984L44.0152 13.048L43.9352 12.936L44.5273 10.6L44.8473 9.288C45.3433 7.24 45.4393 6.792 45.6953 4.824L45.8233 4.712C47.4073 4.488 47.7273 4.44 49.2153 4.168L49.2953 4.28L48.7673 6.296C49.6153 4.488 50.6713 4.248 51.1993 4.248C51.5513 4.248 51.7593 4.344 51.9833 4.456L52.0473 4.616L50.6713 7.768L50.5113 7.8C50.2713 7.576 50.0313 7.352 49.6313 7.352C49.3913 7.352 49.1353 7.448 48.9273 7.608C48.4633 7.96 48.3513 8.376 48.0312 9.864L47.6793 11.528ZM51.0156 12.392L50.9836 12.232L51.5596 10.216L51.7036 10.168C51.9596 10.456 52.6316 11.24 53.8956 11.24C54.3916 11.24 55.0156 11.08 55.0156 10.584C55.0156 10.152 54.6316 9.96 54.0236 9.656L53.6876 9.48C52.9516 9.08 52.0876 8.6 52.0876 7.272C52.0876 6.552 52.3756 5.864 52.8716 5.32C53.4476 4.696 54.4396 4.248 55.9596 4.248C57.2556 4.248 57.9436 4.536 58.8076 4.904L58.8876 5.048C58.6156 5.912 58.5516 6.168 58.3276 7.064L58.1676 7.096C58.0396 6.936 57.9116 6.776 57.7516 6.632C57.3836 6.328 56.7916 6.12 56.2796 6.12C55.4956 6.12 55.3036 6.488 55.3036 6.696C55.3036 7.048 55.7196 7.256 56.1196 7.448L56.4396 7.608C57.3516 8.088 58.3276 8.632 58.3276 10.104C58.3276 11.048 57.8796 11.656 57.6076 11.96C56.5356 13.16 54.9356 13.192 54.2476 13.192C52.4236 13.192 51.5436 12.696 51.0156 12.392ZM63.1916 8.952L62.9996 9.88C62.6636 11.448 62.6156 11.784 62.4396 12.904L62.3436 12.984L58.9356 13.048L58.8716 12.936C59.4156 10.904 59.5116 10.552 59.9436 8.632L60.1036 7.96C60.4396 6.424 60.4876 6.12 60.6476 4.84L60.7596 4.712C62.3756 4.504 62.7596 4.44 64.1996 4.168L64.2956 4.28L63.1916 8.952ZM65.0636 0.551999L64.4716 3.08L64.3436 3.192L61.1916 3.656L61.0796 3.544L61.6236 0.983999L61.7516 0.872L64.9676 0.44L65.0636 0.551999ZM74.5753 2.968L73.5353 7.224C72.9113 9.848 72.7833 10.456 72.3673 12.888L72.2552 12.984L69.3113 13.048L69.2313 12.952L69.3593 12.216C68.9273 12.584 68.2233 13.192 67.0393 13.192C66.5433 13.192 65.9993 13.064 65.5513 12.744C65.0233 12.376 64.3833 11.672 64.3833 9.976C64.3833 8.504 64.9753 7.176 65.5033 6.424C66.9913 4.328 69.1673 4.376 71.0553 4.424L71.4233 2.744L71.7913 0.919999L71.9033 0.808L75.1513 0.231999L75.2473 0.36L74.5753 2.968ZM69.6153 10.648L70.5433 6.504C69.9993 6.488 69.3593 6.472 68.7993 6.952C68.1273 7.512 67.7753 8.744 67.7753 9.688C67.7753 10.584 68.2073 10.984 68.7352 10.984C69.0713 10.984 69.3433 10.824 69.6153 10.648ZM84.2233 4.536L83.4873 7.56C83.2153 8.68 82.9433 9.816 82.7353 10.936C82.6073 11.576 82.4953 12.232 82.3993 12.888L82.3033 12.984L79.3433 13.048L79.2633 12.952L79.3913 12.216C78.7513 12.856 77.8873 13.176 76.9913 13.176C76.2393 13.176 75.7433 12.888 75.4873 12.696C74.4313 11.896 74.3993 10.52 74.3993 10.024C74.3993 8.072 75.3433 6.648 76.0473 5.96C77.5993 4.44 79.5993 4.424 81.0873 4.408H84.1273L84.2233 4.536ZM79.6313 10.696L80.6073 6.504C80.1113 6.488 79.4553 6.472 78.8793 6.952C78.4313 7.336 77.7913 8.312 77.7913 9.736C77.7913 10.552 78.1593 11.032 78.7993 11.032C79.1513 11.032 79.3913 10.872 79.6313 10.696ZM94.5753 2.968L93.5353 7.224C92.9113 9.848 92.7833 10.456 92.3673 12.888L92.2552 12.984L89.3113 13.048L89.2313 12.952L89.3593 12.216C88.9273 12.584 88.2233 13.192 87.0393 13.192C86.5433 13.192 85.9993 13.064 85.5513 12.744C85.0233 12.376 84.3833 11.672 84.3833 9.976C84.3833 8.504 84.9753 7.176 85.5033 6.424C86.9913 4.328 89.1673 4.376 91.0553 4.424L91.4233 2.744L91.7913 0.919999L91.9033 0.808L95.1513 0.231999L95.2473 0.36L94.5753 2.968ZM89.6153 10.648L90.5433 6.504C89.9993 6.488 89.3593 6.472 88.7993 6.952C88.1273 7.512 87.7753 8.744 87.7753 9.688C87.7753 10.584 88.2073 10.984 88.7352 10.984C89.0713 10.984 89.3433 10.824 89.6153 10.648ZM107.951 1.64L108.047 1.736C108.319 6.136 108.383 7.176 108.815 12.888L108.735 12.984L105.375 13.048L105.295 12.952V11.304L105.279 10.232H102.287L101.055 12.888L100.943 13C99.5191 12.984 99.1511 13 97.8551 13.048L97.7911 12.856C98.4311 11.736 99.1191 10.424 99.7751 9.208L101.663 5.672C102.671 3.736 102.991 3.128 103.663 1.8L103.791 1.704L107.951 1.64ZM105.279 3.896L103.375 7.944H105.279V3.896ZM118.471 10.472L117.959 12.888L117.847 12.984L114.807 13.048L114.727 12.952L114.919 12.136C114.535 12.488 114.375 12.616 113.943 12.808C113.287 13.112 112.807 13.192 112.423 13.192C111.511 13.192 110.231 12.728 110.231 11.08C110.231 10.472 110.375 9.896 110.615 8.856L110.983 7.288C111.255 6.104 111.335 5.768 111.527 4.632L111.639 4.536L114.743 4.376L114.855 4.504C114.599 5.576 114.359 6.648 114.087 7.704C113.815 8.792 113.639 9.528 113.639 9.96C113.639 10.632 114.087 10.76 114.391 10.76C114.823 10.76 115.079 10.568 115.303 10.424L116.007 7.112L116.519 4.632L116.631 4.536C117.895 4.488 118.263 4.488 119.783 4.376L119.863 4.504L118.823 8.968L118.471 10.472ZM125.367 10.904L124.807 12.888L124.679 13C124.055 13.128 123.623 13.208 122.983 13.208C122.423 13.208 120.311 13.208 120.311 11.304C120.311 10.664 120.599 9.512 120.775 8.776L121.335 6.568L120.279 6.6L120.167 6.472L120.711 4.536L120.839 4.44H121.831L122.311 2.344L122.423 2.232C123.863 1.896 124.231 1.784 125.591 1.4L125.687 1.496L125.335 2.904L124.951 4.488L126.519 4.456L126.583 4.568C126.279 5.432 126.231 5.624 125.991 6.488L125.847 6.6L124.471 6.568L123.911 8.904C123.831 9.224 123.751 9.56 123.687 9.88C123.655 10.04 123.623 10.184 123.623 10.344C123.623 10.888 124.071 11 124.375 11C124.791 11 125.015 10.904 125.255 10.808L125.367 10.904ZM134.871 9.432C134.695 10.136 134.407 10.808 134.135 11.224C132.887 13.16 130.743 13.208 130.007 13.208C127.623 13.208 126.167 12.024 126.167 9.64C126.167 8.36 126.631 6.808 127.495 5.768C128.631 4.44 130.135 4.248 131.191 4.248C132.279 4.248 133.095 4.504 133.463 4.712C135.047 5.544 135.047 7.368 135.047 7.752C135.047 8.328 134.999 8.888 134.871 9.432ZM131.671 8.744C131.831 7.976 131.847 7.352 131.847 7.272C131.847 6.648 131.591 6.248 131.095 6.248C130.471 6.248 130.151 6.92 130.071 7.064C129.671 7.832 129.383 9.432 129.383 10.088C129.383 10.36 129.383 11.192 130.135 11.192C130.967 11.192 131.415 10.072 131.671 8.744ZM135.463 0.216L135.527 0.344C135.223 0.695999 133.703 2.408 133.383 2.808C133.287 2.92 133.191 3.032 133.095 3.16L132.967 3.208L130.967 3.24L130.887 3.112C131.559 2.04 131.751 1.72 132.423 0.344L132.519 0.263999C133.703 0.28 134.071 0.263999 135.463 0.216ZM144.079 10.92L143.711 12.904L143.583 12.984L140.431 13.048L140.351 12.936L140.943 10.328L141.279 8.76C141.343 8.456 141.503 7.672 141.503 7.416C141.503 6.888 141.151 6.68 140.815 6.68C140.527 6.68 140.239 6.824 139.951 6.968C139.311 9.88 139.119 10.824 138.719 12.888L138.623 12.984L135.391 13.048L135.327 12.936L135.999 10.152L136.239 9.144C136.687 7.064 136.767 6.568 136.991 4.824L137.119 4.696C138.527 4.52 138.911 4.456 140.383 4.168L140.479 4.28L140.287 5.176C140.623 4.936 141.535 4.248 142.783 4.248C143.343 4.248 144.927 4.456 144.927 6.344C144.927 7.16 144.559 8.744 144.303 9.832L144.079 10.92ZM154.527 9.432C154.351 10.136 154.063 10.808 153.791 11.224C152.543 13.16 150.399 13.208 149.663 13.208C147.279 13.208 145.823 12.024 145.823 9.64C145.823 8.36 146.287 6.808 147.151 5.768C148.287 4.44 149.791 4.248 150.847 4.248C151.935 4.248 152.751 4.504 153.119 4.712C154.703 5.544 154.703 7.368 154.703 7.752C154.703 8.328 154.655 8.888 154.527 9.432ZM151.327 8.744C151.487 7.976 151.503 7.352 151.503 7.272C151.503 6.648 151.247 6.248 150.751 6.248C150.127 6.248 149.807 6.92 149.727 7.064C149.327 7.832 149.039 9.432 149.039 10.088C149.039 10.36 149.039 11.192 149.791 11.192C150.623 11.192 151.071 10.072 151.327 8.744ZM168.679 9.528L168.007 12.888L167.895 12.984L164.711 13.048L164.631 12.936L165.287 10.168L165.543 9.048C165.815 7.816 165.847 7.576 165.847 7.384C165.847 6.792 165.463 6.664 165.207 6.664C164.839 6.664 164.583 6.84 164.359 6.984L164.071 8.632L163.751 10.088L163.175 12.888L163.063 12.984L159.911 13.048L159.831 12.936L160.439 10.328L160.695 9.224C160.775 8.792 160.871 8.376 160.951 7.944C160.983 7.784 161.031 7.544 161.031 7.336C161.031 6.68 160.519 6.664 160.423 6.664C160.023 6.664 159.799 6.84 159.623 6.984L159.079 9.416L158.359 12.888L158.247 12.984L155.047 13.048L154.967 12.936L155.623 10.248L156.071 8.424C156.439 6.712 156.503 6.328 156.711 4.824L156.823 4.712C158.343 4.504 158.647 4.44 160.103 4.168L160.199 4.28L159.975 5.32C160.215 5.112 160.455 4.92 160.727 4.776C161.015 4.6 161.783 4.232 162.551 4.232C163.111 4.232 163.927 4.392 164.263 5.368C164.807 4.968 165.799 4.232 167.031 4.232C168.087 4.232 169.303 4.744 169.303 6.328C169.303 6.808 169.191 7.32 169.063 7.816L168.679 9.528ZM179.895 4.536L179.159 7.56C178.887 8.68 178.615 9.816 178.407 10.936C178.279 11.576 178.167 12.232 178.071 12.888L177.975 12.984L175.015 13.048L174.935 12.952L175.063 12.216C174.423 12.856 173.559 13.176 172.663 13.176C171.911 13.176 171.415 12.888 171.159 12.696C170.103 11.896 170.071 10.52 170.071 10.024C170.071 8.072 171.015 6.648 171.719 5.96C173.271 4.44 175.271 4.424 176.759 4.408H179.799L179.895 4.536ZM175.303 10.696L176.279 6.504C175.783 6.488 175.127 6.472 174.551 6.952C174.103 7.336 173.463 8.312 173.463 9.736C173.463 10.552 173.831 11.032 174.471 11.032C174.823 11.032 175.063 10.872 175.303 10.696ZM194.919 2.968L193.879 7.224C193.255 9.848 193.127 10.456 192.711 12.888L192.599 12.984L189.655 13.048L189.575 12.952L189.703 12.216C189.271 12.584 188.567 13.192 187.383 13.192C186.887 13.192 186.343 13.064 185.895 12.744C185.367 12.376 184.727 11.672 184.727 9.976C184.727 8.504 185.319 7.176 185.847 6.424C187.335 4.328 189.511 4.376 191.399 4.424L191.767 2.744L192.135 0.919999L192.247 0.808L195.495 0.231999L195.591 0.36L194.919 2.968ZM189.959 10.648L190.887 6.504C190.343 6.488 189.703 6.472 189.143 6.952C188.471 7.512 188.119 8.744 188.119 9.688C188.119 10.584 188.551 10.984 189.079 10.984C189.415 10.984 189.687 10.824 189.959 10.648ZM202.567 10.136L202.695 10.232C202.583 10.648 202.471 11.048 202.359 11.448C202.263 11.816 202.183 12.2 202.087 12.568L202.007 12.664C201.863 12.728 201.719 12.808 201.559 12.856C201.223 12.984 200.295 13.192 199.287 13.192C198.135 13.192 197.239 12.936 196.711 12.664C196.087 12.328 195.559 11.752 195.271 11.112C194.951 10.408 194.919 9.56 194.919 9.192C194.919 6.2 196.919 4.248 199.639 4.248C201.799 4.248 203.287 5.272 203.287 7.704C203.287 8.28 203.207 8.792 203.127 9.304L202.999 9.4C200.455 9.4 199.895 9.416 197.959 9.464C198.023 10.008 198.135 10.936 199.927 10.936C201.271 10.936 201.911 10.536 202.567 10.136ZM198.151 7.656L200.471 7.624C200.503 7.432 200.535 7.256 200.535 7.064C200.535 6.328 199.959 6.12 199.575 6.12C199.351 6.12 199.127 6.184 198.919 6.312C198.391 6.664 198.247 7.24 198.151 7.656ZM215.223 10.936L214.823 12.888L214.711 12.984C213.223 12.984 212.807 12.984 211.303 13.032L211.223 12.952C211.495 11.96 211.767 10.984 212.007 10.008C212.151 9.384 212.295 8.76 212.423 8.152L211.287 5.08C210.807 3.752 210.535 3.048 210.087 1.864L210.167 1.752L213.735 1.624L213.831 1.72C214.295 3.656 214.407 4.056 214.935 5.704L216.103 3.88C216.999 2.472 217.015 2.44 217.415 1.784L217.527 1.688C218.855 1.704 219.207 1.688 220.567 1.64L220.631 1.768C220.231 2.28 219.607 3.144 219.207 3.672L215.831 8.264L215.223 10.936ZM226.486 10.472L225.974 12.888L225.862 12.984L222.822 13.048L222.742 12.952L222.934 12.136C222.55 12.488 222.39 12.616 221.958 12.808C221.302 13.112 220.822 13.192 220.438 13.192C219.526 13.192 218.246 12.728 218.246 11.08C218.246 10.472 218.39 9.896 218.63 8.856L218.998 7.288C219.27 6.104 219.35 5.768 219.542 4.632L219.654 4.536L222.758 4.376L222.87 4.504C222.614 5.576 222.374 6.648 222.102 7.704C221.83 8.792 221.654 9.528 221.654 9.96C221.654 10.632 222.102 10.76 222.406 10.76C222.838 10.76 223.094 10.568 223.318 10.424L224.022 7.112L224.534 4.632L224.646 4.536C225.91 4.488 226.278 4.488 227.798 4.376L227.878 4.504L226.838 8.968L226.486 10.472ZM234.694 10.376L234.854 10.44C234.534 11.592 234.502 11.8 234.294 12.728L234.166 12.84C233.574 13.032 233.014 13.192 232.198 13.192C229.51 13.192 228.198 11.592 228.198 9.256C228.198 6.872 229.862 4.248 233.27 4.248C234.758 4.248 235.414 4.664 235.814 4.904L235.846 5.032L235.222 7.192L235.062 7.208C234.678 6.728 234.246 6.456 233.638 6.456C232.55 6.456 231.526 7.464 231.526 9.16C231.526 10.056 231.958 10.936 233.158 10.936C233.926 10.936 234.374 10.616 234.694 10.376ZM245.583 4.536L244.847 7.56C244.575 8.68 244.303 9.816 244.095 10.936C243.967 11.576 243.855 12.232 243.759 12.888L243.663 12.984L240.703 13.048L240.623 12.952L240.751 12.216C240.111 12.856 239.247 13.176 238.351 13.176C237.599 13.176 237.103 12.888 236.847 12.696C235.791 11.896 235.759 10.52 235.759 10.024C235.759 8.072 236.703 6.648 237.407 5.96C238.959 4.44 240.959 4.424 242.447 4.408H245.487L245.583 4.536ZM240.991 10.696L241.967 6.504C241.471 6.488 240.815 6.472 240.239 6.952C239.791 7.336 239.151 8.312 239.151 9.736C239.151 10.552 239.519 11.032 240.159 11.032C240.511 11.032 240.751 10.872 240.991 10.696ZM251.039 10.904L250.479 12.888L250.351 13C249.727 13.128 249.295 13.208 248.655 13.208C248.095 13.208 245.983 13.208 245.983 11.304C245.983 10.664 246.271 9.512 246.447 8.776L247.007 6.568L245.951 6.6L245.839 6.472L246.383 4.536L246.511 4.44H247.503L247.983 2.344L248.095 2.232C249.535 1.896 249.903 1.784 251.263 1.4L251.359 1.496L251.007 2.904L250.623 4.488L252.191 4.456L252.255 4.568C251.951 5.432 251.903 5.624 251.663 6.488L251.519 6.6L250.143 6.568L249.583 8.904C249.503 9.224 249.423 9.56 249.359 9.88C249.327 10.04 249.295 10.184 249.295 10.344C249.295 10.888 249.743 11 250.047 11C250.463 11 250.687 10.904 250.927 10.808L251.039 10.904ZM261.583 4.536L260.847 7.56C260.575 8.68 260.303 9.816 260.095 10.936C259.967 11.576 259.855 12.232 259.759 12.888L259.663 12.984L256.703 13.048L256.623 12.952L256.751 12.216C256.111 12.856 255.247 13.176 254.351 13.176C253.599 13.176 253.103 12.888 252.847 12.696C251.791 11.896 251.759 10.52 251.759 10.024C251.759 8.072 252.703 6.648 253.407 5.96C254.959 4.44 256.959 4.424 258.447 4.408H261.487L261.583 4.536ZM256.991 10.696L257.967 6.504C257.471 6.488 256.815 6.472 256.239 6.952C255.791 7.336 255.151 8.312 255.151 9.736C255.151 10.552 255.519 11.032 256.159 11.032C256.511 11.032 256.751 10.872 256.991 10.696ZM261.311 0.216L261.375 0.344C261.071 0.695999 259.551 2.408 259.231 2.808C259.135 2.92 259.039 3.032 258.943 3.16L258.815 3.208L256.815 3.24L256.735 3.112C257.407 2.04 257.599 1.72 258.271 0.344L258.367 0.263999C259.551 0.28 259.919 0.263999 261.311 0.216ZM270.095 10.92L269.727 12.904L269.599 12.984L266.447 13.048L266.367 12.936L266.959 10.328L267.295 8.76C267.359 8.456 267.519 7.672 267.519 7.416C267.519 6.888 267.167 6.68 266.831 6.68C266.543 6.68 266.255 6.824 265.967 6.968C265.327 9.88 265.135 10.824 264.735 12.888L264.639 12.984L261.407 13.048L261.343 12.936L262.015 10.152L262.255 9.144C262.703 7.064 262.783 6.568 263.007 4.824L263.135 4.696C264.543 4.52 264.927 4.456 266.399 4.168L266.495 4.28L266.303 5.176C266.639 4.936 267.551 4.248 268.799 4.248C269.359 4.248 270.943 4.456 270.943 6.344C270.943 7.16 270.575 8.744 270.319 9.832L270.095 10.92ZM3.024 25.656L3.136 25.768C3.088 26.84 3.056 28.104 3.056 30.856C3.056 33.928 3.088 35.24 3.184 36.888L3.088 37C2.384 37.016 2.16 37.016 1.312 37.048L1.216 36.936C1.248 35.96 1.28 35.112 1.28 33.048C1.28 30.632 1.28 28.232 1.168 25.832L1.248 25.704C1.952 25.704 2.208 25.704 3.024 25.656ZM12.7035 35.576L12.7995 35.688C12.7515 36.232 12.7515 36.344 12.7195 36.888L12.6075 37C9.4875 37 8.9915 37.016 5.9515 37.048L5.8715 36.936C5.9195 35.672 5.9675 34.808 5.9675 31.88C5.9675 29.192 5.9675 27.656 5.8555 25.816L5.9515 25.704C9.1035 25.688 9.7275 25.688 12.6715 25.656L12.7675 25.768C12.7195 26.248 12.6875 26.44 12.6555 27.016L12.5595 27.128C10.4955 27.064 9.8075 27.064 7.7755 27.048C7.7275 28.52 7.7275 28.984 7.7275 30.456C9.6955 30.472 10.3035 30.456 12.2555 30.424L12.3355 30.536C12.2715 31.096 12.2715 31.256 12.2555 31.768L12.1595 31.88C10.3035 31.832 9.9035 31.832 7.7275 31.832C7.6955 33.688 7.7115 34.136 7.7275 35.656C10.1435 35.656 10.6395 35.656 12.7035 35.576ZM21.3754 35.576L21.4714 35.688C21.4234 36.232 21.4234 36.344 21.3914 36.888L21.2794 37C18.1594 37 17.6634 37.016 14.6234 37.048L14.5434 36.936C14.5914 35.672 14.6394 34.808 14.6394 31.88C14.6394 29.192 14.6394 27.656 14.5274 25.816L14.6234 25.704C17.7754 25.688 18.3994 25.688 21.3434 25.656L21.4394 25.768C21.3914 26.248 21.3594 26.44 21.3274 27.016L21.2314 27.128C19.1674 27.064 18.4794 27.064 16.4474 27.048C16.3994 28.52 16.3994 28.984 16.3994 30.456C18.3674 30.472 18.9754 30.456 20.9274 30.424L21.0074 30.536C20.9434 31.096 20.9434 31.256 20.9274 31.768L20.8314 31.88C18.9754 31.832 18.5754 31.832 16.3994 31.832C16.3674 33.688 16.3834 34.136 16.3994 35.656C18.8154 35.656 19.3114 35.656 21.3754 35.576ZM30.0473 35.576L30.1433 35.688C30.0953 36.232 30.0953 36.344 30.0633 36.888L29.9513 37C26.8313 37 26.3353 37.016 23.2953 37.048L23.2153 36.936C23.2633 35.672 23.3113 34.808 23.3113 31.88C23.3113 29.192 23.3113 27.656 23.1993 25.816L23.2953 25.704C26.4473 25.688 27.0713 25.688 30.0153 25.656L30.1112 25.768C30.0633 26.248 30.0312 26.44 29.9993 27.016L29.9033 27.128C27.8393 27.064 27.1513 27.064 25.1193 27.048C25.0713 28.52 25.0713 28.984 25.0713 30.456C27.0393 30.472 27.6473 30.456 29.5993 30.424L29.6793 30.536C29.6153 31.096 29.6153 31.256 29.5993 31.768L29.5033 31.88C27.6473 31.832 27.2473 31.832 25.0713 31.832C25.0393 33.688 25.0553 34.136 25.0713 35.656C27.4873 35.656 27.9833 35.656 30.0473 35.576ZM39.887 30.248L40.687 30.6C41.855 31.112 43.407 31.784 43.407 33.832C43.407 35.624 42.079 37.24 39.295 37.24C37.599 37.24 36.511 36.728 36.127 36.536L36.063 36.424C36.127 35.864 36.143 35.56 36.191 34.952L36.351 34.888C36.751 35.16 37.679 35.832 39.167 35.832C40.815 35.832 41.503 34.984 41.503 34.024C41.503 32.904 40.575 32.472 39.535 32.072L38.735 31.72C37.599 31.192 36.079 30.504 36.079 28.552C36.079 27.96 36.239 27.352 36.575 26.872C37.311 25.816 38.639 25.464 39.935 25.464C41.199 25.464 41.967 25.704 42.815 25.976L42.895 26.104C42.831 26.712 42.815 26.936 42.767 27.512L42.639 27.576C41.951 27.224 41.199 26.84 39.999 26.84C38.671 26.84 37.839 27.464 37.839 28.408C37.839 29.128 38.319 29.464 38.655 29.672C38.863 29.8 38.927 29.832 39.887 30.248ZM48.7189 35.64L48.8309 35.736C48.7829 36.264 48.7829 36.376 48.7669 36.84L48.6869 36.936C48.3509 37.016 48.0789 37.08 47.4869 37.08C47.1029 37.08 46.0949 37.08 45.5989 36.248C45.3109 35.784 45.3109 35.4 45.3109 33.512L45.3429 29.992C44.7829 29.992 44.7669 30.008 44.1909 30.024L44.1269 29.928C44.1589 29.416 44.1589 29.288 44.1589 28.776L44.2549 28.68C44.6069 28.68 44.8149 28.696 45.3429 28.68C45.3269 28.344 45.3269 27.992 45.3269 27.656C45.3109 27.352 45.2949 27.048 45.2789 26.744L45.3589 26.632C46.0789 26.456 46.2549 26.408 46.9909 26.184L47.1029 26.264C47.0549 27.32 47.0389 27.528 47.0389 28.696C47.7109 28.68 47.9029 28.68 48.8149 28.648L48.8949 28.744C48.8629 29.16 48.8469 29.336 48.8469 29.88L48.7669 29.976C47.9669 29.96 47.8709 29.944 47.0229 29.944L46.9909 32.92C47.0069 33.112 47.0069 34.024 47.0069 34.248C47.0069 35.416 47.1509 35.784 47.9509 35.784C48.2869 35.784 48.5429 35.704 48.7189 35.64ZM57.1585 28.616L57.2545 28.728C57.2225 29.944 57.2065 31.08 57.2065 32.376C57.2065 34.344 57.2545 35.528 57.2865 36.216C57.2865 36.44 57.3025 36.664 57.3185 36.888L57.2545 36.984C56.4865 37 56.3585 37.016 55.6225 37.048L55.5265 36.952L55.5425 36.28C55.1905 36.536 54.3425 37.192 53.0305 37.192C52.4065 37.192 51.7185 37.048 51.2065 36.648C50.1825 35.816 50.1825 34.456 50.1665 33.208V32.216C50.1345 29.928 50.1345 29.672 50.0865 28.808L50.1665 28.696C50.9185 28.68 51.0625 28.68 51.8145 28.616L51.9105 28.728L51.8465 32.232C51.8465 32.664 51.8305 32.984 51.8465 33.752C51.8625 34.424 51.8945 35.864 53.5105 35.864C54.4545 35.864 55.1265 35.336 55.5105 35.032C55.5265 34.168 55.5265 33.432 55.5265 32.504C55.5265 30.28 55.5105 29.832 55.4145 28.792L55.5105 28.68C56.2465 28.664 56.4225 28.664 57.1585 28.616ZM64.7906 24.664L64.8706 24.568C65.6866 24.424 65.8466 24.392 66.5666 24.232L66.6786 24.328C66.5666 26.552 66.5506 30.52 66.5506 32.12C66.5506 34.6 66.6146 35.784 66.6786 36.888L66.5986 37C65.8946 37 65.7026 37.016 64.9666 37.048L64.8546 36.952L64.8866 36.36C64.5026 36.648 63.8466 37.16 62.6786 37.16C60.5506 37.16 59.0786 35.48 59.0786 33.048C59.0786 31.304 59.8146 30.2 60.4866 29.608C61.6546 28.552 63.1746 28.504 64.0066 28.504C64.3426 28.504 64.5026 28.504 64.9346 28.536C64.9506 26.552 64.8706 25.592 64.7906 24.664ZM64.8706 35.032C64.9026 32.936 64.9026 32.456 64.8866 29.832C64.6146 29.816 64.4226 29.784 64.0866 29.784C63.5906 29.784 62.5346 29.816 61.7666 30.536C61.4146 30.872 60.8386 31.624 60.8386 33.048C60.8386 33.96 61.0946 34.616 61.4306 35.016C61.7186 35.352 62.2466 35.736 63.0786 35.736C64.0546 35.736 64.6466 35.224 64.8706 35.032ZM75.3508 34.968L75.4788 35.048C75.3988 35.688 75.3828 35.848 75.3508 36.472L75.2548 36.584C74.9828 36.728 74.1188 37.192 72.6948 37.192C70.0707 37.192 68.4228 35.688 68.4228 32.904C68.4228 29.928 70.2148 28.472 72.3108 28.472C73.5748 28.472 74.4548 29 74.9348 29.576C75.8468 30.664 75.8148 32.248 75.7987 32.952L75.6868 33.048C73.1908 33.032 72.7588 33.032 70.1348 33.048C70.1508 33.608 70.1988 34.392 70.7428 35.048C71.3988 35.832 72.3108 35.912 72.8068 35.912C73.2708 35.912 73.7508 35.832 74.1988 35.672C74.7908 35.432 75.1428 35.144 75.3508 34.968ZM74.1508 31.816C74.1348 31.592 74.1188 31.24 73.9908 30.872C73.6708 29.992 72.9668 29.624 72.2468 29.624C71.3508 29.624 70.2948 30.232 70.1348 31.832C72.0708 31.848 72.6788 31.832 74.1508 31.816ZM84.6946 36.888L84.5986 36.984C83.8306 37 83.7346 37 82.9986 37.048L82.8866 36.936C82.8866 36.76 82.9026 36.584 82.9026 36.408C82.9186 35.624 82.9186 34.84 82.9186 34.056C82.9186 31.592 82.9026 31.432 82.8226 31.096C82.5186 29.88 81.6066 29.88 81.3826 29.88C80.4226 29.88 79.6866 30.44 79.2546 30.776C79.2386 33.56 79.2706 35.016 79.3826 36.888L79.2866 36.984C78.5026 37 78.3746 37 77.6066 37.048L77.5266 36.936C77.5426 36.04 77.5746 35.176 77.5746 33.992C77.5746 31.432 77.4626 30.072 77.3826 29L77.4786 28.888C78.2786 28.744 78.4226 28.712 79.1746 28.568L79.2866 28.68L79.2706 29.512C79.6866 29.224 80.6786 28.52 82.0866 28.52C82.4866 28.52 82.9826 28.584 83.4146 28.824C83.8306 29.064 84.1666 29.432 84.3426 29.864C84.5506 30.344 84.5666 30.824 84.5826 31.816V33.688C84.6306 35.56 84.6466 36.28 84.6946 36.888ZM90.3908 35.64L90.5028 35.736C90.4548 36.264 90.4548 36.376 90.4388 36.84L90.3588 36.936C90.0228 37.016 89.7508 37.08 89.1588 37.08C88.7748 37.08 87.7668 37.08 87.2708 36.248C86.9828 35.784 86.9828 35.4 86.9828 33.512L87.0148 29.992C86.4548 29.992 86.4388 30.008 85.8628 30.024L85.7988 29.928C85.8308 29.416 85.8308 29.288 85.8308 28.776L85.9268 28.68C86.2788 28.68 86.4868 28.696 87.0148 28.68C86.9988 28.344 86.9988 27.992 86.9988 27.656C86.9828 27.352 86.9668 27.048 86.9508 26.744L87.0308 26.632C87.7508 26.456 87.9268 26.408 88.6628 26.184L88.7748 26.264C88.7268 27.32 88.7108 27.528 88.7108 28.696C89.3828 28.68 89.5748 28.68 90.4868 28.648L90.5668 28.744C90.5348 29.16 90.5188 29.336 90.5188 29.88L90.4388 29.976C89.6388 29.96 89.5428 29.944 88.6948 29.944L88.6628 32.92C88.6788 33.112 88.6788 34.024 88.6788 34.248C88.6788 35.416 88.8228 35.784 89.6228 35.784C89.9588 35.784 90.2148 35.704 90.3908 35.64ZM99.5343 37.032L96.7183 37.048L96.6383 36.936C96.6703 36.168 96.6863 35.432 96.6863 33.976C96.6863 33.288 96.7023 29.944 96.7023 29.192C96.7023 27.512 96.6543 26.648 96.5903 25.816L96.6703 25.704L98.8143 25.672C99.1343 25.656 99.6302 25.656 100.062 25.656C101.006 25.656 102.014 25.688 102.814 26.152C103.406 26.488 104.078 27.16 104.078 28.344C104.078 28.904 103.918 30.504 101.694 31.048C102.062 31.064 102.59 31.08 103.166 31.336C104.542 31.944 104.686 33.16 104.686 33.752C104.686 35.224 103.774 36.264 102.494 36.728C101.646 37.032 100.798 37.032 99.5343 37.032ZM98.8303 31.864L98.4463 31.88C98.4463 33.704 98.4463 33.976 98.5103 35.72H98.8143C100.014 35.72 100.99 35.736 101.614 35.48C102.382 35.192 102.814 34.52 102.814 33.72C102.814 31.848 100.75 31.832 99.9823 31.832C99.8383 31.832 99.6943 31.832 98.8303 31.864ZM98.4463 26.984V30.536C99.8863 30.552 100.99 30.536 101.662 30.008C102.062 29.672 102.318 29.144 102.318 28.616C102.318 28.184 102.142 27.768 101.87 27.48C101.31 26.936 100.318 26.936 99.9503 26.936C99.4383 26.936 98.9423 26.952 98.4463 26.984ZM110.366 30.264L110.254 30.344C110.094 30.28 109.886 30.2 109.614 30.2C109.31 30.2 109.086 30.312 108.942 30.408C108.286 30.872 108.286 31.576 108.286 33.24C108.286 35.048 108.334 35.992 108.398 36.888L108.318 37C107.566 37 107.39 37.016 106.622 37.048L106.542 36.952C106.558 35.736 106.574 34.632 106.574 33.144C106.574 30.584 106.526 29.928 106.43 29L106.526 28.888C107.134 28.776 107.518 28.696 108.19 28.568L108.286 28.664L108.206 30.024C108.398 29.512 108.798 28.488 110.158 28.488C110.366 28.488 110.478 28.504 110.606 28.536L110.67 28.632C110.51 29.4 110.478 29.56 110.366 30.264ZM117.966 32.12V33.704C117.966 35.688 117.982 35.864 118.062 36.904L117.982 36.984C117.23 37 117.102 37.016 116.366 37.048L116.302 36.952L116.318 36.376C116.014 36.616 115.294 37.192 114.078 37.192C112.478 37.192 111.358 36.104 111.358 34.52C111.358 32.376 113.15 31.688 116.03 31.352L116.302 31.32C116.302 30.888 116.302 30.584 116.158 30.328C115.998 30.04 115.63 29.736 114.83 29.736C113.79 29.736 113.07 30.056 112.398 30.344L112.27 30.264C112.302 29.528 112.302 29.432 112.318 29.096L112.414 29C113.31 28.68 114.238 28.472 115.182 28.472C116.366 28.472 117.518 28.872 117.854 30.12C117.966 30.568 117.966 31.448 117.966 32.12ZM116.318 32.504L116.174 32.536C114.558 32.776 113.054 33 113.054 34.424C113.054 34.504 113.054 35.88 114.574 35.88C115.566 35.88 116.142 35.336 116.318 35.176V32.504ZM127.382 36.888L127.286 36.984C126.518 37 126.422 37 125.686 37.048L125.574 36.936C125.574 36.76 125.59 36.584 125.59 36.408C125.606 35.624 125.606 34.84 125.606 34.056C125.606 31.592 125.59 31.432 125.51 31.096C125.206 29.88 124.294 29.88 124.07 29.88C123.11 29.88 122.374 30.44 121.942 30.776C121.926 33.56 121.958 35.016 122.07 36.888L121.974 36.984C121.19 37 121.062 37 120.294 37.048L120.214 36.936C120.23 36.04 120.262 35.176 120.262 33.992C120.262 31.432 120.15 30.072 120.07 29L120.166 28.888C120.966 28.744 121.11 28.712 121.862 28.568L121.974 28.68L121.958 29.512C122.374 29.224 123.366 28.52 124.774 28.52C125.174 28.52 125.67 28.584 126.102 28.824C126.518 29.064 126.854 29.432 127.03 29.864C127.238 30.344 127.254 30.824 127.27 31.816V33.688C127.318 35.56 127.334 36.28 127.382 36.888ZM135.414 35.032L135.542 35.096C135.478 35.784 135.462 35.864 135.414 36.52L135.302 36.632C134.838 36.856 134.214 37.176 133.094 37.176C130.678 37.176 129.11 35.432 129.11 32.936C129.11 30.392 130.646 28.472 133.126 28.472C134.166 28.472 134.902 28.808 135.318 28.984L135.382 29.096C135.318 29.672 135.302 29.88 135.27 30.36L135.142 30.424C134.614 30.04 134.006 29.8 133.366 29.8C132.038 29.8 130.87 30.824 130.87 32.872C130.87 35.048 132.102 35.832 133.35 35.832C134.438 35.832 135.11 35.272 135.414 35.032ZM144.038 36.888L143.942 36.984C143.174 37 143.078 37 142.342 37.048L142.23 36.936L142.246 36.408C142.262 35.576 142.262 34.728 142.262 33.896L142.246 32.184C142.246 31.816 142.246 31.448 142.166 31.096C141.99 30.36 141.542 29.88 140.726 29.88C139.814 29.88 139.11 30.392 138.582 30.776C138.566 33.56 138.598 35.016 138.694 36.888L138.614 36.984C137.878 37 137.686 37 136.902 37.048L136.822 36.936C136.854 35.8 136.902 34.36 136.902 31.288C136.902 29.944 136.886 28.6 136.87 27.256C136.838 25.848 136.79 25.384 136.742 24.664L136.822 24.568C137.59 24.44 137.846 24.392 138.566 24.232L138.662 24.344C138.566 26.056 138.566 27.784 138.566 29.512C139.078 29.176 140.086 28.52 141.43 28.52C141.798 28.52 142.166 28.568 142.502 28.712C143.222 29 143.654 29.576 143.814 30.232C143.894 30.552 143.894 30.744 143.926 31.816V33.688L143.942 34.44C143.974 35.784 143.974 36.008 144.038 36.888Z" fill="white"/>
</svg>
