<?xml version="1.0" encoding="utf-8"?>
<!-- Generator: Adobe Illustrator 23.0.5, SVG Export Plug-In . SVG Version: 6.00 Build 0)  -->
<svg version="1.1" id="Logos" xmlns="http://www.w3.org/2000/svg" xmlns:xlink="http://www.w3.org/1999/xlink" x="0px" y="0px"
	 viewBox="0 0 1920 707" style="enable-background:new 0 0 1920 707;" xml:space="preserve">
<style type="text/css">
	.st0{fill:#FFFFFF;}
	.st1{fill:#211915;}
	.st2{fill:#57565B;}
	.st3{fill:#61116A;}
	.st4{fill:#98002E;}
</style>
<g id="Logo_7_">
	<g id="Logo_8_">
		<path class="st3" d="M801.6,99.5c13.2,35.2,12,83.7,2.1,123c-9.5,37.5-25.3,70.2-42,99.3c-69.3,120.6-178.1,202-286.4,280.1
			c-7.2-9-11.6-19.3-17.9-31c-2.5-4.6-5.8-9.9-8.9-15.8c-2.5-4.5-7.7-11.9-7.9-16.3c-0.3-5.7,8-17.8,11.6-24.2
			c62.6-113.3,126-233,188.6-344.2c14.7-0.9,33-0.9,47.8,0c3,10.7,3.9,22.4,5.3,34.2c2.5,23.3,4.7,47.6,7.3,71.5
			c1.2,11.7,0.4,23.7,5.3,33.6c12.3-2.7,20.1-14.5,27.3-24.2c22.1-29.4,39.7-67,44.7-112.5c7.4-67.7-30.1-110.4-85.1-121.4
			c-32.8-6.6-66-2.1-94.1,4.7C541.9,70.4,497.8,92.1,452.7,119c-16.4,9.7-32.3,19.3-48.3,30.5c-5,3.5-11.2,9.7-15.8,10
			c-4.5,0.3-10.8-3.6-16.3-5.8c-15.5-6-33.7-10.2-55.2-10.5c-29.4-0.4-52.4,7.6-74.1,12.6c3.2-7.5,11.2-11.1,17.3-15.8
			c43.1-32.5,92.5-61.9,145-85.7c61-27.5,127.2-49.7,210.2-53.6C708.8-3.6,776.4,33.1,801.6,99.5"/>
		<path class="st3" d="M732.7,600.3c1.8,19.7,5.3,39.6,3.7,57.3c-4.6,2.5-12.9,1.6-22.1,1.6c-7.7,0-18,1.1-22.1-1.6
			c-3-1.9-7-11.8-9.5-16.8c-17.8-35.4-33.5-67.5-52-102.5c-3.1-5.6-8.4-13.9-7.9-17.9c0.7-5.3,8.7-7.1,11-11
			c27.3-24,52.2-50.4,76.7-77.2c6.1-5.3,6.3,5.4,6.8,10C722.7,495.2,727.9,547.7,732.7,600.3"/>
		<path class="st4" d="M471.1,640.3c2.5,4.4,6,9.3,5.8,14.7c-3.9,5.5-14.5,3.7-22.6,3.7c-8.8,0-18.7,1.3-25.7-0.5
			c-4.5-1.1-11.2-7.4-16.3-11.6c-55.4-45.4-110.9-90.6-166.6-135.1c-20.6-16.4-41.5-31.7-60.4-49.4c-1-9.5-0.9-22.5,0-32.1
			c44.7-11.9,79.8-32.3,109.8-60.4c14.2-13.3,26.8-28.6,37.8-47.3c10.2-17.5,21.4-38.5,19.4-65.7c-2.9-39.3-33.8-58.9-75.7-58.9
			c-32.5,0-55.9,11.4-79.9,21c-7.4,3-16.1,9.3-25.2,5.3c2-5.3,7.5-8.8,12.1-12.1c30.5-22.2,72-44.9,120.9-47.8
			c80-4.7,125.6,45.4,132.9,114.6c8.6,81.4-31.5,135.7-81.4,163.4C393.8,508.9,432.3,574.1,471.1,640.3"/>
		<path class="st3" d="M361.7,638.2c4.9,4,9.6,7.3,12.6,12.1c-33.2,14.4-68.9,24.2-108.3,31c-40.1,6.9-85.7,9.1-127.2,1.6
			C63.4,669.2,7.6,625.3,0.7,542.5c-3.6-42.8,6.2-84.2,19.4-117.7C33.6,390.7,51,362,70.6,336c39.4-52.4,87.1-99.8,169.2-109.3
			c23.8-2.7,45.1,2.6,59.4,13.7c3.2,2.4,11.6,8.5,11,12.6c-0.5,3.8-13.1,9.4-17.3,12.1c-40.8,26.5-80.8,58.2-114,89.9
			c-29.5,29.1-57.1,58.9-79.3,95.6c-20.4,33.6-43.1,89.6-21,134.5c27.8,56.8,113,70.1,196,57.8c17.9-2.6,37.1-5.9,55.2-10.5
			c6-1.5,12.8-4.6,17.3-4.2C351.9,628.7,357.8,634.9,361.7,638.2"/>
	</g>
	<g id="Tagline_3_">
		<path class="st3" d="M779.2,607.6c4.7,0,9.2,1.2,13.6,3.6c4.4,2.4,7.9,5.8,10.4,10.3c2.5,4.5,3.7,9.1,3.7,13.9
			c0,4.8-1.2,9.4-3.7,13.8c-2.4,4.4-5.9,7.8-10.3,10.3c-4.4,2.4-9,3.7-13.8,3.7c-4.8,0-9.4-1.2-13.8-3.7c-4.4-2.4-7.8-5.9-10.3-10.3
			c-2.5-4.4-3.7-9-3.7-13.8c0-4.8,1.2-9.5,3.7-13.9c2.5-4.5,6-7.9,10.4-10.3C770,608.8,774.6,607.6,779.2,607.6 M779.2,612.2
			c-3.9,0-7.7,1-11.4,3c-3.7,2-6.6,4.9-8.7,8.6c-2.1,3.7-3.1,7.6-3.1,11.6c0,4,1,7.8,3.1,11.5c2,3.7,4.9,6.5,8.6,8.6
			c3.7,2,7.5,3.1,11.5,3.1c4,0,7.8-1,11.5-3.1c3.7-2,6.5-4.9,8.6-8.6c2-3.7,3.1-7.5,3.1-11.5c0-4-1-7.9-3.1-11.6
			c-2.1-3.7-5-6.6-8.7-8.6C786.9,613.2,783.1,612.2,779.2,612.2 M767,650.7v-29.9h10.3c3.5,0,6.1,0.3,7.6,0.8
			c1.6,0.6,2.8,1.5,3.8,2.9c0.9,1.4,1.4,2.8,1.4,4.4c0,2.2-0.8,4.1-2.3,5.7c-1.6,1.6-3.6,2.5-6.2,2.7c1.1,0.4,1.9,1,2.5,1.6
			c1.2,1.2,2.7,3.2,4.4,5.9l3.6,5.9h-5.9l-2.6-4.7c-2.1-3.7-3.8-6-5-7c-0.9-0.7-2.2-1-3.9-1h-2.8v12.7H767z M771.9,633.9h5.8
			c2.8,0,4.7-0.4,5.7-1.3c1-0.8,1.5-1.9,1.5-3.3c0-0.9-0.2-1.7-0.7-2.4c-0.5-0.7-1.2-1.2-2-1.6c-0.9-0.3-2.5-0.5-4.8-0.5h-5.5V633.9
			z"/>
		<path class="st4" d="M1004.7,317.1c-10.9,0.2-21.9,0.6-32.8,1.3l-1.3-1.1c-7.2-21.7-11.3-34.7-17.3-51.6c-3.2,0.2-6.4,0.2-9.6,0.2
			c-4.1,16.6-7.5,34.1-10.5,50.9l-1.3,0.9c-8.3,0-31.6,0.6-31.6,0.6l-0.9-1.1c5.5-22.6,24.7-98.1,29.2-131.3l1.1-0.9
			c9.2,0,33.7-0.4,48.6-0.4c21.7,0,40.5,7,40.5,33c0,20.7-12.4,37.3-35.6,42.8c16.2,40.1,19.4,47.5,22.6,55.4L1004.7,317.1z
			 M956.3,244.2c15.6,0,29.4-7,29.4-23.5c0-12.2-9.8-13.8-19.6-13.8c-1.1,0-2.8,0.2-8.5,0.2c-0.9,3.8-2.1,7.5-8.9,37.1H956.3z"/>
		<path class="st4" d="M1081,215.8c11.9,0,43.1,4.9,43.1,40.5c0,37.5-20.9,63.9-57.6,63.9c-37.9,0-45-23.5-45-41.1
			C1021.5,266.7,1026.5,215.8,1081,215.8 M1067,300.2c20,0,25.8-34.5,25.8-48c0-6.4-1.9-16.4-14.1-16.4c-22.6,0-25.8,41.8-25.8,47.7
			C1052.9,296.2,1059.9,300.2,1067,300.2"/>
		<path class="st4" d="M1124.5,316.8c2.8-11.9,5.5-21.5,7.9-32.4l9-39.2c5.5-23.6,11.1-46.7,14.7-70.6l1.5-1.3
			c10.7-1.7,21.5-3.6,32.2-5.5l0.9,1.3c-1.5,6.8-3.2,13.2-4.9,19.8l-8.9,35.2c3.4-2.3,12.6-8.3,24.9-8.3c24.9,0,31.6,22,31.6,36.9
			c0,18.6-8.7,39.6-23.4,51.4c-16.6,13.4-36.2,13.8-56.1,13.8h-13.2c-5.1,0-10.2,0-15.3,0.2L1124.5,316.8z M1164.6,297.4
			c5.5,0,15.1-0.6,23.4-8.7c7.9-7.7,13.4-21.3,13.4-32.4c0-14.3-7.9-18.3-14.7-18.3c-7,0-11.9,3.8-13.9,5.1l-12.4,54.3H1164.6z"/>
		<path class="st4" d="M1301,215.8c11.9,0,43.1,4.9,43.1,40.5c0,37.5-20.9,63.9-57.6,63.9c-37.9,0-45-23.5-45-41.1
			C1241.5,266.7,1246.6,215.8,1301,215.8 M1287.1,300.2c20,0,25.8-34.5,25.8-48c0-6.4-1.9-16.4-14.1-16.4
			c-22.6,0-25.8,41.8-25.8,47.7C1272.9,296.2,1279.9,300.2,1287.1,300.2"/>
		<path class="st4" d="M1402.7,317.7c-7.9,1.9-14.7,2.1-17.3,2.1c-21.5,0-28.3-9.2-28.3-22c0-7.2,2.1-16,6.2-32.6l6.4-26h-2.1
			c-4.1,0-7.2,0.2-11.1,0.4l-1.1-1.3c2.1-7,3.4-12.1,5.3-19l1.3-1.1h12.6c2.1-8.9,3.6-15.1,5.3-24.1l1.3-1.3
			c11.5-2.6,19.6-4.7,30.9-8.1l1.1,1.3c-1.5,5.3-2.4,10-8.3,32.8c7.2-0.2,12.2-0.2,19.4-0.6l0.8,1.5c-2.4,6.8-4.1,11.7-5.8,18.8
			l-1.7,1.1c-6.4-0.2-10.9-0.2-17.3-0.2l-7.9,33c-1.9,7.9-3.6,15.1-3.6,17.9c0,3.4,2.1,7.7,9.4,7.7c4.9,0,8.3-1.5,10.4-2.3l1.1,0.9
			c-2.3,7.3-3.6,12.4-5.6,19.6L1402.7,317.7z"/>
		<path class="st4" d="M1461.7,269.9l-3,13.9c-2.3,10.9-4.1,21.9-6,33l-1.3,0.9c-10.9,0-21.9,0.2-32.6,0.8l-0.9-1.3
			c4.3-16.6,8.5-33.5,12.2-50.5l2.1-9.2c2.6-11.7,5.1-23.6,6.4-35.2l1.3-1.3c11.1-1.5,22.2-3.2,33.2-5.3l1.1,1.5
			C1469.8,234.1,1465.5,252.2,1461.7,269.9 M1483.5,172.7c-1.7,8.5-4,16.8-6,25.1l-1.5,1.5c-10.2,1.3-20.3,2.8-30.7,4.3l-1.1-1.5
			c1.9-8.3,3.8-16.8,5.5-25.2l1.7-1.3c10.2-1.3,21.9-3,31.1-4.1L1483.5,172.7z"/>
		<path class="st4" d="M1546.5,315.4c-4.9,2.1-12.4,4.7-23.7,4.7c-28.1,0-44.8-17.5-44.8-43.9c0-26.4,14.1-44.3,27.9-52.6
			c13.2-7.9,27.9-7.9,31.5-7.9c8.5,0,20.2,1.9,28.4,7.7l0.4,1.5c-2.6,7.7-4.3,13.4-6.4,21.5l-1.9,0.4c-6.4-9-16.8-9-18.1-9
			c-20.9,0-29.4,21.5-29.4,36c0,12.6,6.4,23.9,21.5,23.9c10,0,15.6-4.1,20.2-7.5l1.7,0.9c-2.4,8.5-3.9,14.5-6,23L1546.5,315.4z"/>
		<path class="st4" d="M1568.1,288.5c8.1,9.2,17.9,12.2,26.4,12.2c10,0,16-4.5,16-10.9c0-5.3-3.2-7.5-12.8-12.4l-4.1-2.1
			c-6.8-3.4-19.6-9.6-19.6-25.6c0-16.4,11.7-33.9,43.1-33.9c15.6,0,25.1,4,32,7.5l1,1.7c-2.4,7.3-4,12.6-5.8,20.2l-1.7,0.4
			c-9-10.7-19.4-10.9-22.4-10.9c-9,0-14.9,4-14.9,9.6c0,4.3,3.6,7.2,11.5,10.9l4.3,2.1c7.3,3.6,21.7,10.4,21.7,28.1
			c0,17.9-13.8,35-45.6,35c-17.3,0-28.5-4.7-36-9.4l-0.6-1.7c2.4-7.3,3.8-12.6,5.8-20.2L1568.1,288.5z"/>
		<path class="st4" d="M1818.3,267.4c-6.6,8.5-14.7,16.2-23.6,24.7c5.1,8.1,10.2,16.2,15.4,24.3l-0.6,1.7h-10.9
			c-11.3,0-14.9,0-22.4,0.4l-1.5-1.1c-1.3-3-3-5.6-4.7-8.3c-11.5,7.5-22.2,11.3-35,11.3c-22,0-37.1-13.4-37.1-33
			c0-9.2,4-18.7,10.6-25.2c5.3-5.3,10.9-8.7,26.4-16c-5.5-10-7.3-16.8-7.3-25.4c0-19.4,15.1-32.6,37.7-32.6
			c20.9,0,34.5,10.5,34.5,26.9c0,15.1-10,23.9-29.6,35.2c4.3,7.9,8.7,15.6,13.4,23c14.5-15.4,15.5-16.8,21.1-27.1h1.9
			c3.6,6.8,7.9,13.2,12.1,19.8L1818.3,267.4z M1745.7,266.3c-12.4,6.6-16.4,11.1-16.4,18.5c0,7.2,5.3,12.4,13,12.4
			c5.3,0,10-1.9,17.1-6.8C1755.2,282.3,1750.3,274.4,1745.7,266.3 M1766.1,206.2c-5.8,0-10.7,4.9-10.7,10.9c0,4.3,1.1,7.5,5.3,15.8
			c11.7-7.3,15.3-11.1,15.3-17.3C1775.9,210.1,1771.7,206.2,1766.1,206.2"/>
		<path class="st4" d="M963.4,144.4h-4.9c-5.6,0-9.8,0.2-15.4,0.4l-0.9-1.3c5.8-23.7,25.4-108.7,29.2-130.9l1.1-1.1h5.5
			c5.6,0,9.8,0,15.4-0.4l0.8,1.1C987.9,37,973,99.4,964.9,143.4L963.4,144.4z"/>
		<path class="st4" d="M1073.6,144.6h-39.2c-12.6,0-21.3,0-33.9,0.4l-2.6,0.2l-0.9-1.3c12.8-50.1,23.6-103.8,29.4-131.3l1.3-1.3h1.7
			c5.5,0,14.3,0.2,22.6,0.2h21.8c10.4,0,20.7-0.4,27.7-0.4l1.1,1.1c-1.7,5.1-2.6,8.7-4,13.9l-1.5,1.1c-11.5,0-27.3-0.6-43.3-0.6
			c-3.2,0-9.2,0.2-9.2,0.2l-9.2,41.1c37.7-0.2,43.3-0.6,51.4-0.6l0.8,1.3c-1.5,4.9-2.5,8.3-3.8,13.2l-1.7,1.3
			c-6.6-0.2-35.4-0.2-49.9-0.2c-3,13.2-6,26.6-10.2,45.6c7.9,0,51.4-0.8,56.5-0.8l1,0.9c-1.7,5.5-3,9.2-4.5,14.7L1073.6,144.6z"/>
		<path class="st4" d="M1175.7,144.6h-39.2c-12.6,0-21.3,0-33.9,0.4l-2.6,0.2l-0.9-1.3c12.8-50.1,23.6-103.8,29.4-131.3l1.3-1.3h1.7
			c5.5,0,14.3,0.2,22.6,0.2h21.8c10.4,0,20.7-0.4,27.7-0.4l1.1,1.1c-1.7,5.1-2.6,8.7-4,13.9l-1.5,1.1c-11.5,0-27.3-0.6-43.3-0.6
			c-3.2,0-9.2,0.2-9.2,0.2l-9.2,41.1c37.7-0.2,43.3-0.6,51.4-0.6l0.8,1.3c-1.5,4.9-2.5,8.3-3.8,13.2l-1.7,1.3
			c-6.6-0.2-35.4-0.2-49.9-0.2c-3,13.2-6,26.6-10.2,45.6c7.9,0,51.4-0.8,56.5-0.8l0.9,0.9c-1.7,5.5-3,9.2-4.5,14.7L1175.7,144.6z"/>
		<path class="st4" d="M1277.8,144.6h-39.2c-12.6,0-21.3,0-33.9,0.4l-2.6,0.2l-0.9-1.3c12.8-50.1,23.6-103.8,29.4-131.3l1.3-1.3h1.7
			c5.5,0,14.3,0.2,22.6,0.2h21.9c10.4,0,20.7-0.4,27.7-0.4l1.1,1.1c-1.7,5.1-2.6,8.7-4,13.9l-1.5,1.1c-11.5,0-27.3-0.6-43.3-0.6
			c-3.2,0-9.2,0.2-9.2,0.2l-9.2,41.1c37.7-0.2,43.3-0.6,51.4-0.6l0.8,1.3c-1.5,4.9-2.4,8.3-3.8,13.2l-1.7,1.3
			c-6.6-0.2-35.4-0.2-49.9-0.2c-3,13.2-6,26.6-10.2,45.6c7.9,0,51.4-0.8,56.5-0.8l0.9,0.9c-1.7,5.5-3,9.2-4.5,14.7L1277.8,144.6z"/>
		<path class="st4" d="M860.2,633.5c2.1,4,13.4,14.5,31.5,14.5c22,0,31.5-12.6,31.5-24.1c0-11.9-7.3-17.1-21.3-24.3l-6.2-3.2
			c-12.2-6.2-24.3-13.4-24.3-32.4c0-18.3,13-39.6,48.2-39.6c17.5,0,28.8,5.3,36.4,10.4l0.6,1.5c-1.9,5.6-3.4,9.8-5.1,15.6l-1.7,0.4
			c-7.2-9.2-20.7-12.4-28.8-12.4c-19.6,0-28.3,10.9-28.3,22c0,10.2,6,14.3,21.3,22.2l5.5,2.8c12.2,6.4,25.4,15.4,25.4,34.5
			c0,18.8-14.5,42.4-50.9,42.4c-18.3,0-33.2-5.7-39.4-11.7l-0.6-1.7c1.9-6,2.8-10.4,4.3-16.6L860.2,633.5z"/>
		<path class="st4" d="M1014.3,560.6c23.4,0,40.3,11.9,40.3,36.9c0,19.8-9,65.4-53.5,65.4c-11.9,0-39.2-2.8-39.2-37.7
			C961.9,594.7,978.5,560.6,1014.3,560.6 M1001.5,649c28.4,0,33.2-46,33.2-52.4c0-18.3-11.1-22.2-19.6-22.2
			c-26,0-33.2,38.6-33.2,52.2C981.9,638.6,987.6,649,1001.5,649"/>
		<path class="st4" d="M1131.7,657.6c-6.6,3.8-17.7,5.3-24.3,5.3c-24.3,0-41.1-18.3-41.1-42.2c0-15.6,6.8-39.9,27.5-52.6
			c10.9-6.6,22.4-7.5,27.5-7.5c13.2,0,23.5,3.2,29.2,7.5l0.6,1.3c-2.1,5.5-3.2,9.4-4.7,14.9l-1.9,0.6c-3-5.1-11.3-9.4-21.3-9.4
			c-23.5,0-36.4,24.9-36.4,43.7c0,22,17.1,28.4,26.2,28.4c3.2,0,13-0.4,23-9l1.5,0.8c-2.1,6.2-3.2,10.5-4.7,17L1131.7,657.6z"/>
		<path class="st4" d="M1168.2,660.5c-7.3,0-12.6,0.2-20,0.6l-0.9-1.1c6-21.9,19.4-84,20.3-94.2l1.3-1.3c7.7-0.9,13-1.7,20.5-3
			l0.9,1.3c-0.9-0.2-16.6,71.6-20.9,96.8L1168.2,660.5z M1195.2,536.3c-7.3,0.9-12.4,1.5-19.8,2.6l-1.1-1.5c1.5-6.4,2.6-10.9,4-17.3
			l1.7-1.3c7.3-0.9,12.4-1.5,19.6-2.6l1.5,1.3c-1.7,6.2-2.8,10.9-4.3,17.3L1195.2,536.3z"/>
		<path class="st4" d="M1274.5,655.4c-6.4,3.8-16.2,7.5-30.7,7.5c-32.2,0-43.7-19.2-43.7-40.9c0-33,20.2-61.4,52.7-61.4
			c22.2,0,38.1,10.2,38.1,35.2c0,7.7-1.7,14.3-2.3,17.1l-1.3,0.9c-9.8,0-27.7-0.2-44.1-0.2c-8.5,0-14.7,0-23.2,0.4
			c-0.2,1.1-0.6,4.5-0.6,8.1c0,24.7,21.5,25.2,28.3,25.2c15.6,0,23.7-6,31.1-11.3l1.5,0.9c-2.1,6.2-3.4,10.5-4.9,17L1274.5,655.4z
			 M1272,600.6c0.8-4.3,0.9-6.2,0.9-8.3c-0.4-17.1-14.5-18.5-19.4-18.5c-21.7,0-29,20-31.1,26.9C1222.5,600.7,1260,600.6,1272,600.6
			"/>
		<path class="st4" d="M1338.1,660.3c-6.2,1.5-11.1,1.7-13.6,1.7c-17.9,0-22.4-9.2-22.4-18.6c0-7.2,3.9-23.7,9.4-46.5l4.7-19.6h-3.8
			c-3.6,0-6.2,0-9.8,0.2l-0.9-1.3c1.3-4.3,2.2-7.7,3.4-12.4l1.3-0.9c4.9,0.2,8.1,0.2,13,0.2c2.3-8.7,3.4-14.9,5.1-23.6l1.3-1.3
			c7.3-1.5,12.4-2.8,19.6-4.7l0.9,1.1c-1.5,5.1-2.4,8.9-3.8,13.9l-3.6,14.5c7.7,0,13,0,20.5-0.4l0.9,1.3c-1.7,4.5-2.6,7.9-4,12.4
			l-1.3,1.1c-7.2-0.2-12.2-0.2-19.4-0.2l-10.2,42.6c-0.9,3.8-3.6,15.4-3.6,19.2c0,6,4.3,8.1,9.2,8.1c4.9,0,9.4-1.9,11.1-2.4l1,1
			c-1.5,4.9-2.6,8.3-4,13.2L1338.1,660.3z"/>
		<path class="st4" d="M1452.9,564c-22.6,36.5-75.5,125.3-82.7,141.3l-1.5,1.1h-8.5c-3.8,0-7.3,0-11.1,0.2l-0.6-1.3
			c5.5-8.3,24.1-37.1,28.6-45.4c-7.2-46.9-14.1-93.4-15.1-95.7l1.3-1.3c7.2,0,12.2-0.4,19.6-0.9l1.5,0.9c0.9,10.4,1.5,17.7,2.8,27.9
			l5.5,44.5l18.3-32.4c7.2-12.6,14.3-25.4,21.1-39l1.5-1.1c2.1,0.2,4.1,0.2,6.2,0.2c4.5,0,7.7-0.2,12.1-0.4L1452.9,564z"/>
		<path class="st4" d="M989,489.7c-11.9,0-20.3,0.2-32.2,0.7l-1.1-1.3c0-7.5,0-13-0.9-34.7h-4.1c-3.8,0-12.2-0.2-19.4-0.2h-16
			c-10,20.9-12.8,26.4-16.4,34.3l-1.3,1.1H890c-8.5,0-14.3,0.2-22.6,0.6l-0.7-2.1c19-33.5,52.4-96.6,69.9-130.4l1.5-0.9
			c15.1-0.2,25.8-0.4,40.9-0.8l0.9,1.1c3.2,47.1,6,83.8,10.4,131.5L989,489.7z M926.1,431.6c3.6,0.2,6.2,0.2,9.8,0.2h4.5
			c5.1,0,10.4,0,13.8-0.2c-0.9-37.1-1.5-53.7-1.5-53.7L926.1,431.6z"/>
		<path class="st4" d="M1090.8,489.7c-10.9,0-18.6,0.4-29.4,0.8l-1-1.3l2.3-9.4c-4.9,5.3-17.1,12.2-29.4,12.2
			c-7.2,0-26.4-2.6-26.4-25.2c0-7.2,2.6-18.7,4.5-26.8l4.3-18.7c2.4-10.7,4.3-18.3,6-29.2l1.3-1.1c11.1-0.4,18.8-0.7,29.8-1.5
			l1.1,1.5c-7,29.9-14.5,57.6-14.5,66.3c0,4,1.3,10.9,11.1,10.9c7.3,0,13.6-4.7,16-6.6l7.9-36.5c2.3-10.7,4.5-21.9,6.6-33l1.5-1.1
			c11.1-0.4,19-0.7,30.3-1.5l0.9,1.5c-4.5,18.1-7.7,31.5-11.9,50.1l-4.1,18.8c-2.3,10.5-4,17.9-5.8,28.6L1090.8,489.7z"/>
		<path class="st4" d="M1167.1,489.7c-7.9,1.9-14.7,2.1-17.3,2.1c-21.5,0-28.3-9.2-28.3-22c0-7.2,2.1-16,6.2-32.6l6.4-26h-2.1
			c-4.1,0-7.2,0.2-11.1,0.4l-1.1-1.3c2.1-7,3.4-12.1,5.3-19l1.3-1.1h12.6c2.1-8.8,3.6-15.1,5.3-24.1l1.3-1.3
			c11.5-2.6,19.6-4.7,30.9-8.1l1.1,1.3c-1.5,5.3-2.4,10-8.3,32.8c7.2-0.2,12.2-0.2,19.4-0.6l0.8,1.5c-2.4,6.8-4.1,11.7-5.8,18.8
			l-1.7,1.1c-6.4-0.2-10.9-0.2-17.3-0.2l-7.9,33c-1.9,7.9-3.6,15.1-3.6,17.9c0,3.4,2.1,7.7,9.4,7.7c4.9,0,8.3-1.5,10.4-2.3l1.1,0.9
			c-2.2,7.3-3.6,12.4-5.6,19.6L1167.1,489.7z"/>
		<path class="st4" d="M1245.8,387.7c11.9,0,43.1,4.9,43.1,40.5c0,37.5-20.9,63.9-57.6,63.9c-37.9,0-45-23.5-45-41.1
			C1186.3,438.6,1191.4,387.7,1245.8,387.7 M1231.9,472.1c20,0,25.8-34.5,25.8-48c0-6.4-1.9-16.4-14.1-16.4
			c-22.6,0-25.8,41.8-25.8,47.7C1217.7,468.2,1224.7,472.1,1231.9,472.1"/>
		<path class="st4" d="M1439.3,489.7c-10.4,0-20.5,0.4-30.7,0.8l-1-1.3c2.5-11.1,14.7-58.4,14.7-67.2c0-2.6-0.9-10-9.6-10
			c-3.4,0-9,0.9-15.3,6.2c-0.7,12.2-11.1,53.1-13.9,70.4l-1.3,1.1c-10.2,0.2-20.3,0.4-30.3,0.8l-1-1.5c1.5-8.1,14.1-56.7,14.1-67.2
			c0-5.7-2.8-9.8-9.4-9.8c-3.2,0-8.5,1.1-13.9,6l-6.4,28.3c-3,13.6-6.4,29-8.8,42.4l-1.1,1.1c-10.4,0-20.7,0.4-30.9,0.8l-0.9-1.3
			c7-26.2,19.4-82.5,20.3-95.1l1.3-1.1c10.2-1.5,21.3-3.2,31.6-5.3l1.1,1.3l-2.5,11.1c8.5-7.2,19.6-12.2,30.7-12.2
			c6.8,0,15.4,2.3,20.2,13.6c13.4-10.7,25.2-13.4,32.8-13.4c6.4,0,26.6,1.5,26.6,24.1c0,3-0.8,8.3-3,18.6l-4,18.1
			c-2.8,13.2-5.5,26.6-8.1,39.7L1439.3,489.7z"/>
		<path class="st4" d="M1553.4,489.7c-10.6,0.2-17.9,0.2-28.4,0.8l-0.9-1.3l1.3-8.3c-4.7,4.9-14.3,10.9-27.1,10.9
			c-22.4,0-31.3-18.1-31.3-36.2c0-17.3,6.4-30.5,10.5-37.1c17.5-27.5,44.6-28.6,65-28.6h32l1.1,1.5c-14.1,59-17.7,74.4-20.9,97.2
			L1553.4,489.7z M1540.4,410.7c-1.7-0.2-2.8-0.2-5.8-0.2c-26,0-34.8,26.4-34.8,40.9c0,14.1,7,18.8,14.9,18.8
			c1.3,0,8.3-0.6,13.6-5.8C1533.1,446.1,1536.1,429.2,1540.4,410.7"/>
		<path class="st4" d="M1629,489.7c-7.9,1.9-14.7,2.1-17.3,2.1c-21.5,0-28.3-9.2-28.3-22c0-7.2,2.1-16,6.2-32.6l6.4-26h-2.1
			c-4.1,0-7.2,0.2-11.1,0.4l-1.1-1.3c2.1-7,3.4-12.1,5.3-19l1.3-1.1h12.6c2.1-8.8,3.6-15.1,5.3-24.1l1.3-1.3
			c11.5-2.6,19.6-4.7,30.9-8.1l1.1,1.3c-1.5,5.3-2.4,10-8.3,32.8c7.2-0.2,12.2-0.2,19.4-0.6l0.7,1.5c-2.4,6.8-4.1,11.7-5.8,18.8
			l-1.7,1.1c-6.4-0.2-10.9-0.2-17.3-0.2l-7.9,33c-1.9,7.9-3.6,15.1-3.6,17.9c0,3.4,2.1,7.7,9.4,7.7c4.9,0,8.3-1.5,10.4-2.3l1.1,0.9
			c-2.3,7.3-3.6,12.4-5.6,19.6L1629,489.7z"/>
		<path class="st4" d="M1687.9,441.8l-3,13.9c-2.3,10.9-4.2,21.9-6,33l-1.3,0.9c-10.9,0-21.9,0.2-32.6,0.8l-0.9-1.3
			c4.3-16.6,8.5-33.5,12.2-50.5l2.1-9.2c2.6-11.7,5.1-23.5,6.4-35.2l1.3-1.3c11.1-1.5,22.2-3.2,33.1-5.3l1.1,1.5
			C1696,406,1691.7,424.1,1687.9,441.8 M1709.8,344.6c-1.7,8.5-4,16.8-6,25.1l-1.5,1.5c-10.2,1.3-20.3,2.8-30.7,4.3l-1.1-1.5
			c1.9-8.3,3.8-16.8,5.5-25.2l1.7-1.3c10.2-1.3,21.8-3,31.1-4.1L1709.8,344.6z"/>
		<path class="st4" d="M1764.6,387.7c11.9,0,43.1,4.9,43.1,40.5c0,37.5-20.9,63.9-57.6,63.9c-37.9,0-45-23.5-45-41.1
			C1705.1,438.6,1710.1,387.7,1764.6,387.7 M1750.6,472.1c20,0,25.8-34.5,25.8-48c0-6.4-1.9-16.4-14.1-16.4
			c-22.6,0-25.8,41.8-25.8,47.7C1736.5,468.2,1743.5,472.1,1750.6,472.1"/>
		<path class="st4" d="M1867.4,388.7L1865,399c3.4-2.6,15.1-11.3,29.8-11.3c7.3,0,25.2,2.8,25.2,24.9c0,11.5-13.4,67.3-14.3,76.1
			l-1.3,0.9c-10.4,0.2-20.5,0.4-30.7,0.8l-0.8-1.3c4.3-20.2,13.8-56.3,13.8-66.5c0-6.2-3.8-10.7-10.4-10.7c-5.5,0-10.5,2.8-14.7,5.8
			c-5.3,23.5-12.4,57.1-14.9,70.8l-1.3,1.1c-10.4,0-20.7,0.4-31.1,0.8l-0.7-1.3c3.4-14.7,18.5-75.7,19.6-94.9l1.5-1.5
			c11.3-1.5,21.3-3.2,31.6-5.3L1867.4,388.7z"/>
	</g>
</g>
</svg>
